<?xml version="1.0" encoding="utf-8"?>
<!-- Generator: Adobe Illustrator 19.0.0, SVG Export Plug-In . SVG Version: 6.00 Build 0)  -->
<svg version="1.1" id="Layer_1" xmlns="http://www.w3.org/2000/svg" xmlns:xlink="http://www.w3.org/1999/xlink" x="0px" y="0px"
	 viewBox="0 0 960 560" style="enable-background:new 0 0 960 560;" xml:space="preserve">
<style type="text/css">
	.Drop_x0020_Shadow{fill:none;}
	.Outer_x0020_Glow_x0020_5_x0020_pt{fill:none;}
	.Blue_x0020_Neon{fill:none;stroke:#8AACDA;stroke-width:7;stroke-linecap:round;stroke-linejoin:round;}
	.Chrome_x0020_Highlight{fill:url(#SVGID_1_);stroke:#FFFFFF;stroke-width:0.3629;stroke-miterlimit:1;}
	.Jive_GS{fill:#FFDD00;}
	.Alyssa_GS{fill:#A6D0E4;}
	.st0{fill:#075440;}
	.st1{fill:#868686;}
	.st2{fill:url(#SVGID_2_);}
	.st3{fill:#A7A6A6;}
	.st4{fill:url(#SVGID_3_);}
	.st5{fill:url(#SVGID_4_);}
</style>
<linearGradient id="SVGID_1_" gradientUnits="userSpaceOnUse" x1="0" y1="0" x2="4.489659e-011" y2="-1">
	<stop  offset="0" style="stop-color:#656565"/>
	<stop  offset="0.618" style="stop-color:#1B1B1B"/>
	<stop  offset="0.6292" style="stop-color:#545454"/>
	<stop  offset="0.9831" style="stop-color:#3E3E3E"/>
</linearGradient>
<g>
	<g>
		<g>
			<path class="st0" d="M215.1,244h15.6l27.9,62.7H244l-6.6-15.5h-29.5l-6.5,15.5h-14.2L215.1,244z M233.5,281.3l-10.7-26.4
				l-10.9,26.4H233.5z"/>
			<path class="st0" d="M264.3,244h13.2v62.7h-13.2V244z"/>
			<path class="st0" d="M290.3,244h13.2V273l32-29.1h18.1l-29.2,25.5l31.1,37.2h-17.8l-23.5-28.9l-10.6,9.4v19.5h-13.2V244z"/>
		</g>
		<g>
			<path class="st0" d="M499.6,244h35.6c12.3,0,17.5,6.9,17.5,15.8c0,6.1-3.3,11.7-10.8,13.4v0.2c8.3,1.3,13.3,7.3,13.3,15.4
				c0,13.1-11.1,17.9-20.6,17.9h-34.8L499.6,244z M506.1,271.2h25.7c8.8,0,14.4-2.8,14.4-11.1c0-7.6-5.1-10.1-12.2-10.1h-27.9V271.2
				z M506.1,300.7h27.3c8.3,0,14.7-3.3,14.7-11.9c0-9.1-5.7-11.6-13.2-11.6h-28.9V300.7z"/>
			<path class="st0" d="M563.5,275.1c1-9.6,6.1-15.4,21.8-15.4c15.3,0,20.9,4.7,20.9,13.5V297c0,3.8,1.1,5.1,3.6,5.1
				c1.1,0,2.3-0.1,3.4-0.2v4.4c-1.3,0.3-3.3,0.7-5.4,0.7c-6.6,0-7-4.5-7-8.1h-0.2c-2,3-6.4,9.1-21.3,9.1c-7.8,0-17.7-3.4-17.7-13.7
				c0-12.3,12.7-13.9,22.7-14.3c14.3-0.7,16-1.6,16-6.1c0-6.7-4.3-9-15.1-9c-10.3,0-15.2,2.6-15.6,10H563.5z M600.1,282.1
				c-2.7,1.8-7.5,2.3-20.3,3.4c-7.6,0.7-11.9,2.9-11.9,8.4c0,7.1,6.1,9.2,13.2,9.2c8.8,0,19-4.7,19-14.1V282.1z"/>
			<path class="st0" d="M656.2,277.2c0-9.1-5.6-12.2-13.8-12.2c-12.7,0-18.5,6.4-18.5,16.9l0.1,24.8h-6.5l-0.1-45.6h6.5v9h0.2
				c1.8-4.9,8.8-10.4,18.9-10.4c15.1,0,19.7,7.9,19.7,18.8l0.1,28.3h-6.5L656.2,277.2z"/>
			<path class="st0" d="M672.7,243.5h6.5v39.8L707,261h9.7l-22.4,17.3l24.1,28.3h-8.6l-20.4-24.1l-10.3,7.8l0.1,16.3h-6.5
				L672.7,243.5z"/>
			<path class="st0" d="M722.7,275.1c1-9.6,6.1-15.4,21.8-15.4c15.3,0,20.9,4.7,20.9,13.5V297c0,3.8,1.1,5.1,3.6,5.1
				c1.1,0,2.3-0.1,3.4-0.2v4.4c-1.3,0.3-3.3,0.7-5.4,0.7c-6.6,0-7-4.5-7-8.1h-0.2c-2,3-6.4,9.1-21.3,9.1c-7.8,0-17.7-3.4-17.7-13.7
				c0-12.3,12.7-13.9,22.7-14.3c14.3-0.7,16-1.6,16-6.1c0-6.7-4.3-9-15.1-9c-10.3,0-15.2,2.6-15.6,10H722.7z M759.4,282.1
				c-2.7,1.8-7.5,2.3-20.3,3.4c-7.6,0.7-11.9,2.9-11.9,8.4c0,7.1,6.1,9.2,13.2,9.2c8.8,0,19-4.7,19-14.1V282.1z"/>
		</g>
	</g>
	<g>
		<path class="st0" d="M515,336.4L515,336.4c-0.7,1.4-2.8,3.9-6.9,3.9c-6.8,0-9.1-4.8-9.1-8.9c0-4.7,2.9-8.9,9.1-8.9
			c3.2,0,5.7,1.7,6.8,3.9h0.1v-9.8h2.4l0,23.2H515L515,336.4z M508.1,324.5c-3.8,0-6.7,2.6-6.7,6.9c0,3.3,1.9,6.9,6.7,6.9
			c4,0,7-2.5,7-6.9C515.1,327.9,513,324.5,508.1,324.5z"/>
		<path class="st0" d="M534.4,322.5c6.4,0,9.5,4.2,9.5,8.9c0,4.7-3.1,8.9-9.5,8.9c-6.4,0-9.5-4.2-9.5-8.9
			C524.9,326.7,527.9,322.5,534.4,322.5z M534.4,338.2c4.5,0,7.1-2.9,7.1-6.9c0-4-2.6-6.9-7.1-6.9s-7.1,2.9-7.1,6.9
			C527.3,335.4,529.9,338.2,534.4,338.2z"/>
		<path class="st0" d="M577.5,329.1c0-3.1-1.5-4.6-5-4.6c-3.7,0-5.7,2.1-5.7,5.4l0,9.9h-2.4l0-11.3c0-2.1-1.5-3.9-4.8-3.9
			c-3.4,0-5.9,2-5.9,5.8l0,9.4h-2.4l0-16.7h2.4v3.1h0.1c1-1.8,2.8-3.6,6.6-3.6c3.8,0,5.5,2,6,3.7c0.8-1.7,3.3-3.7,6.6-3.7
			c4.7,0,6.9,2.3,6.9,5.8l0,11.4h-2.4L577.5,329.1z"/>
		<path class="st0" d="M587.8,328.1c0.4-3.5,2.3-5.7,8-5.7c5.6,0,7.7,1.7,7.7,5v8.8c0,1.4,0.4,1.9,1.3,1.9c0.4,0,0.8,0,1.3-0.1v1.6
			c-0.5,0.1-1.2,0.3-2,0.3c-2.4,0-2.6-1.6-2.6-3h-0.1c-0.7,1.1-2.4,3.3-7.8,3.3c-2.9,0-6.5-1.3-6.5-5c0-4.5,4.7-5.1,8.3-5.2
			c5.2-0.3,5.9-0.6,5.9-2.2c0-2.4-1.6-3.3-5.5-3.3c-3.8,0-5.6,1-5.7,3.7H587.8z M601.3,330.7c-1,0.7-2.7,0.8-7.4,1.3
			c-2.8,0.3-4.4,1.1-4.4,3.1c0,2.6,2.3,3.4,4.8,3.4c3.2,0,7-1.7,7-5.2V330.7z"/>
		<path class="st0" d="M629.1,333.7c-0.4,2.2-2.4,6.5-8.5,6.5c-6.1,0-9.4-3.6-9.4-8.9c0-5,3.1-8.9,9.4-8.9c5.8,0,7.9,3.6,8.3,6h-2.4
			c-0.7-2.9-3-4-6-4c-4.8,0-7.1,3-7.1,6.9c0,4.2,2.5,6.9,7.1,6.9c3.5,0,5.5-1.9,6.1-4.5H629.1z M623.2,315.9h2.9l-4.7,4.6h-2
			L623.2,315.9z"/>
		<path class="st0" d="M636,328.1c0.4-3.5,2.3-5.7,8-5.7c5.6,0,7.7,1.7,7.7,5v8.8c0,1.4,0.4,1.9,1.3,1.9c0.4,0,0.8,0,1.3-0.1v1.6
			c-0.5,0.1-1.2,0.3-2,0.3c-2.4,0-2.6-1.6-2.6-3h-0.1c-0.7,1.1-2.4,3.3-7.8,3.3c-2.9,0-6.5-1.3-6.5-5c0-4.5,4.7-5.1,8.3-5.2
			c5.2-0.3,5.9-0.6,5.9-2.2c0-2.4-1.6-3.3-5.5-3.3c-3.8,0-5.6,1-5.7,3.7H636z M649.5,330.7c-1,0.7-2.7,0.8-7.4,1.3
			c-2.8,0.3-4.4,1.1-4.4,3.1c0,2.6,2.3,3.4,4.8,3.4c3.2,0,7-1.7,7-5.2V330.7z"/>
		<path class="st0" d="M673.5,316.5h2.4v3.5h-2.4V316.5z M673.5,323h2.4l0,16.7h-2.4L673.5,323z"/>
		<path class="st0" d="M693,344.7c0.5,0.1,0.9,0.1,1.6,0.1c2.1,0,2.5-0.8,2.5-2.5V323h2.4v19.3c0,2.6-1,4.5-4.3,4.5
			c-0.7,0-1.5-0.1-2.3-0.1V344.7z M697.2,316.5h2.4v3.5h-2.4V316.5z"/>
		<path class="st0" d="M707.5,328.1c0.4-3.5,2.3-5.7,8-5.7c5.6,0,7.7,1.7,7.7,5v8.8c0,1.4,0.4,1.9,1.3,1.9c0.4,0,0.8,0,1.3-0.1v1.6
			c-0.5,0.1-1.2,0.3-2,0.3c-2.4,0-2.6-1.6-2.6-3h-0.1c-0.7,1.1-2.4,3.3-7.8,3.3c-2.9,0-6.5-1.3-6.5-5c0-4.5,4.7-5.1,8.3-5.2
			c5.2-0.3,5.9-0.6,5.9-2.2c0-2.4-1.6-3.3-5.5-3.3c-3.8,0-5.6,1-5.7,3.7H707.5z M720.9,330.7c-1,0.7-2.7,0.8-7.4,1.3
			c-2.8,0.3-4.4,1.1-4.4,3.1c0,2.6,2.3,3.4,4.8,3.4c3.2,0,7-1.7,7-5.2V330.7z"/>
		<path class="st0" d="M731.7,316.5h2.4v14.6l10.2-8.1h3.5l-8.2,6.3l8.9,10.4h-3.2l-7.5-8.9l-3.8,2.9l0,6h-2.4L731.7,316.5z"/>
		<path class="st0" d="M754.4,328.1c0.4-3.5,2.3-5.7,8-5.7c5.6,0,7.7,1.7,7.7,5v8.8c0,1.4,0.4,1.9,1.3,1.9c0.4,0,0.8,0,1.3-0.1v1.6
			c-0.5,0.1-1.2,0.3-2,0.3c-2.4,0-2.6-1.6-2.6-3H768c-0.7,1.1-2.4,3.3-7.8,3.3c-2.9,0-6.5-1.3-6.5-5c0-4.5,4.7-5.1,8.3-5.2
			c5.2-0.3,5.9-0.6,5.9-2.2c0-2.4-1.6-3.3-5.5-3.3c-3.8,0-5.6,1-5.7,3.7H754.4z M767.9,330.7c-1,0.7-2.7,0.8-7.4,1.3
			c-2.8,0.3-4.4,1.1-4.4,3.1c0,2.6,2.3,3.4,4.8,3.4c3.2,0,7-1.7,7-5.2V330.7z"/>
	</g>
	<g>
		<path class="st1" d="M402,323.8c-4.1,0-7.9-1.6-10.8-4.5l-33.5-33.5c-2.9-2.9-4.5-6.7-4.5-10.8c0-4.1,1.6-7.9,4.5-10.8l33.6-33.6
			c2.9-2.9,6.7-4.5,10.8-4.5c4.1,0,7.9,1.6,10.8,4.5l33.5,33.5c6,6,6,15.7,0,21.6l-33.6,33.6C409.9,322.2,406.1,323.8,402,323.8z
			 M402.1,228.2c-3.5,0-6.8,1.4-9.3,3.9l-33.6,33.6c-2.5,2.5-3.9,5.8-3.9,9.3c0,3.5,1.4,6.8,3.9,9.3l33.5,33.5
			c2.5,2.5,5.8,3.9,9.3,3.9c3.5,0,6.8-1.4,9.3-3.9l33.6-33.6c5.1-5.1,5.1-13.5,0-18.6l-33.5-33.5
			C408.9,229.6,405.6,228.2,402.1,228.2z"/>
		<linearGradient id="SVGID_2_" gradientUnits="userSpaceOnUse" x1="423.6839" y1="237.4401" x2="380.3505" y2="312.4958">
			<stop  offset="0" style="stop-color:#D9D9D9"/>
			<stop  offset="0.15" style="stop-color:#FFFFFF"/>
			<stop  offset="0.242" style="stop-color:#FDFDFD"/>
			<stop  offset="0.2752" style="stop-color:#F6F6F6"/>
			<stop  offset="0.2988" style="stop-color:#EBEBEB"/>
			<stop  offset="0.3179" style="stop-color:#DADADA"/>
			<stop  offset="0.3341" style="stop-color:#C4C4C4"/>
			<stop  offset="0.3483" style="stop-color:#A9A9A9"/>
			<stop  offset="0.35" style="stop-color:#A6A6A6"/>
			<stop  offset="0.8" style="stop-color:#FFFFFF"/>
			<stop  offset="0.85" style="stop-color:#D1D1D1"/>
			<stop  offset="1" style="stop-color:#666666"/>
		</linearGradient>
		<path class="st2" d="M445.6,264.8l-33.5-33.5c-5.6-5.6-14.6-5.6-20.1,0L358.4,265c-5.6,5.6-5.6,14.6,0,20.1l33.5,33.5
			c5.6,5.6,14.6,5.6,20.1,0l33.6-33.6C451.2,279.4,451.2,270.4,445.6,264.8z M434.6,277.2l-30.3,30.3c-1.3,1.3-3.3,1.3-4.6,0
			l-30.2-30.2c-1.3-1.3-1.3-3.3,0-4.6l30.3-30.3c1.3-1.3,3.3-1.3,4.6,0l30.2,30.2C435.8,273.9,435.8,275.9,434.6,277.2z"/>
		<path class="st3" d="M435.3,271.9l-30.2-30.2c-0.8-0.8-1.9-1.3-3-1.3c-1.1,0-2.2,0.4-3,1.3L368.7,272c-0.8,0.8-1.3,1.9-1.3,3
			c0,1.1,0.4,2.2,1.3,3l30.2,30.2c0.8,0.8,1.9,1.3,3,1.3c1.2,0,2.2-0.4,3-1.3l30.3-30.3C437,276.3,437,273.6,435.3,271.9z
			 M433.8,276.5l-30.3,30.3c-0.4,0.4-1,0.6-1.5,0.6c-0.6,0-1.1-0.2-1.5-0.6l-30.2-30.2c-0.4-0.4-0.6-1-0.6-1.5
			c0-0.6,0.2-1.1,0.6-1.5l30.3-30.3c0.4-0.4,1-0.6,1.5-0.6c0.6,0,1.1,0.2,1.5,0.6l30.2,30.2C434.7,274.2,434.7,275.6,433.8,276.5z"
			/>
		<g>
			<path class="st1" d="M443.8,312.5c-4.1,0-7.9-1.6-10.8-4.5l-33.5-33.5c-2.9-2.9-4.5-6.7-4.5-10.8c0-4.1,1.6-7.9,4.5-10.8
				l33.6-33.6c2.9-2.9,6.7-4.5,10.8-4.5s7.9,1.6,10.8,4.5l33.5,33.5c6,6,6,15.7,0,21.6L454.6,308
				C451.7,310.9,447.9,312.5,443.8,312.5z M443.9,216.9c-3.5,0-6.8,1.4-9.3,3.9L401,254.4c-2.5,2.5-3.9,5.8-3.9,9.3
				c0,3.5,1.4,6.8,3.9,9.3l33.5,33.5c2.5,2.5,5.8,3.9,9.3,3.9c3.5,0,6.8-1.4,9.3-3.9l33.6-33.6c5.1-5.1,5.1-13.5,0-18.6l-33.5-33.5
				C450.7,218.3,447.4,216.9,443.9,216.9z"/>
			<linearGradient id="SVGID_3_" gradientUnits="userSpaceOnUse" x1="465.5255" y1="226.1244" x2="422.192" y2="301.1802">
				<stop  offset="0" style="stop-color:#D9D9D9"/>
				<stop  offset="0.15" style="stop-color:#FFFFFF"/>
				<stop  offset="0.2449" style="stop-color:#FDFDFD"/>
				<stop  offset="0.2791" style="stop-color:#F6F6F6"/>
				<stop  offset="0.3035" style="stop-color:#EBEBEB"/>
				<stop  offset="0.3232" style="stop-color:#DADADA"/>
				<stop  offset="0.3399" style="stop-color:#C4C4C4"/>
				<stop  offset="0.35" style="stop-color:#B3B3B3"/>
				<stop  offset="0.8" style="stop-color:#FFFFFF"/>
				<stop  offset="0.85" style="stop-color:#D1D1D1"/>
				<stop  offset="1" style="stop-color:#666666"/>
			</linearGradient>
			<path class="st4" d="M487.5,253.5L454,220c-5.6-5.6-14.6-5.6-20.1,0l-33.6,33.6c-5.6,5.6-5.6,14.6,0,20.1l33.5,33.5
				c5.6,5.6,14.6,5.6,20.1,0l33.6-33.6C493,268.1,493,259.1,487.5,253.5z M476.4,265.9l-30.3,30.3c-1.3,1.3-3.3,1.3-4.6,0L411.3,266
				c-1.3-1.3-1.3-3.3,0-4.6l30.3-30.3c1.3-1.3,3.3-1.3,4.6,0l30.2,30.2C477.7,262.6,477.7,264.6,476.4,265.9z"/>
			<path class="st1" d="M477.2,260.6l-30.2-30.2c-0.8-0.8-1.9-1.3-3-1.3c-1.2,0-2.2,0.4-3,1.3l-30.3,30.3c-0.8,0.8-1.3,1.9-1.3,3
				c0,1.1,0.4,2.2,1.3,3l30.2,30.2c0.8,0.8,1.9,1.3,3,1.3c1.1,0,2.2-0.4,3-1.3l30.3-30.3C478.8,265,478.8,262.2,477.2,260.6z
				 M475.7,265.1l-30.3,30.3c-0.4,0.4-1,0.6-1.5,0.6c-0.6,0-1.1-0.2-1.5-0.6L412,265.2c-0.4-0.4-0.6-1-0.6-1.5s0.2-1.1,0.6-1.5
				l30.3-30.3c0.4-0.4,1-0.6,1.5-0.6c0.6,0,1.1,0.2,1.5,0.6l30.2,30.2C476.5,262.9,476.5,264.3,475.7,265.1z"/>
		</g>
		<linearGradient id="SVGID_4_" gradientUnits="userSpaceOnUse" x1="423.6839" y1="237.4401" x2="380.3505" y2="312.4958">
			<stop  offset="0" style="stop-color:#D9D9D9"/>
			<stop  offset="0.15" style="stop-color:#FFFFFF"/>
			<stop  offset="0.2449" style="stop-color:#FDFDFD;stop-opacity:0.5254"/>
			<stop  offset="0.2791" style="stop-color:#F6F6F6;stop-opacity:0.3544"/>
			<stop  offset="0.3035" style="stop-color:#EBEBEB;stop-opacity:0.2325"/>
			<stop  offset="0.3232" style="stop-color:#DADADA;stop-opacity:0.134"/>
			<stop  offset="0.3399" style="stop-color:#C4C4C4;stop-opacity:5.060506e-002"/>
			<stop  offset="0.35" style="stop-color:#B3B3B3;stop-opacity:0"/>
			<stop  offset="0.8" style="stop-color:#FFFFFF;stop-opacity:0"/>
			<stop  offset="0.85" style="stop-color:#D1D1D1;stop-opacity:0"/>
			<stop  offset="1" style="stop-color:#666666;stop-opacity:0"/>
		</linearGradient>
		<path class="st5" d="M445.6,264.8l-33.5-33.5c-5.6-5.6-14.6-5.6-20.1,0L358.4,265c-5.6,5.6-5.6,14.6,0,20.1l33.5,33.5
			c5.6,5.6,14.6,5.6,20.1,0l33.6-33.6C451.2,279.4,451.2,270.4,445.6,264.8z M434.6,277.2l-30.3,30.3c-1.3,1.3-3.3,1.3-4.6,0
			l-30.2-30.2c-1.3-1.3-1.3-3.3,0-4.6l30.3-30.3c1.3-1.3,3.3-1.3,4.6,0l30.2,30.2C435.8,273.9,435.8,275.9,434.6,277.2z"/>
		<path class="st1" d="M435.3,271.9l-30.2-30.2c-0.8-0.8-1.9-1.3-3-1.3c-1.1,0-2.2,0.4-3,1.3L368.7,272c-0.8,0.8-1.3,1.9-1.3,3
			c0,1.1,0.4,2.2,1.3,3l30.2,30.2c0.8,0.8,1.9,1.3,3,1.3c1.2,0,2.2-0.4,3-1.3l14.1-14.1l-1.5-1.5l-14.1,14.1c-0.4,0.4-1,0.6-1.5,0.6
			c-0.6,0-1.1-0.2-1.5-0.6l-30.2-30.2c-0.4-0.4-0.6-1-0.6-1.5c0-0.6,0.2-1.1,0.6-1.5l30.3-30.3c0.4-0.4,1-0.6,1.5-0.6
			c0.6,0,1.1,0.2,1.5,0.6l30.2,30.2c0.9,0.9,0.9,2.2,0,3.1l-5.3,5.3l1.5,1.5l5.3-5.3C437,276.3,437,273.6,435.3,271.9z"/>
		<polygon class="st1" points="417.2,235 428.2,246 427.6,246.8 416.5,235.6 		"/>
	</g>
</g>
</svg>
