<?xml version="1.0" encoding="UTF-8"?>
<!DOCTYPE svg PUBLIC "-//W3C//DTD SVG 1.1//EN" "http://www.w3.org/Graphics/SVG/1.1/DTD/svg11.dtd">
<!-- Creator: CorelDRAW X8 -->
<svg xmlns="http://www.w3.org/2000/svg" xml:space="preserve" width="1542px" height="200px" version="1.1" style="shape-rendering:geometricPrecision; text-rendering:geometricPrecision; image-rendering:optimizeQuality; fill-rule:evenodd; clip-rule:evenodd"
viewBox="0 0 1170 152"
 xmlns:xlink="http://www.w3.org/1999/xlink">
 <defs>
  <style type="text/css">
   <![CDATA[
    .fil1 {fill:#007738}
    .fil5 {fill:#0362AF}
    .fil6 {fill:#04783B}
    .fil3 {fill:#E7BA10}
    .fil2 {fill:#F26F22}
    .fil4 {fill:#F27328}
    .fil0 {fill:#FEFEFE}
   ]]>
  </style>
 </defs>
 <g id="Layer_x0020_1">
  <metadata id="CorelCorpID_0Corel-Layer"/>
  <g id="_2148025277312">
   <path class="fil0" d="M767 57c2,0 2,2 3,2 11,13 23,25 34,37 9,10 18,21 28,31 1,1 2,2 3,3 1,1 3,0 3,-2 0,-6 1,-12 1,-19 0,-18 0,-37 0,-56 0,-7 0,-13 1,-20 1,-2 1,-4 2,-5 2,-1 3,-2 5,-2 2,1 1,3 1,4 1,3 0,6 0,9 0,1 0,2 2,3 2,0 2,-2 2,-3 2,-5 5,-6 9,-7 5,-1 10,-1 15,-1 6,0 5,1 5,5 0,25 0,49 0,73 0,4 -1,8 -1,11 -1,4 -3,6 -7,6 -2,0 -3,0 -5,0 -1,0 -2,0 -2,1 0,2 1,2 3,2 0,0 1,0 2,0 12,0 24,0 36,0 2,0 5,2 7,-2 -2,-2 -5,0 -7,-1 -5,-1 -6,-2 -7,-6 -1,-4 -1,-8 -1,-12 0,-24 0,-47 0,-71 0,-2 -1,-4 1,-6 7,0 14,0 21,2 4,1 8,2 8,8 0,1 1,2 2,2 2,-3 2,-3 1,-4 -1,-4 0,-7 0,-10 0,-3 1,-3 3,-3 5,2 6,6 6,10 0,24 0,47 0,71 0,4 0,8 -1,12 -2,7 -2,7 -8,7 -1,1 -2,1 -3,2 1,2 3,1 4,1 3,0 7,0 10,0 17,0 35,1 53,1 2,0 5,1 8,-2 1,-1 2,0 3,0 4,2 9,2 13,3 10,2 20,1 30,-3 17,-7 22,-22 17,-38 -2,-6 -6,-11 -11,-15 -5,-5 -11,-9 -17,-13 -4,-3 -9,-7 -13,-11 -7,-7 -3,-19 6,-23 4,-1 8,-1 12,-1 9,1 16,7 18,16 0,1 0,2 2,3 1,-2 2,-3 2,-5 0,-5 0,-10 0,-15 0,-3 -2,-3 -3,-4 -10,-2 -19,-2 -29,-1 -7,1 -13,3 -19,8 -6,5 -9,11 -9,19 1,8 4,15 10,21 7,8 16,13 24,19 4,3 8,7 10,11 6,11 1,19 -8,23 -7,3 -14,3 -21,0 -5,-2 -9,-5 -11,-11 -1,-2 -2,-5 -2,-8 -1,-1 0,-2 -2,-2 -2,-1 -1,1 -2,3 -1,2 0,4 -1,6 -1,7 -3,10 -10,11 -9,2 -17,1 -26,-1 -5,-1 -8,-5 -8,-10 0,-10 0,-21 0,-31 0,-2 1,-3 3,-3 7,0 14,0 21,0 1,0 3,1 5,1 4,1 5,3 6,7 0,0 0,1 0,2 0,1 0,2 2,2 0,0 1,-1 1,-2 -1,-6 1,-12 1,-18 0,-1 0,-2 -1,-3 -3,2 -6,4 -10,4 -8,0 -17,0 -25,0 -3,0 -3,-1 -3,-4 0,-10 0,-20 0,-30 0,-5 0,-5 5,-4 2,0 4,0 6,0 5,0 11,0 16,0 6,1 8,3 10,8 0,1 -1,3 1,4 1,0 1,0 1,-1 2,-5 0,-12 3,-18 0,0 0,-1 -1,-2 -3,0 -6,1 -9,1 -6,0 -13,0 -19,0 -8,0 -17,0 -25,0 -9,0 -17,0 -26,0 -14,1 -28,0 -42,0 -9,0 -18,1 -27,-1 -1,0 -2,0 -3,0 -5,2 -11,1 -16,1 -4,1 -9,0 -13,0 -2,0 -3,0 -3,2 1,0 1,1 2,1 8,-1 11,3 11,11 0,1 0,2 0,3 0,15 0,30 0,45 0,2 0,5 -1,7 -2,-2 -3,-4 -4,-5 -17,-19 -34,-37 -50,-55 -3,-4 -6,-7 -9,-10 -1,-1 -2,-2 -4,-1 -2,0 -2,2 -2,4 0,4 -1,8 -1,12 0,14 0,28 -1,42 -1,10 -1,19 -1,28 0,4 -1,7 -1,11 0,3 -2,6 -5,7 -6,2 -12,2 -17,0 -4,-3 -4,-7 -4,-12 0,-1 0,-2 0,-4 0,-23 0,-46 0,-69 0,-2 0,-4 0,-6 1,-5 2,-7 7,-8 1,0 4,1 4,-2 0,-2 -3,-1 -5,-1 -4,0 -8,0 -13,1 -1,0 -2,0 -4,0 -5,-2 -10,0 -15,-1 -1,0 -3,0 -3,2 0,1 2,1 3,1 6,1 8,2 8,8 1,3 1,6 1,9 0,19 0,38 0,57 0,6 0,13 -1,19 -1,5 -2,6 -7,7 -1,1 -4,-1 -4,2 0,2 3,1 5,1 0,0 0,0 0,0 24,0 47,0 71,0 1,0 3,0 4,0 0,0 1,-1 1,-1 0,-1 0,-1 -1,-2 -1,0 -1,0 -2,0 -8,0 -10,-2 -11,-10 0,-10 0,-20 -1,-30 0,-10 0,-19 0,-29zm-385 0c3,1 4,3 5,5 11,12 22,23 32,35 9,9 17,18 25,27 2,2 4,4 6,6 2,1 3,0 3,-2 1,-1 0,-2 0,-3 1,-21 1,-41 2,-62 0,-9 0,-17 0,-26 0,-2 0,-4 1,-6 1,-3 3,-5 6,-5 2,0 4,0 5,-2 -2,-2 -3,-1 -5,-1 -9,0 -18,0 -27,0 -1,0 -2,0 -2,1 0,1 1,1 2,2 8,1 8,1 9,8 1,2 1,4 1,6 0,16 0,31 0,47 0,2 1,3 -1,6 -1,-1 -1,-3 -2,-3 -8,-9 -15,-17 -23,-26 -12,-13 -24,-26 -36,-39 -1,-1 -2,-3 -3,-3 -3,-2 -5,-1 -5,2 0,1 0,3 0,4 -1,11 -1,23 -1,34 -1,17 -2,35 -2,52 0,3 0,6 -1,9 -1,1 -2,3 -4,3 -2,0 -3,-1 -4,-2 -2,-3 -3,-6 -5,-9 -10,-24 -20,-49 -30,-74 -2,-6 -5,-12 -7,-18 -2,-3 -4,-3 -5,0 -1,1 -2,3 -2,5 -10,23 -19,47 -29,71 -3,6 -5,13 -8,19 -2,5 -5,8 -11,9 -1,0 -4,0 -5,2 5,1 33,0 36,-1 0,-1 -1,-1 -2,-1 -7,0 -8,-3 -6,-9 2,-7 6,-15 8,-22 1,-3 2,-3 5,-3 8,0 16,0 24,0 4,0 5,1 6,4 3,7 6,14 8,21 1,2 2,4 2,6 1,2 -3,2 -2,5 6,0 13,0 19,0 7,0 13,0 19,0 7,0 13,1 20,0 -3,-3 -5,-3 -7,-3 -4,1 -6,-2 -7,-5 0,-4 -1,-7 -1,-11 0,-8 0,-15 0,-23 -1,-10 0,-19 -1,-30zm-185 72c2,1 4,0 6,0 10,1 19,0 29,1 10,1 20,0 30,-5 17,-10 18,-34 6,-46 -5,-4 -10,-8 -17,-11 3,-2 6,-4 8,-7 11,-13 7,-33 -12,-37 -5,-1 -11,-1 -16,-1 -11,0 -22,0 -34,0 0,0 -1,0 -1,1 0,1 1,2 1,2 2,0 3,0 5,0 4,0 6,3 7,7 0,1 0,3 0,4 0,24 0,48 0,73 0,3 0,6 -1,9 -1,7 -1,6 -7,8 -1,0 -3,0 -4,2zm937 -1c0,1 1,1 1,1 11,0 21,0 32,0 1,0 2,0 3,0 0,0 0,-1 0,-1 0,0 0,-1 0,-1 -1,0 -2,-1 -3,-1 -5,1 -8,-2 -11,-5 -2,-3 -3,-6 -5,-9 -11,-28 -22,-57 -34,-85 -1,-2 -1,-4 -3,-6 -1,-1 -2,-1 -3,1 -1,2 -2,4 -3,6 -8,19 -16,38 -23,57 -5,11 -9,22 -14,33 -2,6 -6,9 -12,8 -2,0 -3,1 -3,3 1,1 2,0 4,0 9,0 19,0 28,0 1,0 3,1 3,-1 1,-2 -2,-1 -3,-2 -1,0 -2,0 -2,0 -3,0 -4,-1 -4,-4 0,-1 1,-3 1,-4 3,-7 5,-14 8,-21 1,-4 3,-5 6,-4 8,0 15,0 23,0 4,-1 6,1 7,5 2,7 5,14 8,21 2,5 2,5 -1,9zm-501 0c4,2 9,1 13,1 7,0 14,0 21,0 1,0 2,0 2,-1 0,-1 -1,-2 -2,-2 -7,1 -11,-3 -14,-8 -2,-3 -3,-6 -4,-9 -8,-19 -16,-38 -23,-57 -4,-9 -7,-18 -11,-27 -1,-2 -1,-4 -4,-4 -3,-1 -3,3 -4,4 0,1 0,1 0,1 -12,30 -24,59 -35,89 -3,6 -5,12 -13,12 0,0 -1,1 -1,1 0,0 1,1 1,1 2,0 3,0 5,0 7,0 14,0 21,0 2,0 5,2 5,-1 0,-2 -3,-1 -4,-2 -4,0 -5,-1 -5,-5 0,-1 0,-2 1,-3 2,-7 5,-14 8,-22 1,-3 3,-3 6,-3 8,0 15,0 23,0 3,-1 5,1 6,4 3,8 6,16 9,23 2,5 2,5 -1,8zm-77 -74c1,-2 2,-3 2,-6 0,-6 0,-12 0,-19 0,-2 0,-3 -3,-3 -15,-3 -30,-5 -46,-3 -14,2 -25,8 -34,19 -8,11 -11,24 -11,37 1,26 17,44 40,50 12,3 24,3 37,2 3,0 6,-1 9,-2 4,0 6,-3 7,-6 0,-5 1,-10 2,-15 0,-1 1,-3 -1,-3 -2,-1 -2,1 -3,2 0,1 0,3 -1,4 -2,5 -6,9 -12,11 -21,5 -40,-1 -51,-21 -10,-17 -10,-34 -3,-52 4,-9 11,-16 21,-18 12,-3 23,-2 34,3 7,3 11,8 11,16 0,1 0,3 2,4z"/>
   <path class="fil1" d="M197 129c1,-2 3,-2 4,-2 6,-2 6,-1 7,-8 1,-3 1,-6 1,-9 0,-25 0,-49 0,-73 0,-1 0,-3 0,-4 -1,-4 -3,-7 -7,-7 -2,0 -3,0 -5,0 0,0 -1,-1 -1,-2 0,-1 1,-1 1,-1 12,0 23,0 34,0 5,0 11,0 16,1 19,4 23,24 12,37 -2,3 -5,5 -8,7 7,3 12,7 17,11 12,12 11,36 -6,46 -10,5 -20,6 -30,5 -10,-1 -19,0 -29,-1 -2,0 -4,1 -6,0zm30 -33c0,0 0,0 0,0 0,5 0,11 0,16 0,8 1,10 9,11 10,2 21,-2 22,-15 1,-7 -1,-14 -4,-21 -3,-5 -8,-9 -13,-12 -4,-1 -7,0 -10,-1 -3,-1 -4,0 -4,4 0,6 0,12 0,18zm0 -48c0,4 0,8 0,12 0,9 -2,8 8,8 7,0 11,-3 13,-9 3,-7 2,-15 -2,-22 -3,-6 -9,-9 -16,-8 -3,0 -3,1 -3,3 0,6 0,11 0,16z"/>
   <path class="fil2" d="M152 0c0,48 0,96 0,144 0,2 0,3 0,5 0,2 -1,3 -3,3 -1,0 -3,0 -5,0 -45,0 -91,0 -137,0 -2,0 -5,0 -7,0 0,-51 0,-101 0,-152 51,0 101,0 152,0zm-144 143c2,0 3,0 4,0 42,0 83,0 125,0 1,0 2,0 3,0 2,0 3,-1 3,-3 0,-1 0,-2 0,-3 0,-41 0,-83 0,-124 0,-2 0,-3 -1,-5 -45,0 -89,0 -134,0 0,45 0,90 0,135z"/>
   <path class="fil1" d="M1134 128c3,-4 3,-4 1,-9 -3,-7 -6,-14 -8,-21 -1,-4 -3,-6 -7,-5 -8,0 -15,0 -23,0 -3,-1 -5,0 -6,4 -3,7 -5,14 -8,21 0,1 -1,3 -1,4 0,3 1,4 4,4 0,0 1,0 2,0 1,1 4,0 3,2 0,2 -2,1 -3,1 -9,0 -19,0 -28,0 -2,0 -3,1 -4,0 0,-2 1,-3 3,-3 6,1 10,-2 12,-8 5,-11 9,-22 14,-33 7,-19 15,-38 23,-57 1,-2 2,-4 3,-6 1,-2 2,-2 3,-1 2,2 2,4 3,6 12,28 23,57 34,85 2,3 3,6 5,9 3,3 6,6 11,5 1,0 2,1 3,1 0,0 0,1 0,1 0,0 0,1 0,1 -1,0 -2,0 -3,0 -11,0 -21,0 -32,0 0,0 -1,0 -1,-1zm-25 -79c-5,13 -9,24 -13,36 7,1 21,1 26,-1 -4,-11 -8,-22 -13,-35z"/>
   <path class="fil1" d="M767 57c0,10 0,19 0,29 1,10 1,20 1,30 1,8 3,10 11,10 1,0 1,0 2,0 1,1 1,1 1,2 0,0 -1,1 -1,1 -1,0 -3,0 -4,0 -24,0 -47,0 -71,0 0,0 0,0 0,0 -2,0 -5,1 -5,-1 0,-3 3,-1 4,-2 5,-1 6,-2 7,-7 1,-6 1,-13 1,-19 0,-19 0,-38 0,-57 0,-3 0,-6 -1,-9 0,-6 -2,-7 -8,-8 -1,0 -3,0 -3,-1 0,-2 2,-2 3,-2 5,1 10,-1 15,1 2,0 3,0 4,0 5,-1 9,-1 13,-1 2,0 5,-1 5,1 0,3 -3,2 -4,2 -5,1 -6,3 -7,8 0,2 0,4 0,6 0,23 0,46 0,69 0,2 0,3 0,4 0,5 0,9 4,12 5,2 11,2 17,0 3,-1 5,-4 5,-7 0,-4 1,-7 1,-11 0,-9 0,-18 1,-28 1,-14 1,-28 1,-42 0,-4 1,-8 1,-12 0,-2 0,-4 2,-4 2,-1 3,0 4,1 3,3 6,6 9,10 16,18 33,36 50,55 1,1 2,3 4,5 1,-2 1,-5 1,-7 0,-15 0,-30 0,-45 0,-1 0,-2 0,-3 0,-8 -3,-12 -11,-11 -1,0 -1,-1 -2,-1 0,-2 1,-2 3,-2 4,0 9,1 13,0 5,0 11,1 16,-1 1,0 2,0 3,0 9,2 18,1 26,1 15,0 29,1 43,0 9,0 17,0 26,0 8,0 17,0 25,0 6,0 13,0 19,0 3,0 6,-1 9,-1 1,1 1,2 1,2 -3,6 -1,13 -3,18 0,1 0,1 -1,1 -2,-1 -1,-3 -1,-4 -2,-5 -4,-7 -10,-8 -5,0 -11,0 -16,0 -2,0 -4,0 -6,0 -5,-1 -5,-1 -5,4 0,10 0,20 0,30 0,3 0,4 3,4 8,0 17,0 25,0 4,0 7,-2 10,-4 1,1 1,2 1,3 0,6 -2,12 -1,18 0,1 -1,2 -1,2 -2,0 -2,-1 -2,-2 0,-1 0,-2 0,-2 -1,-4 -2,-6 -6,-7 -2,0 -4,-1 -5,-1 -7,0 -14,0 -21,0 -2,0 -3,1 -3,3 0,10 0,21 0,31 0,5 3,9 8,10 9,2 17,3 26,1 7,-1 9,-4 10,-11 1,-2 0,-4 1,-6 1,-2 0,-4 2,-3 2,0 1,1 2,2 0,3 1,6 2,8 2,6 6,9 11,11 7,3 14,3 21,0 9,-4 14,-12 8,-23 -2,-4 -6,-8 -10,-11 -8,-6 -17,-11 -24,-19 -6,-6 -9,-13 -10,-21 0,-8 3,-14 9,-19 6,-5 12,-7 19,-8 10,-1 19,-1 29,1 1,1 3,1 3,4 0,5 0,10 0,15 0,2 -1,3 -2,5 -2,-1 -2,-2 -2,-3 -2,-9 -9,-15 -18,-16 -4,0 -8,0 -12,1 -9,4 -13,16 -6,23 4,4 9,8 13,11 6,4 12,8 17,13 5,4 9,9 11,15 5,16 0,31 -17,38 -10,4 -20,5 -30,3 -4,-1 -9,-1 -13,-3 -1,0 -2,-1 -3,0 -3,3 -6,2 -8,2 -18,0 -36,-1 -53,-1 -3,0 -7,0 -10,0 -1,0 -3,1 -4,-1 1,-1 2,-1 3,-2 6,0 6,0 8,-7 1,-4 1,-8 1,-12 0,-24 0,-47 0,-71 0,-4 -1,-8 -6,-10 -2,0 -3,0 -3,3 0,3 -1,6 0,10 1,1 1,1 -1,4 -1,0 -2,-1 -2,-2 0,-6 -4,-7 -8,-8 -7,-2 -14,-2 -21,-2 -2,2 -1,4 -1,6 0,24 0,47 0,71 0,4 0,8 1,12 1,4 2,5 7,6 2,1 5,-1 7,1 -2,4 -5,2 -7,2 -12,0 -24,0 -36,0 -1,0 -2,0 -2,0 -2,0 -3,0 -3,-2 0,-1 1,-1 2,-1 2,0 3,0 5,0 4,0 6,-2 7,-6 0,-3 1,-7 1,-11 0,-24 0,-48 0,-73 0,-4 1,-5 -5,-5 -5,0 -10,0 -15,1 -4,1 -7,2 -9,7 0,1 0,3 -2,3 -2,-1 -2,-2 -2,-3 0,-3 1,-6 0,-9 0,-1 1,-3 -1,-4 -2,0 -3,1 -5,2 -1,1 -1,3 -2,5 -1,7 -1,13 -1,20 0,19 0,38 0,56 0,7 -1,13 -1,19 0,2 -2,3 -3,2 -1,-1 -2,-2 -3,-3 -10,-10 -19,-21 -28,-31 -11,-12 -23,-24 -34,-37 -1,0 -1,-2 -3,-2z"/>
   <path class="fil1" d="M633 128c3,-3 3,-3 1,-8 -3,-7 -6,-15 -9,-23 -1,-3 -3,-5 -6,-4 -8,0 -15,0 -23,0 -3,0 -5,0 -6,3 -3,8 -6,15 -8,22 -1,1 -1,2 -1,3 0,4 1,5 5,5 1,1 4,0 4,2 0,3 -3,1 -5,1 -7,0 -14,0 -21,0 -2,0 -3,0 -5,0 0,0 -1,-1 -1,-1 0,0 1,-1 1,-1 8,0 10,-6 13,-12 11,-30 23,-59 35,-89 0,0 0,0 0,-1 1,-1 1,-5 4,-4 3,0 3,2 4,4 4,9 7,18 11,27 7,19 15,38 23,57 1,3 2,6 4,9 3,5 7,9 14,8 1,0 2,1 2,2 0,1 -1,1 -2,1 -7,0 -14,0 -21,0 -4,0 -9,1 -13,-1zm-39 -43c9,0 18,0 27,0 -3,-6 -5,-12 -7,-18 -2,-5 -4,-11 -6,-18 -5,13 -9,24 -14,36z"/>
   <path class="fil1" d="M382 57c1,11 0,20 1,30 0,8 0,15 0,23 0,4 1,7 1,11 1,3 3,6 7,5 2,0 4,0 7,3 -7,1 -13,0 -20,0 -6,0 -12,0 -19,0 -6,0 -13,0 -19,0 -1,-3 3,-3 2,-5 0,-2 -1,-4 -2,-6 -2,-7 -5,-14 -8,-21 -1,-3 -2,-4 -6,-4 -8,0 -16,0 -24,0 -3,0 -4,0 -5,3 -2,7 -6,15 -8,22 -2,6 -1,9 6,9 1,0 2,0 2,1 -3,1 -31,2 -36,1 1,-2 4,-2 5,-2 6,-1 9,-4 11,-9 3,-6 5,-13 8,-19 10,-24 19,-48 29,-71 0,-2 1,-4 2,-5 1,-3 3,-3 5,0 2,6 5,12 7,18 10,25 20,50 30,74 2,3 3,6 5,9 1,1 2,2 4,2 2,0 3,-2 4,-3 1,-3 1,-6 1,-9 0,-17 1,-35 2,-52 0,-11 0,-23 1,-34 0,-1 0,-3 0,-4 0,-3 2,-4 5,-2 1,0 2,2 3,3 12,13 24,26 36,39 8,9 15,17 23,26 1,0 1,2 2,3 2,-3 1,-4 1,-6 0,-16 0,-31 0,-47 0,-2 0,-4 -1,-6 -1,-7 -1,-7 -9,-8 -1,-1 -2,-1 -2,-2 0,-1 1,-1 2,-1 9,0 18,0 27,0 2,0 3,-1 5,1 -1,2 -3,2 -5,2 -3,0 -5,2 -6,5 -1,2 -1,4 -1,6 0,9 0,17 0,26 -1,21 -1,41 -2,62 0,1 1,2 0,3 0,2 -1,3 -3,2 -2,-2 -4,-4 -6,-6 -8,-9 -16,-18 -25,-27 -10,-12 -21,-23 -32,-35 -1,-2 -2,-4 -5,-5zm-81 28c9,0 18,0 27,0 -5,-12 -9,-23 -14,-36 -4,13 -8,24 -13,36z"/>
   <path class="fil1" d="M556 54c-2,-1 -2,-3 -2,-4 0,-8 -4,-13 -11,-16 -11,-5 -22,-6 -34,-3 -10,2 -17,9 -21,18 -7,18 -7,35 3,52 11,20 30,26 51,21 6,-2 10,-6 12,-11 1,-1 1,-3 1,-4 1,-1 1,-3 3,-2 2,0 1,2 1,3 -1,5 -2,10 -2,15 -1,3 -3,6 -7,6 -3,1 -6,2 -9,2 -13,1 -25,1 -37,-2 -23,-6 -39,-24 -40,-50 0,-13 3,-26 11,-37 9,-11 20,-17 34,-19 16,-2 31,0 46,3 3,0 3,1 3,3 0,7 0,13 0,19 0,3 -1,4 -2,6z"/>
   <path class="fil3" d="M69 45c-8,0 -17,-1 -25,0 -7,1 -14,1 -22,1 0,0 -1,0 -2,0 -2,0 -4,0 -5,-2 0,-3 3,-2 5,-2 19,1 38,-2 58,-1 5,0 11,-1 17,0 13,1 25,1 37,1 2,0 4,0 4,2 0,2 -1,3 -4,3 -1,0 -2,1 -3,0 -7,-2 -15,0 -22,-1 -13,-1 -25,-1 -38,-1z"/>
   <path class="fil4" d="M101 90c0,-5 -1,-10 0,-15 0,-11 6,-18 17,-19 7,-1 13,4 15,11 0,1 0,2 1,3 1,10 2,19 1,29 0,2 0,4 0,6 1,1 1,2 0,3 0,1 0,4 -2,3 -2,0 -3,-2 -3,-4 0,-1 0,-2 0,-4 1,-7 0,-15 0,-22 1,-5 0,-8 -1,-12 -1,-5 -4,-9 -9,-9 -5,-1 -10,1 -13,5 -1,2 -2,4 -2,6 0,8 -3,16 -1,24 1,4 0,9 0,14 0,1 0,2 -1,2 -1,0 -2,-1 -2,-2 0,-1 0,-2 0,-4 0,-5 0,-10 0,-15z"/>
   <path class="fil5" d="M20 111c-2,-1 -2,-2 -2,-4 0,-12 -1,-24 0,-36 1,-12 15,-19 24,-14 5,2 7,6 8,10 1,5 2,10 2,15 -1,8 0,16 0,25 0,1 0,3 -2,3 -3,0 -3,-2 -3,-4 1,-8 0,-17 0,-26 1,-4 -1,-9 -2,-13 -1,-5 -4,-7 -8,-8 -5,0 -9,0 -12,4 -2,3 -3,5 -4,8 -2,12 0,23 -1,35 0,1 1,3 0,5z"/>
   <path class="fil6" d="M62 111c-2,-1 -2,-3 -2,-4 -1,-9 -1,-17 -1,-25 0,-4 0,-9 1,-13 2,-10 12,-15 22,-13 6,2 9,7 10,13 2,7 2,15 2,22 0,5 0,10 0,16 0,1 0,3 -2,3 -3,0 -3,-2 -3,-4 1,-8 0,-17 0,-25 1,-5 0,-9 -1,-13 -2,-6 -6,-9 -11,-9 -8,1 -12,4 -13,10 -2,7 -2,14 -2,21 0,7 0,14 0,21z"/>
  </g>
 </g>
</svg>
