<?xml version="1.0" encoding="UTF-8"?>
<!DOCTYPE svg PUBLIC "-//W3C//DTD SVG 1.1//EN" "http://www.w3.org/Graphics/SVG/1.1/DTD/svg11.dtd">
<!-- Creator: CorelDRAW 2020 (64-Bit) -->
<svg xmlns="http://www.w3.org/2000/svg" xml:space="preserve" width="77.0731mm" height="44.2913mm" version="1.1" style="shape-rendering:geometricPrecision; text-rendering:geometricPrecision; image-rendering:optimizeQuality; fill-rule:evenodd; clip-rule:evenodd"
viewBox="0 0 7707.3 4429.12"
 xmlns:xlink="http://www.w3.org/1999/xlink"
 xmlns:xodm="http://www.corel.com/coreldraw/odm/2003">
 <defs>
  <style type="text/css">
   <![CDATA[
    .fil1 {fill:#245DA9;fill-rule:nonzero}
    .fil2 {fill:#ED3538;fill-rule:nonzero}
    .fil0 {fill:white;fill-rule:nonzero}
   ]]>
  </style>
 </defs>
 <g id="Layer_x0020_1">
  <metadata id="CorelCorpID_0Corel-Layer"/>
  <g id="_2700668237760">
   <path id="XMLID_70_" class="fil0" d="M169.34 0l7373.92 0c89.96,0 164.04,74.08 164.04,166.69l0 4090.45c0,92.6 -74.08,171.98 -164.04,171.98l-7373.92 0c-95.25,0 -169.33,-79.38 -169.33,-171.98l-0.01 -4090.45c0,-92.61 74.09,-166.69 169.34,-166.69z"/>
   <g id="_2287414035056">
    <path id="XMLID_78_" class="fil1" d="M1434.05 2399.77l68.79 0c60.85,0 103.19,-7.94 129.65,-26.46 21.17,-21.17 34.4,-55.56 34.4,-100.54 0,-52.92 -13.23,-87.31 -34.4,-103.19 -26.46,-21.17 -68.79,-29.1 -127,-29.1l-74.09 0 0 259.29 2.65 0zm-251.36 132.29l0 -529.17 304.27 0.01c76.73,0 134.94,0 174.63,7.94 39.69,5.29 74.08,13.23 100.54,21.17 52.92,21.17 95.25,52.92 121.71,89.96 26.46,42.33 39.69,89.96 39.69,148.17 0,58.21 -13.23,103.19 -47.63,148.17 -34.4,42.33 -82.02,68.79 -150.81,89.96 -21.17,7.94 -55.56,13.23 -95.25,18.52 -39.69,5.29 -95.25,5.29 -182.56,5.29l-264.59 -0.02zm833.44 -428.62l0 -113.77 230.19 0 0 113.77 -230.19 0zm0 428.62l0 -388.93 230.19 0 0 388.94 -230.19 -0.01zm341.31 0l0 -388.93 209.02 0 0 60.85c26.46,-26.46 55.56,-42.33 87.31,-52.92 34.4,-13.23 74.08,-18.52 113.77,-18.52 34.4,0 68.79,5.29 95.25,13.23 29.1,5.29 52.92,18.52 68.79,34.4 18.52,13.23 29.1,29.1 39.69,52.92 7.94,18.52 7.94,52.92 7.94,95.25l0 203.73 -224.89 -0.01 0 -203.73c0,-29.1 -7.94,-47.63 -21.17,-55.56 -7.94,-13.23 -29.1,-18.52 -55.56,-18.52 -29.1,0 -52.92,5.29 -68.79,18.52 -13.23,13.23 -18.52,29.1 -18.52,55.56l0 203.73 -232.84 0zm1111.25 -171.98c-18.52,5.29 -47.63,13.23 -82.02,18.52 -60.85,7.94 -87.31,21.17 -87.31,42.33 0,7.94 5.29,18.52 18.52,26.46 7.94,5.29 26.46,7.94 47.63,7.94 34.4,0 66.15,-7.94 82.02,-21.17 18.52,-7.94 26.46,-26.46 26.46,-55.56 0,-5.29 0,-7.94 0,-13.23 -2.65,-2.64 -2.65,-5.29 -5.3,-5.29zm21.17 171.98l-13.23 -34.4c-26.46,13.23 -60.85,26.46 -89.96,34.4 -34.4,13.23 -74.08,13.23 -116.42,13.23 -66.15,0 -116.42,-7.94 -150.81,-29.1 -34.4,-21.17 -52.92,-52.92 -52.92,-89.96 0,-37.04 18.52,-68.79 52.92,-89.96 34.4,-13.23 100.54,-26.46 198.44,-39.69 13.23,0 26.46,0 47.63,0 74.08,-5.29 108.48,-18.52 108.48,-34.4 0,-15.88 -5.29,-21.17 -18.52,-29.1 -13.23,-5.29 -34.4,-5.29 -66.15,-5.29 -21.17,0 -39.69,5.29 -52.92,7.94 -18.52,5.29 -21.17,18.52 -21.17,29.1l-224.89 0c0,-42.33 26.46,-76.73 76.73,-100.54 52.92,-26.46 129.65,-34.4 230.19,-34.4 47.63,0 89.96,0 129.65,7.94 39.69,7.94 74.08,13.23 95.25,26.46 26.46,7.94 47.63,26.46 55.56,39.69 13.23,18.52 18.52,39.69 18.52,68.79l0 216.96c0,7.94 5.29,13.23 5.29,18.52 7.94,7.94 13.23,13.23 21.17,18.52l0 7.94 -232.84 0 0 -2.65zm836.08 -203.73l238.13 0c-5.29,68.79 -42.33,121.71 -108.48,161.4 -66.15,39.69 -150.81,55.56 -264.58,55.56 -127,0 -224.9,-21.17 -293.69,-74.08 -74.08,-47.63 -103.19,-116.42 -103.19,-198.44 0,-87.31 29.1,-156.1 100.54,-209.02 74.08,-47.63 169.33,-74.08 293.69,-74.08 113.77,0 198.44,18.52 264.58,55.56 66.15,34.4 100.54,89.96 108.48,161.4l-238.12 0c-5.29,-29.1 -18.52,-47.63 -39.69,-60.85 -21.17,-18.52 -52.92,-21.17 -95.25,-21.17 -47.63,0 -82.02,7.94 -108.48,34.4 -26.46,26.46 -39.69,60.85 -39.69,113.77 0,42.33 13.23,82.02 39.69,103.19 26.46,26.46 66.15,39.69 116.42,39.69 39.69,0 68.79,-7.94 89.96,-26.46 23.81,-13.24 37.04,-34.41 39.68,-60.87zm706.44 31.75c-21.17,5.29 -52.92,13.23 -89.96,18.52 -55.56,7.94 -87.31,21.17 -87.31,42.33 0,7.94 7.94,18.52 21.17,26.46 7.94,5.29 26.46,7.94 47.63,7.94 39.69,0 66.15,-7.94 82.02,-21.17 18.52,-7.94 26.46,-26.46 26.46,-55.56 0,-5.29 0,-7.94 0,-13.23l-0.01 -5.29zm21.17 171.98l-18.52 -34.4c-26.46,13.23 -60.85,26.46 -95.25,34.4 -34.4,13.23 -74.08,13.23 -113.77,13.23 -66.15,0 -116.42,-7.94 -150.81,-29.1 -34.4,-21.17 -52.92,-52.92 -52.92,-89.96 0,-37.04 18.52,-68.79 52.92,-89.96 34.4,-13.23 100.54,-26.46 198.44,-39.69 7.94,0 29.1,0 47.63,0 74.08,-5.29 108.48,-18.52 108.48,-34.4 0,-15.88 -7.94,-21.17 -18.52,-29.1 -13.23,-5.29 -34.4,-5.29 -66.15,-5.29 -26.46,0 -42.33,5.29 -52.92,7.94 -13.23,5.29 -21.17,18.52 -26.46,29.1l-222.26 0c0,-42.33 26.46,-76.73 76.73,-100.54 52.92,-26.46 127,-34.4 230.19,-34.4 47.63,0 89.96,0 129.65,7.94 39.69,7.94 74.08,13.23 95.25,26.46 26.46,7.94 42.33,26.46 55.56,39.69 7.94,18.52 18.52,39.69 18.52,68.79l0 216.96c0,7.94 0,13.23 5.29,18.52 5.29,7.94 13.23,13.23 21.17,18.52l0 7.94 -222.25 0 0 -2.65zm322.79 0l0 -388.93 211.66 0 0 74.08c13.23,-29.1 34.4,-47.63 66.15,-66.15 26.46,-13.23 66.15,-18.52 113.77,-18.52l18.52 0 0 156.1c-5.29,-5.29 -13.23,-5.29 -21.17,-5.29 -7.94,0 -18.52,0 -21.17,0 -47.63,0 -82.02,7.94 -103.19,21.17 -21.17,13.23 -34.4,34.4 -34.4,66.15l0 161.4 -230.17 -0.01zm1087.43 0l-203.72 0 0 -47.63c-26.46,21.17 -52.92,39.69 -82.02,47.63 -34.4,7.94 -68.79,13.23 -108.48,13.23 -74.08,0 -129.65,-18.52 -177.27,-55.56 -42.33,-34.4 -68.79,-87.31 -68.79,-150.81 0,-60.85 26.46,-108.48 68.79,-148.17 47.63,-39.69 103.19,-60.85 177.27,-60.85 34.4,0 66.15,7.94 95.25,18.52 26.46,5.29 52.92,21.17 74.08,39.69l0 -182.56 224.89 -0.01 0 526.52zm-317.5 -97.89c29.1,0 52.92,-7.94 68.79,-26.46 18.52,-18.52 26.46,-34.4 26.46,-66.15 0,-29.1 -7.94,-52.92 -26.46,-66.15 -13.23,-18.52 -39.69,-26.46 -68.79,-26.46 -29.1,0 -55.56,7.94 -68.79,26.46 -18.52,13.23 -26.46,34.4 -26.46,66.15 0,29.1 7.94,47.63 26.46,66.15 18.52,15.87 39.69,26.46 68.79,26.46z"/>
    <path id="XMLID_75_" class="fil1" d="M2436.82 3426.35l2738.43 0c476.25,0 889,-293.69 1058.33,-711.73l-129.64 0.01c-161.4,351.9 -515.94,597.96 -928.69,597.96l-2738.43 -0.01c-412.75,0 -767.29,-246.06 -928.69,-597.96l-129.65 0.01c169.34,415.39 582.09,711.72 1058.34,711.72zm3796.77 -1555.75c-169.33,-415.4 -582.08,-711.73 -1058.33,-711.73l-2738.44 0.01c-476.25,0 -889,293.69 -1058.33,711.73l129.64 -0.01c161.39,-351.89 515.94,-597.95 928.69,-597.95l2738.43 0c412.75,0 767.29,246.06 928.69,597.96l129.65 -0.01z"/>
    <path id="XMLID_72_" class="fil2" d="M3815.3 841.38c650.88,0 1203.85,433.92 1386.42,1026.58l-2772.84 0c179.92,-592.67 730.25,-1026.58 1386.42,-1026.58zm1386.41 1873.25c-182.56,592.67 -738.19,1026.58 -1386.42,1026.58 -653.52,0 -1203.85,-433.92 -1386.42,-1026.58l2772.84 0z"/>
   </g>
  </g>
 </g>
</svg>
