<?xml version="1.0" encoding="UTF-8"?>
<!DOCTYPE svg PUBLIC "-//W3C//DTD SVG 1.1//EN" "http://www.w3.org/Graphics/SVG/1.1/DTD/svg11.dtd">
<!-- Creator: CorelDRAW X8 -->
<svg xmlns="http://www.w3.org/2000/svg" xml:space="preserve" width="475px" height="300px" version="1.1" style="shape-rendering:geometricPrecision; text-rendering:geometricPrecision; image-rendering:optimizeQuality; fill-rule:evenodd; clip-rule:evenodd"
viewBox="0 0 395 249"
 xmlns:xlink="http://www.w3.org/1999/xlink">
 <defs>
  <style type="text/css">
   <![CDATA[
    .fil3 {fill:#ED3237}
    .fil2 {fill:#1F5CA9}
    .fil1 {fill:white}
    .fil0 {fill:black;fill-opacity:0.070588}
   ]]>
  </style>
 </defs>
 <g id="Layer_x0020_1">
  <metadata id="CorelCorpID_0Corel-Layer"/>
  <g id="_1827574680176">
   <g>
    <path class="fil0" d="M364 0l-333 0c-17,0 -31,14 -31,31l0 187c0,18 15,31 31,31l333 0c17,0 31,-13 31,-31l0 -187c0,-17 -15,-31 -31,-31l0 0z"/>
    <path class="fil1" d="M364 10c11,0 20,10 20,21l0 187c0,12 -9,21 -20,21l-333 0c-11,0 -21,-9 -21,-21l0 -187c0,-11 10,-21 21,-21l333 0z"/>
   </g>
   <g>
    <path class="fil2" d="M68 133l4 0c3,0 6,-1 7,-2 2,-1 2,-3 2,-5 0,-3 0,-5 -2,-6 -1,-1 -4,-1 -7,-1l-4 0 0 14zm-14 8l0 -30 17 0c4,0 8,0 10,0 2,1 4,1 5,2 3,1 6,3 7,5 2,2 2,5 2,8 0,3 0,6 -2,8 -2,2 -5,4 -9,5 -1,1 -3,1 -5,1 -2,0 -6,1 -10,1l-15 0zm46 -24l0 -7 13 0 0 7 -13 0zm0 24l0 -22 13 0 0 22 -13 0zm20 0l0 -22 11 0 0 3c2,-1 4,-2 5,-3 2,0 4,-1 7,-1 2,0 3,0 5,1 2,0 3,1 4,2 1,1 1,2 2,3 0,1 0,3 0,5l0 12 -12 0 0 -12c0,-1 -1,-3 -1,-3 -1,-1 -2,-1 -4,-1 -1,0 -2,0 -3,1 -1,1 -1,2 -1,3l0 12 -13 0zm62 -10c-1,0 -3,0 -5,1 -3,0 -5,1 -5,2 0,1 1,1 1,2 1,0 2,0 3,0 2,0 4,0 5,-1 1,-1 1,-2 1,-3 0,0 0,-1 0,-1 0,0 0,0 0,0zm1 10l-1 -3c-1,1 -3,2 -5,3 -2,0 -4,0 -6,0 -4,0 -7,0 -9,-2 -2,-1 -3,-3 -3,-5 0,-2 1,-4 3,-5 2,0 6,-1 11,-2 1,0 2,0 3,0 4,0 6,-1 6,-2 0,-1 0,-1 -1,-1 -1,-1 -2,-1 -4,-1 -1,0 -2,0 -3,1 0,0 -1,1 -1,1l-12 0c0,-2 1,-4 4,-5 3,-1 7,-2 13,-2 3,0 5,0 7,1 2,0 4,0 5,1 2,0 3,1 4,2 0,1 1,2 1,4l0 12c0,0 0,1 0,1 0,0 1,1 1,1l0 1 -13 0zm47 -12l13 0c0,4 -2,7 -6,9 -4,2 -8,3 -15,3 -7,0 -12,-1 -16,-4 -4,-3 -6,-7 -6,-11 0,-5 2,-9 6,-12 4,-2 9,-4 16,-4 6,0 11,1 15,3 3,2 5,5 6,9l-14 0c0,-1 0,-2 -2,-3 -1,-1 -3,-1 -5,-1 -3,0 -5,0 -6,2 -2,1 -2,3 -2,6 0,2 1,4 2,6 1,1 4,2 6,2 3,0 4,-1 6,-1 1,-1 2,-3 2,-4zm39 2c-1,0 -3,0 -5,1 -3,0 -5,1 -5,2 0,1 1,1 1,2 1,0 2,0 3,0 2,0 4,0 5,-1 1,-1 1,-2 1,-3 0,0 0,-1 0,-1 0,0 0,0 0,0zm1 10l0 -3c-2,1 -4,2 -6,3 -2,0 -4,0 -6,0 -4,0 -7,0 -9,-2 -2,-1 -3,-3 -3,-5 0,-2 1,-4 3,-5 2,0 6,-1 11,-2 1,0 2,0 3,0 4,0 6,-1 6,-2 0,-1 0,-1 -1,-1 -1,-1 -2,-1 -3,-1 -2,0 -3,0 -3,1 -1,0 -2,1 -2,1l-12 0c0,-2 1,-4 4,-5 3,-1 7,-2 13,-2 3,0 5,0 7,1 3,0 4,0 6,1 1,0 2,1 3,2 0,1 1,2 1,4l0 12c0,0 0,1 0,1 0,0 1,1 1,1l0 1 -13 0zm18 0l0 -22 12 0 0 4c1,-2 2,-3 4,-4 1,0 3,-1 6,-1l1 0 0 9c0,0 -1,0 -1,0 -1,0 -1,0 -1,0 -3,0 -5,0 -6,1 -1,1 -2,2 -2,4l0 9 -13 0zm61 0l-11 0 0 -3c-2,1 -3,2 -5,2 -2,1 -4,1 -6,1 -4,0 -7,-1 -10,-3 -2,-2 -4,-5 -4,-8 0,-4 2,-7 4,-9 3,-2 6,-3 10,-3 2,0 4,0 5,1 2,0 3,1 5,2l0 -10 12 0 0 30zm-18 -6c2,0 3,-1 4,-2 1,0 2,-2 2,-3 0,-2 -1,-3 -2,-4 0,-1 -2,-1 -4,-1 -1,0 -3,0 -3,1 -1,1 -2,2 -2,4 0,1 1,3 2,3 0,1 2,2 3,2z"/>
    <path class="fil2" d="M124 190l153 0c27,0 50,-16 59,-39l-7 0c-9,19 -29,33 -52,33l-153 0c-23,0 -43,-14 -52,-33l-7 0c10,23 32,39 59,39zm212 -87c-9,-23 -32,-39 -59,-39l-153 0c-27,0 -49,16 -59,39l7 0c9,-19 29,-33 52,-33l153 0c23,0 43,14 52,33l7 0z"/>
    <path class="fil3" d="M201 46c36,0 67,24 78,57l-155 0c10,-33 41,-57 77,-57zm78 105c-11,33 -42,57 -78,57 -36,0 -67,-24 -77,-57l155 0z"/>
   </g>
  </g>
 </g>
</svg>
