<?xml version="1.0" encoding="UTF-8"?>
<!DOCTYPE svg PUBLIC "-//W3C//DTD SVG 1.1//EN" "http://www.w3.org/Graphics/SVG/1.1/DTD/svg11.dtd">
<!-- Creator: CorelDRAW 2020 (64-Bit) -->
<svg xmlns="http://www.w3.org/2000/svg" xml:space="preserve" width="76.0942mm" height="43.2858mm" version="1.1" style="shape-rendering:geometricPrecision; text-rendering:geometricPrecision; image-rendering:optimizeQuality; fill-rule:evenodd; clip-rule:evenodd"
viewBox="0 0 7609.42 4328.58"
 xmlns:xlink="http://www.w3.org/1999/xlink"
 xmlns:xodm="http://www.corel.com/coreldraw/odm/2003">
 <defs>
  <style type="text/css">
   <![CDATA[
    .fil2 {fill:#064B76}
    .fil1 {fill:#C52F33}
    .fil0 {fill:white;fill-rule:nonzero}
   ]]>
  </style>
 </defs>
 <g id="Layer_x0020_1">
  <metadata id="CorelCorpID_0Corel-Layer"/>
  <path class="fil0" d="M156.11 0l7297.21 0c89.96,0 156.1,66.15 156.1,156.1l0 3995.21c0,111.13 -66.15,177.27 -156.1,177.27l-7297.21 0c-89.96,0 -156.1,-66.15 -156.1,-177.27l-0.01 -3995.2c0,-89.96 66.15,-156.11 156.11,-156.11z"/>
  <g id="_3012925022752">
   <path class="fil1" d="M5417.21 1616.71c-167.97,-356.27 -522.83,-571.09 -925.42,-571.09 -510.1,0 -983.94,342.66 -1151.38,815.62 198.73,-578.52 736.23,-966.97 1314.93,-966.97 456.69,0 859.11,243.64 1060.67,644.12l-75.49 118.46 -223.31 -40.14 0 0zm-142.86 902.26c26.87,-24.4 45.61,-53.58 56.22,-86.99 10.61,-33.6 19.1,-65.25 25.46,-95.3l53.22 -234.45c6.37,-25.28 10.25,-44.73 11.85,-58.7 1.59,-13.79 2.3,-24.22 2.3,-31.47 0,-7.07 -1.77,-15.91 -5.31,-26.7 -3.53,-10.61 -12.37,-22.63 -26.7,-36.07l171.68 0c16.62,0 32.36,-1.94 47.39,-5.83 15.03,-3.9 30.41,-9.91 46.15,-17.68l-27.23 120.76c7.96,-13.44 17.68,-27.06 29.53,-40.85 11.84,-13.79 25.28,-26.17 40.31,-37.3 15.03,-10.97 31.65,-19.98 49.68,-26.7 18.21,-6.72 37.84,-9.73 59.23,-8.84l27.23 1.23 -39.07 177.7c-13.44,-11.14 -25.99,-18.21 -37.84,-21.4 -11.85,-3.18 -20.86,-4.77 -27.23,-4.77 -22.8,0 -43.14,5.48 -61,16.62 -17.68,11.14 -32.18,24.93 -43.31,41.37 -6.37,8.67 -11.85,18.74 -16.62,30.24 -4.78,11.49 -9.02,23.16 -13.09,35.01 -3.89,11.84 -7.25,22.63 -10.08,32.53 -2.82,9.9 -4.6,17.5 -5.3,23.16l-15.38 72.32c-1.59,7.07 -3.36,15.56 -5.31,25.46 -1.94,9.9 -3.89,20.51 -5.83,32 -1.95,11.49 -3.71,22.45 -5.3,33.24 -1.59,10.61 -2.3,19.98 -2.3,27.76 0,17.32 2.3,31.11 7.07,41.37 4.77,10.25 9.02,17.68 13.09,22.45l-293.51 0.01 0 -0.18zm-3893.87 -123.24c11.14,3.89 22.63,6.9 35.01,8.84 12.2,1.95 23.87,3.01 35.01,3.01 28.47,0 58.35,-7.96 90,-23.69 31.65,-15.74 60.82,-40.85 87.69,-75.15 26.88,-34.3 49.16,-78.15 66.84,-131.54 17.68,-53.22 26.7,-117.41 26.7,-192.37 0,-48.09 -6.54,-85.4 -19.63,-111.92 -13.08,-26.52 -28.46,-45.8 -46.15,-58 -17.68,-12.2 -35.89,-19.62 -54.45,-21.92 -18.57,-2.3 -32.89,-3.54 -43.14,-3.54 -8.67,0 -15.21,0.18 -19.63,0.53 -4.42,0.35 -12.38,2.12 -24.22,5.3l-134.03 600.45 0 0zm-311.36 123.24c17.33,-12.56 31.65,-25.64 42.61,-39.08 11.14,-13.43 20.16,-27.75 27.23,-43.14 7.07,-15.38 12.91,-31.47 17.15,-47.91 4.42,-16.62 8.48,-33.95 12.38,-52.16l103.08 -464.3c7.95,-34.65 12.37,-59.59 13.61,-74.61 1.24,-15.03 1.77,-24.94 1.77,-29.53 0,-11.14 -2.13,-22.99 -6.54,-35.54 -4.42,-12.55 -13.62,-26.88 -27.76,-42.61l362.46 0c48.09,0 91.05,3.71 128.54,11.32 37.48,7.42 71.61,21.57 102.37,42.08 41.9,28.46 71.78,65.95 90,112.45 18.21,46.5 27.23,99.01 27.23,157.53 0,41.02 -4.6,81.87 -13.62,122.53 -9.01,40.67 -22.1,79.39 -39.07,115.99 -16.98,36.78 -38.37,71.07 -64.01,103.08 -25.64,32 -54.99,59.76 -88.23,83.45 -41.02,29.17 -86.46,49.86 -136.14,62.24 -49.69,12.2 -110.86,18.39 -183.53,18.39l-369.53 0 0 -0.18zm1179.5 -859.82c33.23,0 59.58,9.72 79.38,28.99 19.8,19.27 29.53,45.62 29.53,78.68 0,38.72 -11.85,70.19 -35.54,94.77 -23.69,24.4 -53.75,36.78 -90,36.78 -35.54,0 -63.47,-10.43 -84.16,-31.47 -20.51,-20.87 -30.76,-47.92 -30.76,-81.16 0,-37.84 11.85,-68.42 35.54,-91.76 23.69,-23.16 55.69,-34.83 96.01,-34.83l0 0zm-41.56 290.14c30.77,0 54.99,-3 72.85,-8.84 17.68,-5.84 30.94,-10.79 39.61,-14.85l-88.76 402.59c-1.59,5.48 -3.36,13.44 -5.31,23.7 -1.94,10.25 -3,19.27 -3,27.22 0,8.67 1.59,15.21 4.77,19.63 3.19,4.42 6.9,7.78 11.32,10.08 4.42,2.3 8.66,3.71 13.08,4.06 4.42,0.36 8.14,0.53 11.32,0.53 12.55,0 22.45,-1.23 29.53,-3.53 7.07,-2.3 12.55,-4.42 16.62,-6.01l-84.17 107.85c-22.8,11.14 -42.96,17.68 -60.47,20.16 -17.32,2.3 -32.7,3.53 -46.14,3.53 -11.14,0 -23.17,-1.23 -36.07,-3.53 -13.09,-2.3 -25.11,-7.43 -36.07,-15.38 -11.14,-7.96 -20.33,-19.1 -27.76,-33.78 -7.43,-14.67 -11.32,-34.12 -11.32,-58.7 0,-18.21 1.59,-34.3 4.78,-48.62 3.18,-14.14 6.71,-30.06 10.6,-47.39l49.69 -226.13c0.71,-4.78 1.94,-10.61 3.53,-17.68 1.59,-7.08 3.19,-15.03 4.78,-23.7 1.59,-8.66 3,-17.14 4.06,-25.46 1.24,-8.31 1.77,-15.91 1.77,-23.16 0,-15.74 -3.89,-28.99 -11.85,-39.6 -7.95,-10.61 -14.14,-18.39 -18.91,-23.17l151.52 0 0 0.18zm107.86 569.68l293.68 0c-3.89,-4.77 -8.31,-12.2 -13.09,-22.46 -4.77,-10.25 -7.07,-24.04 -7.07,-41.37 0,-7.96 0.71,-17.15 2.3,-27.76 1.59,-10.61 3.36,-21.75 5.3,-33.24 1.94,-11.49 3.89,-22.1 5.84,-32 1.94,-9.9 3.71,-18.39 5.3,-25.46l27.23 -131.37c8.66,-40.31 20.33,-72.49 35.01,-96.53 14.67,-24.05 37.66,-36.07 69.3,-36.07 3.19,0 7.78,0.35 13.62,1.23 6.01,0.71 11.67,3.01 17.15,6.54 5.48,3.54 10.43,8.85 14.85,15.92 4.42,7.07 6.54,17.32 6.54,30.76 0,4.77 -0.35,9.9 -1.24,15.38 -0.7,5.48 -1.94,10.26 -3.53,14.15l-41.37 182.46c-3.9,16.62 -7.43,30.95 -10.61,43.14 -3.19,12.2 -4.78,25.11 -4.78,38.55 0,11.85 1.77,24.75 5.31,38.54 3.53,13.8 10.08,26.17 19.62,37.31 9.55,11.14 22.46,20.33 39.08,27.76 16.62,7.42 37.83,11.32 64,11.32 22.81,0 42.61,-2.3 59.23,-7.08 16.62,-4.77 31.12,-10.25 43.85,-16.62l84.16 -108.91c-6.36,2.3 -14.85,4.77 -25.46,7.07 -10.61,2.3 -20.69,3.54 -30.23,3.54 -16.62,0 -27.05,-4.42 -31.3,-13.09 -4.42,-8.66 -6.54,-16.97 -6.54,-24.93 0,-2.29 0.18,-7.25 0.53,-14.85 0.35,-7.42 2.48,-18.74 6.54,-33.77l35.54 -162.31c6.37,-26.88 10.08,-47.21 11.32,-61 1.23,-13.79 1.76,-23.87 1.76,-30.23 0,-21.4 -4.06,-40.49 -12.37,-57.47 -8.31,-16.97 -19.8,-31.82 -34.3,-44.37 -14.68,-12.56 -31.65,-22.28 -50.93,-29 -19.27,-6.72 -40.13,-10.08 -62.23,-10.08 -6.37,0 -15.21,0.53 -26.7,1.77 -11.49,1.24 -24.93,4.6 -40.31,10.08 -15.39,5.48 -32,13.96 -49.69,25.46 -17.68,11.49 -35.71,27.4 -53.92,47.91l21.39 -92.29c-15.74,7.96 -31.12,13.79 -46.15,17.68 -15.03,3.89 -30.76,5.84 -47.38,5.84l-171.68 -0.01c14.15,13.44 23.17,25.46 26.7,36.07 3.54,10.61 5.31,19.45 5.31,26.7 0,7.07 -0.71,17.51 -2.3,31.47 -1.59,13.79 -5.48,33.42 -11.85,58.7l-53.22 234.45c-6.36,30.06 -14.85,61.71 -25.46,95.3 -11.14,33.6 -29.88,62.59 -56.75,87.17l0 0zm1065.8 5.83c-8.66,2.3 -18.74,4.78 -30.23,7.08 -11.49,2.3 -25.11,3.53 -40.84,3.53 -25.99,0 -51.28,-3.89 -75.85,-11.84 -24.41,-7.96 -46.33,-20.16 -65.78,-36.78 -19.27,-16.62 -34.83,-38.37 -46.15,-65.07 -11.49,-26.87 -17.15,-59.23 -17.15,-97.07 0,-23.69 2.3,-48.62 7.08,-74.61 4.77,-25.99 12.2,-52.16 22.45,-78.15 10.26,-25.99 23.87,-51.45 40.85,-76.38 16.97,-24.93 37.3,-47.92 61,-69.31 14.14,-12.55 29.88,-24.75 46.85,-36.07 16.97,-11.49 36.25,-21.39 57.99,-29.52 21.75,-8.32 45.8,-15.03 72.32,-20.16 26.52,-5.13 56.22,-7.78 89.46,-7.78 16.62,0 32.18,0.71 46.86,2.3 14.67,1.59 28.64,3.18 42.08,4.77 16.62,1.59 31.12,3.18 43.84,4.77 12.56,1.59 25.29,2.3 37.84,2.3 15.74,0 32.71,-1.41 50.92,-4.06 18.22,-2.83 37.49,-9.73 58,-20.69l-88.76 405.07c-1.59,7.07 -3.36,15.03 -5.3,23.69 -1.95,8.66 -3.01,17.33 -3.01,25.99 0,10.25 2.83,18.92 8.31,25.99 5.48,7.07 16.27,10.61 32,10.61 8.67,0 17.68,-1.06 27.23,-3.01 9.55,-1.94 18.57,-4.59 27.23,-7.77l-84.16 108.91c-18.21,9.55 -35.71,15.74 -52.69,18.92 -16.97,3.18 -33.42,4.77 -49.15,4.77 -8.67,0 -20.34,-0.71 -35.01,-2.3 -14.68,-1.59 -28.82,-6.36 -42.61,-14.14 -13.79,-7.96 -25.64,-19.98 -35.54,-36.07 -9.9,-16.27 -14.85,-38.9 -14.85,-68.07 0,-5.48 0.35,-10.61 1.23,-15.38 0.71,-4.78 1.77,-10.26 3.01,-16.62 1.24,-6.37 2.83,-13.8 4.77,-22.46 1.95,-8.66 4.6,-19.8 7.78,-33.24l60.47 -268.75c-6.37,-3.89 -14.67,-8.13 -24.93,-12.37 -10.25,-4.43 -21.4,-6.55 -33.24,-6.55 -21.39,0 -41.9,8.49 -61.53,25.47 -19.8,16.97 -36.95,38.72 -51.45,65.06 -14.67,26.52 -26.17,56.05 -35.01,88.76 -8.66,32.71 -13.08,64.89 -13.08,96.54 0,37.13 9.9,63.82 29.52,79.91 19.8,16.27 42.97,24.23 69.84,24.23 3.89,0 7.25,-0.18 10.08,-0.53 2.83,-0.36 5.3,-1.06 7.78,-1.77l-60.47 107.85z"/>
   <path class="fil2" d="M3692.26 2711.87c167.97,356.27 522.82,571.09 925.42,571.09 510.09,0 983.94,-342.66 1151.38,-815.62 -198.74,578.52 -736.24,966.97 -1314.93,966.97 -456.7,0 -859.12,-243.64 -1060.68,-644.12l75.32 -118.46 223.49 40.14 0 0zm2755.74 -1021.96c13.44,0 29.35,-1.94 47.92,-6.01 18.56,-3.89 33.42,-9.55 44.38,-16.62l-145.69 659.67c-3.89,15.74 -6.37,27.41 -7.08,35.01 -0.7,7.43 -1.23,12.38 -1.23,14.86 0,8.66 1.59,15.38 4.77,20.15 3.18,4.78 6.72,8.31 10.61,10.61 3.89,2.3 8.31,3.89 13.08,4.78 4.77,0.7 9.02,1.23 13.09,1.23 6.36,0 13.96,-0.53 23.16,-1.76 9.01,-1.24 20.69,-4.07 35.01,-8.85l-85.23 108.92c-21.39,11.14 -40.66,17.68 -57.99,20.16 -17.33,2.29 -31.65,3.53 -42.61,3.53 -27.58,0 -49.68,-3.53 -66.3,-10.61 -16.62,-7.07 -29.35,-16.27 -38.55,-27.23 -9.01,-11.14 -15.03,-23.16 -17.68,-36.07 -2.83,-13.08 -4.06,-25.46 -4.06,-37.3 0,-14.15 1.41,-28.29 4.06,-42.08 2.83,-13.8 6.54,-32.18 11.32,-54.99l57.99 -266.45c-11.84,-9.55 -22.45,-15.38 -32,-17.68 -9.55,-2.3 -17.33,-3.53 -23.69,-3.53 -21.4,0 -41.37,8.48 -60.47,25.46 -18.92,16.97 -35.54,38.72 -49.68,65.06 -14.15,26.52 -25.29,56.23 -33.24,89.47 -7.96,33.24 -11.85,65.59 -11.85,97.07 0,8.66 0.71,18.74 2.3,30.23 1.59,11.49 5.48,22.63 11.84,33.77 6.37,11.14 15.39,20.33 27.23,27.76 11.85,7.43 28.47,11.32 49.69,11.32 4.77,0 8.66,-0.18 11.84,-0.53 3.19,-0.36 6.37,-1.06 9.55,-1.77l-62.77 110.15c-22.98,5.48 -47.03,8.31 -72.31,8.31 -10.25,0 -26.7,-1.59 -49.15,-4.77 -22.46,-3.18 -45.09,-11.67 -67.54,-25.46 -22.46,-13.79 -42.26,-35.19 -59.24,-64.01 -16.97,-28.82 -25.46,-68.95 -25.46,-120.23 0,-56.05 11.49,-110.5 34.3,-163.37 22.81,-52.87 55.35,-98.31 97.07,-136.14 41.02,-37.13 81.87,-61.18 122.53,-72.32 40.67,-10.96 81.51,-16.62 122.53,-16.62 15.74,0 28.82,0.35 39.07,1.24 10.26,0.71 25.64,3.18 46.15,7.07l22.46 -98.3c6.36,-25.29 10.08,-43.85 11.31,-55.7 1.24,-11.84 1.77,-19.8 1.77,-23.69 0,-10.25 -1.59,-21.75 -4.77,-34.3 -3.18,-12.56 -12.2,-25.64 -27.23,-39.08l170.79 -0.01 0 -0.35zm-1570.41 834.89l60.47 -107.85c-2.3,0.71 -4.95,1.42 -7.78,1.77 -2.83,0.35 -6.19,0.53 -10.08,0.53 -26.88,0 -50.21,-8.13 -69.84,-24.22 -19.8,-16.27 -29.53,-42.79 -29.53,-79.92 0,-31.65 4.42,-63.83 13.09,-96.54 8.66,-32.71 20.33,-62.41 35.01,-88.76 14.67,-26.52 31.82,-48.09 51.45,-65.06 19.8,-16.98 40.31,-25.46 61.53,-25.46 11.85,0 22.81,2.12 33.24,6.54 10.25,4.42 18.56,8.48 24.93,12.37l-60.47 268.75c-3.18,13.44 -5.66,24.41 -7.78,33.24 -1.94,8.67 -3.53,16.27 -4.77,22.46 -1.24,6.37 -2.13,11.85 -3.01,16.62 -0.71,4.77 -1.24,9.9 -1.24,15.38 0,29.17 4.96,51.98 14.86,68.07 9.9,16.27 21.74,28.29 35.54,36.07 13.79,7.96 28.11,12.55 42.61,14.14 14.67,1.59 26.16,2.3 35.01,2.3 15.73,0 32.17,-1.59 49.15,-4.77 16.97,-3.18 34.48,-9.55 52.69,-18.92l84.16 -108.91c-8.67,3.18 -17.68,5.66 -27.23,7.78 -9.55,1.94 -18.57,3 -27.23,3 -15.74,0 -26.52,-3.53 -32,-10.61 -5.48,-7.07 -8.31,-15.73 -8.31,-25.99 0,-8.66 1.06,-17.32 3,-25.99 1.95,-8.66 3.72,-16.62 5.31,-23.69l88.76 -405.07c-20.51,10.96 -39.96,18.04 -58,20.69 -18.21,2.83 -35.18,4.06 -50.92,4.06 -12.55,0 -25.28,-0.7 -37.84,-2.29 -12.55,-1.59 -27.23,-3.19 -43.85,-4.78 -13.43,-1.59 -27.4,-3.18 -42.08,-4.77 -14.67,-1.59 -30.23,-2.3 -46.85,-2.3 -33.24,0 -62.94,2.65 -89.46,7.78 -26.53,5.13 -50.57,11.85 -72.32,20.16 -21.75,8.31 -41.02,18.21 -57.99,29.52 -16.98,11.5 -32.54,23.52 -46.86,36.07 -23.69,21.4 -44.02,44.38 -61,69.31 -16.97,24.93 -30.58,50.39 -40.84,76.38 -10.25,25.99 -17.68,52.16 -22.45,78.15 -4.78,25.99 -7.08,50.92 -7.08,74.62 0,37.83 5.66,70.19 17.15,97.07 11.49,26.87 26.88,48.62 46.15,65.06 19.27,16.62 41.2,28.82 65.77,36.78 24.4,7.96 49.69,11.85 75.86,11.85 15.73,0 29.35,-1.24 40.84,-3.54 11.49,-2.3 21.56,-4.78 30.23,-7.08l0 0zm-428.59 -34.3l88.76 -159.83c-32.36,20.51 -61.71,36.24 -88.23,47.38 -26.52,11.14 -49.68,19.28 -69.84,24.93 -20.15,5.48 -36.95,8.67 -50.39,9.55 -13.44,0.71 -23.34,1.24 -29.52,1.24 -31.65,0 -58.35,-4.77 -80.45,-14.14 -22.1,-9.55 -40.67,-21.93 -55.7,-37.31 -15.03,-15.38 -26.69,-32.36 -35.01,-50.92 -8.31,-18.57 -14.32,-36.78 -18.38,-54.46 -3.89,-17.68 -6.54,-34.12 -7.78,-49.15 -1.24,-15.03 -1.77,-26.52 -1.77,-34.3 0,-59.24 7.96,-112.1 23.69,-158.6 15.74,-46.5 36.78,-86.11 62.77,-118.46 25.99,-32.36 56.05,-57.29 90,-74.62 33.94,-17.32 68.6,-25.99 104.14,-25.99 5.48,0 14.85,0.53 27.76,1.77 13.08,1.24 27.75,4.6 44.37,10.08 16.62,5.48 33.95,13.97 52.16,25.46 18.22,11.49 35.19,27.76 50.92,49.15l20.16 -175.22c-39.43,-13.43 -75.85,-22.27 -108.91,-26.69 -33.24,-4.42 -64.36,-6.54 -93.53,-6.54 -59.23,0 -118.64,8.13 -178.23,24.22 -59.58,16.27 -115.81,47.56 -168.67,94.24 -27.59,24.4 -51.98,52.16 -72.85,82.92 -20.86,30.76 -38.37,63.3 -52.16,97.77 -13.79,34.31 -24.04,69.49 -30.76,105.38 -6.72,35.89 -10.08,71.26 -10.08,105.91 0,44.2 6.72,87.52 20.16,129.6 13.43,42.26 34.65,79.74 64,112.45 29.18,32.71 67.37,59.23 114.22,79.39 47.03,20.16 104.5,30.23 172.39,30.23 33.24,0 67.9,-3 104.14,-8.84 36.42,-6.36 73.9,-18.39 112.62,-36.6z"/>
  </g>
 </g>
</svg>
