<?xml version="1.0" encoding="UTF-8"?>
<!DOCTYPE svg PUBLIC "-//W3C//DTD SVG 1.1//EN" "http://www.w3.org/Graphics/SVG/1.1/DTD/svg11.dtd">
<!-- Creator: CorelDRAW 2020 (64-Bit) -->
<svg xmlns="http://www.w3.org/2000/svg" xml:space="preserve" width="59.7959mm" height="37.7366mm" version="1.1" style="shape-rendering:geometricPrecision; text-rendering:geometricPrecision; image-rendering:optimizeQuality; fill-rule:evenodd; clip-rule:evenodd"
viewBox="0 0 5979.58 3773.65"
 xmlns:xlink="http://www.w3.org/1999/xlink"
 xmlns:xodm="http://www.corel.com/coreldraw/odm/2003">
 <defs>
  <style type="text/css">
   <![CDATA[
    .fil0 {fill:none}
    .fil1 {fill:#3086C8}
   ]]>
  </style>
 </defs>
 <g id="Layer_x0020_1">
  <metadata id="CorelCorpID_0Corel-Layer"/>
  <g id="_2151039578864">
   <path class="fil0" d="M5507.87 0l-5036.16 0c-263.6,0 -471.71,208.11 -471.71,471.71l0 2830.24c0,263.6 221.98,471.71 471.71,471.71l5036.16 0c263.6,0 471.71,-208.11 471.71,-471.71l0 -2830.24c0,-263.6 -221.98,-471.71 -471.71,-471.71l0 0z"/>
   <path class="fil1" d="M1886.84 1886.83l0 582.7c0,41.62 -27.75,41.62 -83.24,27.75 -291.35,-124.86 -471.71,-513.33 -360.72,-846.3 69.37,-166.48 194.23,-319.1 360.72,-374.59 69.37,-27.75 83.24,-13.87 83.24,27.75l0 582.7 0 -0.01zm319.09 0l0 -582.7c0,-41.62 0,-41.62 41.62,-27.75 332.97,124.86 513.33,513.33 374.59,846.3 -55.49,180.36 -180.36,319.1 -360.72,374.59 -55.49,41.62 -55.49,13.87 -55.49,-27.75l0 -582.7 0 0.01zm1123.78 -1096.03l-1290.26 0c610.44,0 1082.15,485.58 1082.15,1096.03 0,610.44 -471.71,1109.9 -1082.15,1109.9l1290.26 0c610.44,0 1082.15,-499.45 1082.15,-1109.9 0,-610.44 -471.71,-1096.03 -1082.15,-1096.03z"/>
  </g>
 </g>
</svg>
