<?xml version="1.0" encoding="UTF-8"?>
<!DOCTYPE svg PUBLIC "-//W3C//DTD SVG 1.1//EN" "http://www.w3.org/Graphics/SVG/1.1/DTD/svg11.dtd">
<!-- Creator: CorelDRAW 2020 (64-Bit) -->
<svg xmlns="http://www.w3.org/2000/svg" xml:space="preserve" width="76.0942mm" height="43.2858mm" version="1.1" style="shape-rendering:geometricPrecision; text-rendering:geometricPrecision; image-rendering:optimizeQuality; fill-rule:evenodd; clip-rule:evenodd"
viewBox="0 0 7665.39 4360.42"
 xmlns:xlink="http://www.w3.org/1999/xlink"
 xmlns:xodm="http://www.corel.com/coreldraw/odm/2003">
 <defs>
  <style type="text/css">
   <![CDATA[
    .fil3 {fill:#010101;fill-rule:nonzero}
    .fil4 {fill:#EA1D25;fill-rule:nonzero}
    .fil1 {fill:#F26122;fill-rule:nonzero}
    .fil2 {fill:#F69E1F;fill-rule:nonzero}
    .fil0 {fill:white;fill-rule:nonzero}
   ]]>
  </style>
 </defs>
 <g id="Layer_x0020_1">
  <metadata id="CorelCorpID_0Corel-Layer"/>
  <g id="_2700661169536">
   <path class="fil0" d="M157.26 0l7329.56 0c90.62,0 178.57,66.64 178.57,157.25l0 4024.6c0,111.95 -90.62,178.57 -178.57,178.57l-7329.56 0c-90.62,0 -157.25,-66.64 -157.25,-178.57l-0.01 -4024.6c0,-90.61 66.64,-157.25 157.26,-157.25z"/>
   <polygon id="Fill-2" class="fil1" points="3280.98,2875.85 4405.74,2875.85 4405.74,810.25 3280.98,810.25 "/>
   <path id="Fill-4" class="fil2" d="M5911.62 2651.96l0 -45.31 0 0 -21.33 21.33 -21.33 -21.33 0 0 0 45.31 0 0 0 -45.31 21.33 45.31 0 0 21.33 -45.31 0 45.31 0 0zm-90.62 0l0 -45.31 21.33 0 0 0 -45.31 0 0 0 21.33 0 0 45.31 2.66 0 0 0 0 0z"/>
   <path id="Fill-5" class="fil2" d="M5956.93 1841.72c0,719.63 -583.7,1303.33 -1303.33,1303.33 -314.51,0 -583.7,-111.95 -810.25,-269.2 314.51,-247.87 495.75,-607.69 495.75,-1034.13 0,-405.13 -178.57,-786.26 -495.75,-1034.13 223.88,-157.25 495.75,-269.2 810.25,-269.2 716.96,0 1303.33,586.36 1303.33,1303.33z"/>
   <path id="XMLID_1775_" class="fil3" d="M2540.03 3822.03l0 -223.88c0,-90.62 -45.31,-135.93 -135.93,-135.93 -45.31,0 -90.62,21.33 -111.95,66.64 -21.33,-45.31 -66.64,-66.64 -111.95,-66.64 -45.31,0 -66.64,21.33 -111.95,45.31l0 -45.31 -66.62 0.01 0 359.82 66.64 -0.01 0 -202.56c0,-45.31 45.31,-90.62 90.62,-90.62 45.31,0 66.64,45.31 66.64,90.62l0 202.56 90.61 0 0 -202.56c0,-45.31 21.33,-90.62 66.64,-90.62 45.31,0 90.62,45.31 90.62,90.62l0 202.56 66.63 0 0 0zm1100.77 -359.81l-111.94 0 0 -90.62 -90.62 0 0 90.62 -66.64 0 0 66.64 66.64 -0.01 0 157.25c0,90.62 45.31,135.93 135.93,135.93 21.33,0 66.64,-21.33 90.62,-21.33l-21.33 -66.64c-21.33,21.33 -45.31,21.33 -66.64,21.33 -45.31,0 -45.31,-21.33 -45.31,-66.64l0 -157.25 111.95 0.01 0 -69.3 -2.67 0zm629.01 0c-45.31,0 -66.64,21.33 -90.62,45.31l0 -45.31 -66.64 0 0 359.82 66.64 -0.01 0 -202.56c0,-45.31 21.33,-90.62 66.64,-90.62 21.33,0 45.31,0 45.31,0l21.33 -66.64c2.66,0.01 -21.34,0.01 -42.65,0.01l0 0zm-943.52 45.31c-45.31,-21.33 -90.62,-45.31 -135.93,-45.31 -90.62,0 -157.25,45.31 -157.25,111.95 0,66.64 45.31,90.62 135.93,90.62l21.33 21.33c45.31,0 66.64,0 66.64,21.33 0,21.33 -21.33,45.31 -90.62,45.31 -45.31,0 -90.62,-21.33 -111.95,-21.33l-21.33 45.31c21.33,21.33 90.62,45.31 135.93,45.31 111.95,0 157.25,-45.31 157.25,-111.95 0,-66.64 -45.31,-90.62 -111.95,-111.95l-45.3 -0.01c-21.33,0 -45.31,0 -45.31,-21.33 0,-21.33 21.33,-45.31 66.64,-45.31 45.31,0 66.64,21.33 90.62,21.33l45.3 -45.3 0 0zm1977.65 -45.31c-45.31,0 -90.62,21.33 -90.62,45.31l0 -45.31 -90.62 0 0 359.82 90.62 -0.01 0 -202.56c0,-45.31 21.33,-90.62 66.64,-90.62 0,0 21.33,0 45.31,0l21.33 -66.64c-21.33,0.01 -42.65,0.01 -42.65,0.01l0 0zm-967.5 178.57c0,111.95 90.62,178.57 178.57,178.57 66.64,0 90.62,-21.33 135.93,-45.31l-45.31 -45.31c-21.33,0 -45.31,21.33 -90.62,21.33 -45.31,0 -90.62,-45.31 -90.62,-111.95 0,-66.64 45.31,-111.95 90.62,-111.95 45.31,0 66.64,21.33 90.62,45.31l45.31 -66.64c-45.31,-21.33 -66.64,-45.31 -135.93,-45.31 -87.95,2.68 -178.57,69.31 -178.57,181.25l0 0 0 0zm698.31 0l0 -178.57 -66.63 0 0 45.31c-21.33,-21.33 -66.64,-45.31 -111.95,-45.31 -90.62,0 -178.57,66.64 -178.57,178.57 0,111.95 90.62,178.57 178.57,178.57 45.31,0 90.62,-21.33 111.95,-45.31l0 45.31 66.63 0 0 -178.57zm-269.2 0c0,-66.64 45.31,-111.95 90.62,-111.95 66.64,0 111.95,45.31 111.95,111.95 0,66.64 -45.31,111.95 -111.95,111.95 -47.97,-0.01 -90.62,-42.65 -90.62,-111.95l0 0zm-900.87 -178.57c-90.62,0 -157.25,66.64 -157.25,178.57 0,111.95 66.64,178.57 157.25,178.57 66.64,0 111.95,-21.33 157.25,-45.31l-45.31 -45.31c-21.33,0 -66.64,21.33 -90.62,21.33 -45.31,0 -90.62,-21.33 -111.95,-90.62l247.89 0 0 -21.33c0,-109.28 -45.31,-175.9 -157.26,-175.9l0 0 0 0zm0 66.63c45.31,0 90.62,21.33 90.62,90.62l-178.57 0c21.33,-45.31 42.64,-90.62 87.95,-90.62l0 0 0 0zm1844.39 111.95l0 -314.51 -66.64 0 0 178.57c-21.33,-21.33 -66.64,-45.31 -111.95,-45.31 -90.62,0 -157.25,66.64 -157.25,178.57 0,111.95 66.64,178.57 157.25,178.57 45.31,0 90.62,-21.33 111.95,-45.31l0 45.31 66.64 0 0 -175.9 0 0zm-269.2 0c0,-66.64 45.31,-111.95 111.95,-111.95 45.31,0 90.62,45.31 90.62,111.95 0,66.64 -45.31,111.95 -90.62,111.95 -69.31,-0.01 -111.95,-42.65 -111.95,-111.95l0 0zm-2473.39 0l0 -178.57 -90.62 0 0 45.31c-21.33,-21.33 -45.31,-45.31 -90.62,-45.31 -111.95,0 -178.57,66.64 -178.57,178.57 0,111.95 66.64,178.57 178.57,178.57 45.31,0 90.62,-21.33 90.62,-45.31l0 45.31 90.62 0 0 -178.57zm-293.19 0c0,-66.64 45.31,-111.95 111.95,-111.95 66.64,0 111.95,45.31 111.95,111.95 0,66.64 -45.31,111.95 -111.95,111.95 -66.64,0 -111.95,-42.65 -111.95,-111.95z"/>
   <path id="Fill-1" class="fil3" d="M5821 3798.04l0 0 0 0 0 0 0 0 0 0 0 0 0 0zm0 0c0,0 0,0 21.33,0l0 0 0 0 -21.33 0 21.33 21.33 -21.33 0 0 -21.33 0 0 0 21.33 0 0 0 -21.33 0 0zm0 23.99c0,0 0,0 21.33,0l0 0 0 0c0,-21.33 0,-21.33 0,-21.33l0 0 0 0c0,-21.33 0,-21.33 0,-21.33 -21.33,0 -21.33,0 -21.33,0l0 0c0,0 0,0 0,21.33 -21.33,0 -21.33,0 -21.33,0l0 0c0,0 0,0 0,21.33 0.01,0 0.01,0 21.33,0l0 0 0 0zm0 -45.3c0,0 0,0 21.33,0l0 0c0,21.33 0,21.33 0,21.33l0 0 0 21.33 0 0 0 0c-21.33,0 -21.33,21.33 -21.33,21.33l0 -21.33 -21.32 -0.01 0 0 0 -21.33 0 0c0,0 0,0 0,-21.33l21.32 0.01 0 0z"/>
   <path id="Fill-3" class="fil4" d="M3371.6 1820.39c0,-405.13 202.56,-786.26 495.75,-1012.82 -223.88,-178.57 -495.75,-293.18 -786.26,-293.18 -743.62,2.67 -1329.98,586.37 -1329.98,1306 0,719.62 583.7,1303.33 1327.31,1303.33 293.18,0 562.38,-90.62 786.26,-269.2 -290.51,-247.87 -493.08,-607.68 -493.08,-1034.13z"/>
  </g>
 </g>
</svg>
