<?xml version="1.0" encoding="UTF-8"?>
<!DOCTYPE svg PUBLIC "-//W3C//DTD SVG 1.1//EN" "http://www.w3.org/Graphics/SVG/1.1/DTD/svg11.dtd">
<!-- Creator: CorelDRAW 2020 (64-Bit) -->
<svg xmlns="http://www.w3.org/2000/svg" xml:space="preserve" width="108.044mm" height="28.869mm" version="1.1" style="shape-rendering:geometricPrecision; text-rendering:geometricPrecision; image-rendering:optimizeQuality; fill-rule:evenodd; clip-rule:evenodd"
viewBox="0 0 9461.13 2527.97"
 xmlns:xlink="http://www.w3.org/1999/xlink"
 xmlns:xodm="http://www.corel.com/coreldraw/odm/2003">
 <defs>
  <style type="text/css">
   <![CDATA[
    .fil0 {fill:black}
    .fil1 {fill:#FFF200}
   ]]>
  </style>
 </defs>
 <g id="Layer_x0020_1">
  <metadata id="CorelCorpID_0Corel-Layer"/>
  <g id="_1789859223040">
   <polygon id="polygon2229" class="fil0" points="-0,42.72 2488.69,42.72 2488.69,2527.97 -0,2527.97 "/>
   <polygon id="polygon2231" class="fil1" points="71.99,114.7 2416.7,114.7 2416.7,2455.98 71.99,2455.98 "/>
   <path id="path2233" class="fil0" d="M198.82 1982.93l305.08 311.94 716.44 -726.73 737.01 740.44 311.94 -305.08 -733.58 -733.58 140.55 -137.12 0 -287.95 89.13 -75.41 0 226.25 113.12 92.56 339.37 -339.37 109.7 85.7c65.13,-239.96 -308.52,-781.57 -617.03,-479.91l-359.94 356.5 75.41 89.13 -185.11 178.25 -174.83 -174.83 92.56 -85.7 -394.22 -380.5c-294.8,-243.38 -599.89,130.26 -610.18,490.2l106.26 -89.13 332.51 356.5 116.55 -99.41 0 -219.39 75.41 58.28 0 284.52 143.98 143.98 -730.15 719.87 0 0 0.03 -0.01z"/>
   <path id="path2235" class="fil0" d="M3122.86 340.94l0 215.96 92.56 0c126.83,-23.99 92.56,-205.68 0,-215.96l-92.56 0 0 0zm-263.95 -215.96l0 976.97 263.95 0 0 -315.37 222.81 315.37 311.94 0 -277.67 -390.79c322.23,-154.26 202.24,-579.33 -133.69,-586.18l-387.36 0 0 0 0.01 0zm1220.35 490.19c85.7,0 154.26,65.13 154.26,147.4 0,78.85 -68.56,143.98 -154.26,143.98 -85.7,0 -157.68,-65.13 -157.68,-143.98 0,-82.27 71.99,-147.4 157.68,-147.4l0 0zm-58.28 -215.96c71.99,0 140.55,23.99 195.4,61.7l0 -37.71 257.1 0 3.42 678.73 -260.52 0 0 -41.14c-54.84,37.71 -123.41,61.7 -195.4,61.7 -191.96,0 -346.22,-161.11 -346.22,-359.94 0,-198.82 154.26,-363.36 346.22,-363.36l0 0 0 0.01zm593.03 23.99l270.81 0 0 678.73 -270.81 0 0 -678.73 0 0zm137.12 -387.35c78.85,0 143.98,65.13 143.98,147.4 0,78.85 -65.13,143.98 -143.98,143.98 -82.27,0 -147.4,-65.13 -147.4,-143.98 0,-82.27 65.13,-147.4 147.4,-147.4l0 0zm2080.76 387.35l274.23 0 0 678.73 -274.23 0 0 -678.73 0 0zm133.69 -387.35c82.27,0 147.4,65.13 147.4,147.4 0,78.85 -65.13,143.98 -147.4,143.98 -78.85,0 -143.98,-65.13 -143.98,-143.98 0,-82.27 65.13,-147.4 143.98,-147.4l0 0zm-2029.34 387.35l0 215.96 95.98 0 0 462.77 263.95 0 0 -462.77 250.24 0 0 462.77 274.23 0 0 -466.2 167.97 0 0 -209.1 -178.25 0 0 -150.83c-3.42,-54.84 126.83,-78.85 171.39,-30.85l0 -222.81c-250.24,-78.85 -455.92,61.7 -452.49,281.09l0 119.98 -233.1 0 0 -147.4c-3.42,-54.84 109.7,-78.85 174.83,-30.85l0 -222.81c-219.39,-65.13 -452.49,41.14 -449.06,281.09l0 119.98 -85.7 0 0 0 0 -0.01zm1443.17 699.3c236.53,0 322.23,-99.41 373.65,-239.96l-236.53 0c-109.7,137.12 -267.38,37.71 -257.1,-75.41l500.48 0c0,-277.67 -143.98,-407.92 -380.5,-407.92 -233.1,0 -377.07,164.54 -377.07,366.79 0,202.24 167.97,356.5 377.07,356.5l0 0zm-85.7 -476.48c3.42,-82.27 181.68,-82.27 191.96,0l-191.96 0 0 0zm1953.94 476.48c236.53,0 322.23,-99.41 373.65,-239.96l-239.96 0c-106.26,137.12 -263.95,37.71 -257.1,-75.41l503.9 0c0,-277.67 -147.4,-407.92 -380.5,-407.92 -233.1,0 -380.5,164.54 -380.5,366.79 0,202.24 171.39,356.5 380.5,356.5l0 0 0.01 0zm-89.13 -476.48c3.42,-82.27 181.68,-82.27 195.4,0l-195.4 0 0 0zm-363.36 -209.11l-82.27 164.54c-99.41,-30.85 -198.82,-23.99 -195.4,3.42 3.42,17.14 -13.71,51.42 143.98,71.99 236.53,37.71 215.96,479.91 -178.25,445.63 -109.7,-6.86 -198.82,-37.71 -270.81,-78.85l85.7 -178.25c126.83,61.7 246.82,99.41 253.66,37.71 10.28,-78.85 -130.26,-51.42 -215.96,-113.12 -150.83,-95.98 -65.13,-387.36 185.11,-390.79 89.13,-6.86 178.25,10.28 274.23,37.71l0 0 0 0.01zm935.83 -13.71l0 678.73 257.1 0 0 -414.78c6.86,-102.84 212.53,-119.98 212.53,0l0 414.78 260.52 0 0 -425.07c-6.86,-236.53 -257.1,-353.08 -483.34,-202.24l0 -51.42 -246.82 0 0 0 0.01 0zm-5721.24 1093.52l-171.39 1007.82 483.34 0c329.09,0 462.77,-407.92 229.67,-548.47 198.82,-181.68 99.41,-459.34 -116.55,-462.77l-425.07 3.42 0 0zm195.39 603.32l-34.28 164.54 113.12 0c126.83,6.86 113.12,-164.54 37.71,-164.54l-116.55 0 0 0 0.01 0zm58.28 -363.37l-27.43 137.12 34.28 0c102.84,6.86 161.11,-137.12 37.71,-137.12l-44.56 0 0 0zm397.64 767.87l294.8 0 85.7 -174.83 332.51 0 51.42 178.25 270.81 0 -236.53 -1004.39 -274.23 0 -524.47 1000.96 0 0 -0.01 0zm476.49 -387.36l185.11 0 -58.28 -263.95 -126.83 263.95 0 0zm651.31 390.79l270.81 0 68.56 -630.75 387.36 627.31 291.38 0 123.41 -1007.82 -274.23 0 -75.41 630.75 -387.36 -634.17 -281.09 0 -123.41 1014.67 0 0 -0.01 0zm1333.47 -1014.67l-188.54 1011.24 284.52 0 78.85 -377.07 253.66 377.07 377.07 0 -366.79 -527.91 469.63 -483.34 -366.79 0 -318.8 356.5 51.42 -356.5 -274.23 0 0 0 0 0.01z"/>
  </g>
 </g>
</svg>
