<?xml version="1.0" encoding="UTF-8"?>
<!DOCTYPE svg PUBLIC "-//W3C//DTD SVG 1.1//EN" "http://www.w3.org/Graphics/SVG/1.1/DTD/svg11.dtd">
<!-- Creator: CorelDRAW 2020 (64-Bit) -->
<svg xmlns="http://www.w3.org/2000/svg" xml:space="preserve" width="76.0942mm" height="43.2858mm" version="1.1" style="shape-rendering:geometricPrecision; text-rendering:geometricPrecision; image-rendering:optimizeQuality; fill-rule:evenodd; clip-rule:evenodd"
viewBox="0 0 7612.06 4330.08"
 xmlns:xlink="http://www.w3.org/1999/xlink"
 xmlns:xodm="http://www.corel.com/coreldraw/odm/2003">
 <defs>
  <style type="text/css">
   <![CDATA[
    .fil1 {fill:#2A2B6D;fill-rule:nonzero}
    .fil2 {fill:#F5B619;fill-rule:nonzero}
    .fil0 {fill:white;fill-rule:nonzero}
   ]]>
  </style>
 </defs>
 <g id="Layer_x0020_1">
  <metadata id="CorelCorpID_0Corel-Layer"/>
  <g id="_2700665422384">
   <path class="fil0" d="M156.16 0l7299.74 0c89.99,0 156.15,66.17 156.15,156.15l0 3996.6c0,111.17 -66.17,177.33 -156.15,177.33l-7299.74 0c-89.99,0 -156.15,-66.17 -156.15,-177.33l-0.01 -3996.59c0,-89.99 66.17,-156.16 156.16,-156.16z"/>
   <g>
    <path id="Combined-Shape" class="fil1" d="M2030.06 1582.76c-177.33,-132.34 -333.5,-156.15 -357.31,-177.33l0 0 0 -21.18 0 0 558.46 0c134.99,0 156.15,134.99 156.15,134.99l111.17 579.64 0 0 45 201.15 336.14 -915.78 357.31 0 -534.65 1339.25 -359.95 0 -312.32 -1140.75zm1474.24 1140.75l-357.31 0 222.33 -1339.25 378.48 0 -243.49 1339.25zm2411.19 0l-402.3 0 -45 -201.15 -423.49 0 -66.17 201.15 -357.3 0 513.47 -1228.1c0,0 21.18,-111.17 134.99,-111.17l378.48 0.01 267.32 1339.25zm-1228.09 -1005.76c-156.15,-66.17 -468.47,-89.99 -468.47,45 0,156.15 468.47,177.33 468.47,513.47 0,312.32 -357.31,447.31 -579.64,447.31 -222.33,0 -357.31,-66.17 -357.31,-66.17l45 -291.14c134.99,111.17 534.65,134.99 534.65,-45 0,-179.98 -447.31,-177.33 -447.31,-513.47 0,-357.31 378.48,-423.48 534.65,-423.48 156.15,0 312.32,66.17 312.32,66.17l-42.34 267.31 0 0zm489.64 579.63l291.15 0 -111.17 -492.3 -179.98 492.3z"/>
    <rect class="fil1" x="399.66" y="378.49" width="6950.37" height="537.29"/>
    <rect class="fil2" x="312.32" y="3414.31" width="7029.77" height="537.29"/>
   </g>
  </g>
 </g>
</svg>
