<?xml version="1.0" encoding="UTF-8"?>
<!DOCTYPE svg PUBLIC "-//W3C//DTD SVG 1.1//EN" "http://www.w3.org/Graphics/SVG/1.1/DTD/svg11.dtd">
<!-- Creator: CorelDRAW 2020 (64-Bit) -->
<svg xmlns="http://www.w3.org/2000/svg" xml:space="preserve" width="116.814mm" height="66.9396mm" version="1.1" style="shape-rendering:geometricPrecision; text-rendering:geometricPrecision; image-rendering:optimizeQuality; fill-rule:evenodd; clip-rule:evenodd"
viewBox="0 0 11681.34 6693.95"
 xmlns:xlink="http://www.w3.org/1999/xlink"
 xmlns:xodm="http://www.corel.com/coreldraw/odm/2003">
 <defs>
  <style type="text/css">
   <![CDATA[
    .fil1 {fill:none;fill-rule:nonzero}
    .fil2 {fill:#231F20;fill-rule:nonzero}
    .fil0 {fill:white;fill-rule:nonzero}
    .fil4 {fill:url(#id0);fill-rule:nonzero}
    .fil3 {fill:url(#id1);fill-rule:nonzero}
   ]]>
  </style>
  <linearGradient id="id0" gradientUnits="userSpaceOnUse" x1="6469.05" y1="-846.66" x2="5675.32" y2="687.91">
   <stop offset="0" style="stop-opacity:1; stop-color:#F58720"/>
   <stop offset="0.360784" style="stop-opacity:1; stop-color:#E16F27"/>
   <stop offset="0.701961" style="stop-opacity:1; stop-color:#D4602C"/>
   <stop offset="0.980392" style="stop-opacity:1; stop-color:#D05B2E"/>
   <stop offset="1" style="stop-opacity:1; stop-color:#D05B2E"/>
  </linearGradient>
  <linearGradient id="id1" gradientUnits="userSpaceOnUse" x1="6548.41" y1="-846.6" x2="5992.8" y2="0.04">
   <stop offset="0" style="stop-opacity:1; stop-color:#F89F20"/>
   <stop offset="0.25098" style="stop-opacity:1; stop-color:#F79A20"/>
   <stop offset="0.529412" style="stop-opacity:1; stop-color:#F68D20"/>
   <stop offset="0.619608" style="stop-opacity:1; stop-color:#F58720"/>
   <stop offset="0.721569" style="stop-opacity:1; stop-color:#F48120"/>
   <stop offset="1" style="stop-opacity:1; stop-color:#F37521"/>
  </linearGradient>
 </defs>
 <g id="Layer_x0020_1">
  <metadata id="CorelCorpID_0Corel-Layer"/>
  <g id="_2700705861104">
   <path class="fil0" d="M341.31 76.73l11001.37 0c142.88,0 251.35,111.13 251.35,246.06l0 6040.43c0,142.88 -111.13,251.35 -251.35,251.35l-11001.37 0c-142.88,0 -251.35,-111.13 -251.35,-251.35l0 -6040.43c0,-134.93 108.48,-246.06 251.35,-246.06z"/>
   <path id="_31" class="fil1" d="M11342.68 156.11l-11001.37 0 0 -156.11 11001.37 0 0 0 0 156.11zm330.73 166.68l-156.11 0 0 0 0 -5.29 0 -13.23 0 -5.29 -5.29 -5.29 0 -13.23 0 -5.29 -5.29 -5.29 0 -5.29 -5.29 -5.29 0 -21.17 -5.29 -5.29 -5.29 -5.29 0 -5.29 -5.29 -5.29 -5.29 -5.29 -5.29 -5.29 -5.29 -5.29 -5.3 -0.02 -5.29 -5.29 -5.29 -5.29 -5.29 -5.29 -5.3 0 -5.29 -5.29 -5.29 0 -5.29 -5.29 -13.23 0 -5.29 -5.29 -5.3 -0.01 -5.29 0 -13.23 0 -5.29 0 -13.23 0 0 -169.33 18.52 0 18.52 0 13.23 5.29 18.52 0 13.23 5.29 13.23 0 18.52 5.29 13.23 5.29 13.23 5.29 13.23 5.29 13.23 5.29 13.23 13.23 13.23 5.29 13.23 5.29 13.23 13.23 13.23 13.23 13.23 5.29 5.29 13.23 13.23 13.23 5.29 13.23 5.29 13.23 5.29 13.23 13.23 13.23 5.29 18.52 0 13.23 5.29 13.23 5.29 18.52 5.29 13.23 0 13.23 0 18.52 0 18.52 -7.93 23.82 0 0zm-156.11 6040.43l0 -6040.43 156.11 0 0 6040.43 0 0 -156.11 0zm-174.62 330.73l0 -156.1 0 0 13.23 0 5.29 0 13.23 0 5.29 -5.29 5.29 -0.01 5.29 0 13.23 -5.29 5.3 0 5.29 -5.29 5.29 0 5.29 -5.29 5.29 -5.29 5.29 0 5.29 -5.29 5.29 -5.29 5.29 -5.29 5.29 -5.29 5.29 -5.29 5.29 -5.29 0 -5.29 5.29 -5.29 5.29 -5.29 0 -5.29 5.29 -5.29 0.02 -23.83 5.29 -13.23 0 -5.29 0 -7.94 5.29 -5.29 0 -13.23 0 -7.94 0 -13.23 156.11 0 -5.29 18.52 0 18.52 0 13.23 0 18.52 -5.29 13.23 -5.29 13.23 -5.29 18.52 0 13.23 -5.29 13.23 -13.23 13.23 -5.29 13.23 -5.29 13.23 -5.29 13.23 -13.23 13.23 -5.29 13.23 -13.23 13.23 -13.23 13.23 -13.23 5.29 -13.23 13.23 -13.23 5.29 -13.23 5.29 -13.23 5.29 -13.23 13.23 -13.23 5.29 -13.24 0 -18.52 5.29 -13.23 5.29 -13.23 5.29 -18.52 0 -13.23 0 -18.52 0 -5.29 15.88 0 0zm-11001.37 -156.1l11001.37 0 0 156.1 -11001.37 0 0 0 0 -156.1zm-330.72 -174.63l156.1 0 0 0 0 13.23 0 5.29 0 5.29 0 13.23 0 5.29 5.29 5.29 0 13.23 5.29 5.29 0 5.29 5.29 5.29 0 5.29 5.29 5.29 5.29 5.29 5.29 5.29 5.29 5.29 0 5.29 5.29 5.29 5.29 5.29 5.29 5.29 13.25 0.02 5.29 5.29 5.29 5.29 5.29 0.01 5.29 5.29 5.29 0 13.23 5.29 5.29 0 5.3 0 13.23 5.29 5.29 0 5.29 0 13.23 0 0 156.1 -18.52 -5.29 -13.23 0 -18.52 0 -13.23 0 -18.52 -5.29 -13.23 -5.29 -18.52 0 -13.23 -5.29 -13.23 -5.29 -13.23 -5.29 -13.23 -13.23 -13.23 -5.29 -13.23 -5.29 -13.23 -13.23 -13.23 -5.29 -13.23 -13.23 -13.23 -13.23 -5.29 -13.23 -13.23 -5.29 -5.29 -13.23 -13.23 -13.23 -5.29 -18.52 -5.29 -13.23 -5.29 -13.23 -5.29 -13.23 -5.29 -18.52 0 -13.23 -5.29 -13.23 0 -18.52 -5.29 -13.23 0 -18.52 -0.01 -7.94 10.59 0zm156.1 -6040.43l0 6040.43 -156.1 0 0 -6040.43 0 0 156.1 0zm174.62 -322.79l0 156.1 0 0 -13.22 0.01 -5.3 0 -5.29 0 -13.23 0 -5.29 0 -5.29 5.29 -13.23 0 -5.29 5.29 -5.29 0 -5.29 5.29 -5.3 0 -5.29 5.29 -13.23 5.29 -5.29 5.29 -5.29 0.01 -5.29 5.29 0 5.29 -5.29 5.29 -5.29 5.29 -5.29 5.29 -5.29 5.29 0 13.23 -5.29 5.29 0 5.29 -26.47 21.17 0 5.29 -5.29 5.29 0 13.23 0 5.29 0 5.29 0 13.23 0 5.29 -156.1 0.01 0 -13.23 0 -13.23 5.29 -18.52 0 -13.23 5.29 -18.52 0 -13.23 5.29 -13.23 5.29 -18.52 5.29 -13.23 5.29 -13.23 5.29 -13.23 13.23 -13.23 5.29 -13.23 13.23 -13.23 5.29 -13.23 13.23 -5.29 13.23 -13.23 13.23 -13.23 13.23 -5.29 13.23 -13.23 13.23 -5.29 13.23 -5.29 13.23 -5.29 13.23 -5.29 13.23 -5.29 18.52 -5.29 13.23 0 18.52 -5.29 13.23 0 18.52 -5.29 13.23 -0.01 29.1 0 0 -10.58z"/>
   <path class="fil2" d="M1725.09 2749.02l-420.69 0 0 1473.73 420.69 0c219.6,0 381,-58.21 523.88,-174.63 169.33,-134.94 264.58,-343.96 264.58,-563.56 -0.01,-431.27 -322.8,-735.54 -788.46,-735.54l0 0zm336.02 1105.96c-89.96,84.67 -206.38,116.42 -394.23,116.42l-76.73 0 0 -971.02 76.73 0c187.85,0 296.33,31.75 394.23,116.42 97.9,89.96 156.1,227.54 156.1,367.77 0,140.23 -58.21,280.45 -156.1,370.41z"/>
   <rect id="XMLID_422_" class="fil2" x="2643.19" y="2749.02" width="285.75" height="1468.44"/>
   <path id="XMLID_421_" class="fil2" d="M3632.73 3317.88c-174.63,-63.5 -219.6,-111.13 -219.6,-187.85 0,-89.96 89.96,-161.4 214.31,-161.4 84.67,0 156.1,31.75 232.83,116.42l148.17 -193.15c-121.71,-111.13 -272.52,-161.4 -433.92,-161.4 -259.29,0 -460.38,179.92 -460.38,420.69 0,201.08 89.96,304.27 362.48,402.17 111.13,39.69 169.33,63.5 201.08,84.67 58.21,39.69 84.67,89.96 84.67,156.1 0,116.42 -97.9,201.08 -219.6,201.08 -142.88,0 -251.35,-63.5 -317.5,-193.15l-179.92 179.92c129.65,187.85 285.75,277.81 505.35,277.81 296.33,0 505.35,-201.08 505.35,-484.19 -2.63,-232.83 -92.59,-341.31 -423.32,-457.72l0 0z"/>
   <path id="XMLID_420_" class="fil2" d="M4143.38 3484.56c0,433.92 336.02,769.94 775.23,769.94 121.71,0 232.83,-26.46 362.48,-89.96l0 -336.02c-116.42,111.13 -219.6,161.4 -349.25,161.4 -285.75,0 -492.13,-214.31 -492.13,-510.65 0,-277.81 214.31,-505.35 478.9,-505.35 142.88,0 238.13,52.92 362.48,169.33l0 -336.02c-129.65,-63.5 -232.83,-89.96 -354.54,-89.96 -433.92,0 -783.17,341.31 -783.17,767.29z"/>
   <polygon id="XMLID_419_" class="fil2" points="7551.2,3738.56 7156.97,2749.02 6847.41,2749.02 7474.47,4262.44 7622.64,4262.44 8257.64,2749.02 7953.37,2749.02 "/>
   <polygon id="XMLID_418_" class="fil2" points="8392.58,4222.75 9202.2,4222.75 9202.2,3971.4 8678.33,3971.4 8678.33,3577.17 9181.03,3577.17 9181.03,3323.17 8678.33,3323.17 8678.33,3000.38 9202.2,3000.38 9202.2,2749.02 8392.58,2749.02 "/>
   <path class="fil2" d="M10334.62 3188.23c0,-277.81 -187.85,-439.21 -518.58,-439.21l-420.69 0 0 1473.73 285.75 0 0 -587.37 39.68 0 394.23 587.38 354.54 -0.01 -465.67 -621.77c214.32,-44.98 330.74,-193.15 330.74,-412.75l0 0zm-571.5 238.13l-84.67 0 0 -444.5 84.67 0c179.92,0 277.81,76.73 277.81,219.6 2.65,148.17 -95.25,224.9 -277.81,224.9z"/>
   <circle id="XMLID_415_" class="fil3" cx="6154.2" cy="3492.5" r="783.16"/>
   <path id="XMLID_414_" class="fil4" d="M6937.37 3492.5c0,-433.92 -349.25,-783.17 -783.17,-783.17 -433.92,0 -783.17,349.25 -783.17,783.17 0,433.92 349.25,783.17 783.17,783.17 433.92,0 783.17,-349.25 783.17,-783.17z"/>
  </g>
 </g>
</svg>
