<?xml version="1.0" encoding="UTF-8"?>
<!DOCTYPE svg PUBLIC "-//W3C//DTD SVG 1.1//EN" "http://www.w3.org/Graphics/SVG/1.1/DTD/svg11.dtd">
<!-- Creator: CorelDRAW 2020 (64-Bit) -->
<svg xmlns="http://www.w3.org/2000/svg" xml:space="preserve" width="77.8094mm" height="47.5516mm" version="1.1" style="shape-rendering:geometricPrecision; text-rendering:geometricPrecision; image-rendering:optimizeQuality; fill-rule:evenodd; clip-rule:evenodd"
viewBox="0 0 7780.94 4755.16"
 xmlns:xlink="http://www.w3.org/1999/xlink"
 xmlns:xodm="http://www.corel.com/coreldraw/odm/2003">
 <defs>
  <style type="text/css">
   <![CDATA[
    .fil0 {fill:#FEFEFE;fill-rule:nonzero}
    .fil1 {fill:#3086C8;fill-rule:nonzero}
    .fil3 {fill:#98C74C;fill-rule:nonzero}
    .fil2 {fill:#CE4549;fill-rule:nonzero}
   ]]>
  </style>
 </defs>
 <g id="Layer_x0020_1">
  <metadata id="CorelCorpID_0Corel-Layer"/>
  <g id="_2700710672816">
   <path class="fil0" d="M7348.64 0.08c237.71,0 432.3,194.51 432.3,432.31l0 3890.47c0,237.71 -194.5,432.3 -432.3,432.3l-6916.34 -0.08c-237.71,0 -432.3,-194.51 -432.3,-432.31l0 -3890.47c0,-237.71 194.5,-432.3 432.3,-432.3l6916.34 0.08z"/>
   <path class="fil1" d="M3242.02 3242.1c0,237.72 -194.51,432.3 -432.3,432.3l-432.22 0 0 -2161.34c0,-237.72 194.5,-432.3 432.3,-432.3l432.22 0 0 2161.34z"/>
   <path class="fil2" d="M4322.77 3242.1c0,237.72 -194.5,432.3 -432.3,432.3l-432.3 0 0 -2161.34c0,-237.72 194.5,-432.3 432.3,-432.3l432.3 0 0 2161.34z"/>
   <path class="fil3" d="M5403.44 3242.1c0,237.72 -194.5,432.3 -432.3,432.3l-432.22 0 0 -2161.34c0,-237.72 194.51,-432.3 432.3,-432.3l432.22 0 0 2161.34z"/>
  </g>
 </g>
</svg>
