<?xml version="1.0" encoding="UTF-8"?>
<!DOCTYPE svg PUBLIC "-//W3C//DTD SVG 1.1//EN" "http://www.w3.org/Graphics/SVG/1.1/DTD/svg11.dtd">
<!-- Creator: CorelDRAW 2020 (64-Bit) -->
<svg xmlns="http://www.w3.org/2000/svg" xml:space="preserve" width="76.0942mm" height="43.2858mm" version="1.1" style="shape-rendering:geometricPrecision; text-rendering:geometricPrecision; image-rendering:optimizeQuality; fill-rule:evenodd; clip-rule:evenodd"
viewBox="0 0 7643.98 4348.24"
 xmlns:xlink="http://www.w3.org/1999/xlink"
 xmlns:xodm="http://www.corel.com/coreldraw/odm/2003">
 <defs>
  <style type="text/css">
   <![CDATA[
    .fil6 {fill:#010101;fill-rule:nonzero}
    .fil2 {fill:#1FA1DB;fill-rule:nonzero}
    .fil4 {fill:#231F20;fill-rule:nonzero}
    .fil3 {fill:#7474B7;fill-rule:nonzero}
    .fil1 {fill:#EA1D25;fill-rule:nonzero}
    .fil5 {fill:#F69E1F;fill-rule:nonzero}
    .fil0 {fill:white;fill-rule:nonzero}
   ]]>
  </style>
 </defs>
 <g id="Layer_x0020_1">
  <metadata id="CorelCorpID_0Corel-Layer"/>
  <g id="_2700660102448">
   <path class="fil0" d="M156.81 0l7309.09 0c111.63,0 178.08,66.45 178.08,156.81l0 4013.35c0,111.63 -66.45,178.08 -178.08,178.08l-7309.09 0c-90.37,0 -156.81,-66.45 -156.81,-178.08l0 -4013.35c0,-90.36 69.1,-156.81 156.81,-156.81z"/>
   <circle class="fil1" cx="3027.29" cy="1794.05" r="1344.87"/>
   <circle class="fil2" cx="4552.89" cy="1794.05" r="1344.87"/>
   <path class="fil3" d="M4372.17 1794.05c0,-449.18 -247.18,-853.17 -582.07,-1076.43 -337.55,247.18 -582.07,627.26 -582.07,1076.43 0,449.17 247.18,853.17 582.07,1097.69 334.88,-247.19 582.07,-651.17 582.07,-1097.69z"/>
   <path class="fil4" d="M4954.23 3473.8c0,0 21.27,0 45.18,0l-21.27 66.45c-21.27,0 -21.27,0 -45.18,0 -66.45,0 -90.37,21.27 -90.37,90.37l0 201.99 -66.44 0 0 -358.81 66.45 0 0 45.18c23.92,-45.18 45.18,-45.18 111.62,-45.18l0 0zm-313.63 66.45l-111.62 0 0 178.08c0,21.27 0,45.18 45.18,45.18 21.27,0 45.18,0 66.45,-21.27l21.27 90.37c-21.27,0 -66.45,21.27 -90.37,21.27 -111.63,0 -135.55,-66.45 -135.55,-135.55l0 -178.08 -63.79 0 0 -66.45 66.44 0 0 -111.63 90.37 0.01 0 111.63 111.62 -0.01 0 66.45zm-1007.32 90.37c0,-66.45 21.27,-90.37 90.37,-90.37 45.18,0 90.37,21.27 90.37,90.37l-180.74 0 0 0zm268.44 23.92c0,-111.63 -66.45,-178.08 -178.08,-178.08 -111.63,0 -178.08,66.45 -178.08,178.08 0,111.63 66.45,201.99 178.08,201.99 66.45,0 111.63,-21.27 156.81,-66.45l-45.18 -45.18c-21.27,21.27 -66.45,21.27 -90.37,21.27 -66.45,0 -111.63,-21.27 -111.63,-66.45l268.45 0.01c0,-23.92 0,-23.92 0,-45.18l0 0 0 0zm358.81 -90.37c-21.27,0 -66.45,-21.27 -135.55,-21.27 -21.27,0 -66.45,0 -66.45,45.18 0,21.27 45.18,21.27 66.45,21.27l45.18 0c66.45,21.27 135.55,45.18 135.55,111.63 0,66.45 -66.45,135.55 -178.08,135.55 -66.45,0 -111.63,-21.27 -156.81,-45.18l45.18 -66.45c21.27,21.27 66.45,45.18 111.63,45.18 66.45,0 90.37,-21.27 90.37,-45.18 0,-21.27 -21.27,-45.18 -66.45,-45.18l-45.19 0c-66.45,-21.27 -111.63,-66.45 -111.63,-111.63 0,-90.37 45.18,-111.63 135.55,-111.63 66.45,0 111.63,0 156.81,21.27l-26.57 66.45 0 0zm986.06 -23.92c-21.27,0 -45.18,0 -45.18,0 -21.27,21.27 -45.18,21.27 -45.18,21.27 -21.27,21.27 -21.27,21.27 -21.27,45.18 0,23.92 -21.27,21.27 -21.27,45.18 0,21.27 21.27,45.18 21.27,45.18 0,21.27 0,45.18 21.27,45.18 0,0 21.27,21.27 45.18,21.27 0,0 21.27,0 45.18,0 0,0 21.27,0 45.18,0l21.27 -21.27c21.27,0 21.27,-21.27 21.27,-45.18 21.27,0 21.27,-21.27 21.27,-45.18 0,-21.27 0,-21.27 -21.27,-45.18 0,-21.27 0,-21.27 -21.27,-45.18 0,0 -21.27,0 -21.27,-21.27 -23.92,0 -45.18,0 -45.18,0l0 0zm0 -66.45c21.27,0 45.18,0 66.45,0 21.27,21.27 45.18,21.27 66.45,45.18 21.27,21.27 21.27,45.18 45.18,66.45 0,21.27 0,45.18 0,66.45 0,21.27 0,66.45 0,90.37 -21.27,21.27 -21.27,45.18 -45.18,45.18 -21.27,21.27 -45.18,45.18 -66.45,45.18 -21.27,21.27 -45.18,21.27 -66.45,21.27 -45.18,0 -66.45,0 -90.37,-21.27 -21.27,0 -45.18,-21.27 -66.45,-45.18 0,0 -21.27,-21.27 -21.27,-45.18 -21.27,-21.27 -21.27,-66.45 -21.27,-90.37 0,-21.27 0,-45.18 21.27,-66.45 0,-21.27 21.27,-45.18 21.27,-66.45 21.27,-21.27 45.18,-21.27 66.45,-45.18 23.93,0 45.19,0 90.37,0l0 0zm-2083.75 180.74c0,-66.45 45.18,-111.63 111.63,-111.63 66.45,0 111.63,45.18 111.63,111.63 0,66.45 -45.18,111.63 -111.63,111.63 -66.45,0 -111.63,-45.18 -111.63,-111.63l0 0zm289.71 0l0 -178.08 -90.37 0 0 45.18c-21.27,-45.18 -45.18,-45.18 -111.63,-45.18 -90.37,0 -178.08,66.45 -178.08,178.08 0,111.63 90.37,201.99 178.08,201.99 66.45,0 90.37,-21.27 111.63,-66.45l0 45.18 90.37 0.01 0 -180.74zm-446.52 178.08l0 -223.26c0,-90.37 -66.45,-135.55 -135.55,-135.55 -66.45,-21.27 -111.63,0 -135.55,45.18 -21.27,-21.27 -66.45,-45.18 -135.55,-45.18 -45.18,0 -66.45,0 -111.63,45.18l0 -45.18 -66.44 0 0 358.81 90.37 0 0 -201.99c0,-66.45 21.27,-90.37 90.37,-90.37 45.18,0 66.45,21.27 66.45,90.37l0 201.99 90.36 0 0 -201.99c0,-66.45 21.27,-90.37 90.37,-90.37 45.18,0 66.45,21.27 66.45,90.37l0 201.99 90.37 0 0 0z"/>
   <path id="Fill-4_0" class="fil5" d="M5897.76 2644.56l0 -45.18 0 0 -21.27 21.27 0 -21.27 -21.26 0 0 45.18 0 0 0 -45.18 21.27 45.18 0 0 21.27 -45.18 -0.01 45.18 0 0zm-69.1 0l0 -45.18 0 0 0 0 -21.26 0 0 0 0 0 0 45.18 21.26 0 0 0 0 0z"/>
   <path id="Fill-1_1" class="fil6" d="M5807.4 3787.43l0 0 21.26 0 0 0 0 0 0 0 0 0 -21.26 0zm21.26 0l0 0 0 0 0 0 0 0 0 21.27 0 0 -21.27 -21.27 0 0 0 21.27 0 0 0 -21.27 21.27 0zm-21.26 23.92c21.27,0 21.27,0 21.27,0l0 0 0 0c0,-21.27 0,-21.27 0,-21.27l0 0 0 0c0,-21.27 0,-21.27 0,-21.27 0,0 0,0 -21.27,0l0 0c0,0 0,0 0,21.27l0 0 0 0c0,-2.65 0,-2.65 0,21.27l0 0 0 0 0 0zm0 -45.17c21.27,0 21.27,0 21.27,0l0 0c0,21.27 21.27,21.27 21.27,21.27l0 0 0 21.27 -21.28 -0.01 0 0c0,0 0,21.27 -21.27,21.27l0 -21.27 0 0 -21.26 0 0 -21.27 0 0c-2.66,0 21.27,0 21.27,-21.26l0 0 0 0z"/>
  </g>
 </g>
</svg>
