<?xml version="1.0" encoding="UTF-8"?>
<!DOCTYPE svg PUBLIC "-//W3C//DTD SVG 1.1//EN" "http://www.w3.org/Graphics/SVG/1.1/DTD/svg11.dtd">
<!-- Creator: CorelDRAW 2020 (64-Bit) -->
<svg xmlns="http://www.w3.org/2000/svg" xml:space="preserve" width="182.562mm" height="115.252mm" version="1.1" style="shape-rendering:geometricPrecision; text-rendering:geometricPrecision; image-rendering:optimizeQuality; fill-rule:evenodd; clip-rule:evenodd"
viewBox="0 0 18256.24 11525.25"
 xmlns:xlink="http://www.w3.org/1999/xlink"
 xmlns:xodm="http://www.corel.com/coreldraw/odm/2003">
 <defs>
  <style type="text/css">
   <![CDATA[
    .fil0 {fill:none;fill-rule:nonzero}
    .fil1 {fill:#E6E7E8;fill-rule:nonzero}
   ]]>
  </style>
 </defs>
 <g id="Layer_x0020_1">
  <metadata id="CorelCorpID_0Corel-Layer"/>
  <g id="_2151236464112">
   <path class="fil0" d="M16808.97 0l-15372.29 0c-809.62,0 -1436.68,629.71 -1436.68,1436.69l0 8651.87c0,820.21 674.69,1436.69 1436.69,1436.69l15372.28 0c820.21,0 1447.27,-616.48 1447.27,-1436.69l0 -8651.87c0,-806.98 -674.68,-1436.69 -1447.27,-1436.69l0 0z"/>
   <path class="fil1" d="M2354.79 6069.55l206.37 0c153.46,0 306.92,-50.27 359.83,-103.19 103.19,-50.27 103.19,-153.46 103.19,-256.65 0,-153.46 0,-256.65 -103.19,-306.92 -50.27,-50.27 -206.38,-50.27 -359.83,-50.27l-206.37 0.01 0 717.02zm-717.02 412.75l0 -1539.88 873.12 0c206.38,0 410.1,0 513.29,0 103.19,50.27 206.38,50.27 256.65,103.19 153.46,50.27 306.92,153.46 359.83,256.65 103.19,103.19 103.19,256.65 103.19,410.1 0,153.45 0,306.92 -103.19,410.1 -103.19,103.19 -256.65,206.38 -463.02,256.65 -50.27,50.27 -153.46,50.27 -256.65,50.27 -103.19,0 -306.92,50.27 -513.29,50.27l-769.93 0 0 2.65zm2360.08 -1232.96l0 -359.84 666.75 0 0 359.83 -666.75 0.01zm0 1232.96l0 -1129.77 666.75 0 0 1129.77 -666.75 0zm1026.58 0l0 -1129.77 563.57 0 0 153.46c103.19,-50.27 206.38,-103.19 256.65,-153.46 103.19,0 206.38,-50.27 359.83,-50.27 103.19,0 153.46,0 256.65,50.27 103.19,0 153.46,50.27 206.38,103.19 52.92,52.92 50.27,103.19 103.19,153.46 0,50.27 0,153.46 0,256.65l0 616.48 -616.5 -0.01 0 -616.48c0,-50.27 -50.27,-153.46 -50.27,-153.46 -50.27,-50.27 -103.19,-50.27 -206.38,-50.27 -50.27,0 -103.19,0 -153.46,50.27 -50.27,50.27 -50.27,103.19 -50.27,153.46l0 616.48 -669.39 0zm3180.29 -513.29c-50.27,0 -153.46,0 -256.65,50.27 -153.46,0 -256.65,50.27 -256.65,103.19 0,50.27 50.27,50.27 50.27,103.19 50.27,0 103.19,0 153.46,0 103.19,0 206.38,0 256.65,-50.27 50.27,-50.27 50.27,-103.19 50.27,-153.46l0.01 -52.92 2.64 0zm52.92 513.29l-50.27 -153.46c-50.27,50.27 -153.46,103.19 -256.65,153.46 -103.19,0 -206.38,0 -306.92,0 -206.38,0 -359.83,0 -463.02,-103.19 -103.19,-50.27 -153.46,-153.46 -153.46,-256.65 0,-103.19 50.27,-206.38 153.46,-256.65 103.19,0 306.92,-50.27 563.56,-103.19 50.27,0 103.19,0 153.46,0 206.38,0 306.92,-50.27 306.92,-103.19 0,-50.27 0,-50.27 -50.27,-50.27 -50.27,-50.27 -103.19,-50.27 -206.38,-50.27 -50.27,0 -103.19,0 -153.46,50.27l-50.27 50.27 -616.47 0.01c0,-103.19 50.27,-206.38 206.38,-256.65 153.46,-50.27 359.83,-103.19 666.75,-103.19 153.46,0 256.65,0 359.83,50.27 103.19,0 206.38,0 256.65,50.27 103.19,0 153.46,50.27 206.38,103.19 0,50.27 50.27,103.19 50.27,206.38l0 616.48 0 50.27 50.27 50.27 0 50.27 -666.76 0.01 0 5.29zm2410.35 -616.48l666.75 0c0,206.38 -103.19,359.83 -306.92,463.02 -206.38,103.19 -410.1,153.46 -769.94,153.46 -359.83,0 -616.48,-50.27 -820.21,-206.38 -206.38,-153.46 -306.92,-359.83 -306.92,-563.56 0,-256.65 103.19,-463.02 306.92,-616.48 206.38,-103.19 463.02,-206.38 820.21,-206.38 306.92,0 563.56,50.27 769.94,153.46 153.46,103.19 256.65,256.65 306.92,463.02l-719.66 0c0,-50.27 0,-103.19 -103.19,-153.46 -50.27,-50.27 -153.46,-50.27 -256.65,-50.27 -153.46,0 -256.65,0 -306.92,103.19 -103.19,50.27 -103.19,153.46 -103.19,306.92 0,103.19 50.27,206.38 103.19,306.92 50.27,50.27 206.38,103.19 306.92,103.19 153.46,0 206.38,-50.27 306.92,-50.27 55.56,-52.92 105.83,-156.11 105.83,-206.38zm2002.9 103.19c-50.27,0 -153.46,0 -256.65,50.27 -153.46,0 -256.65,50.27 -256.65,103.19 0,50.27 50.27,50.27 50.27,103.19 50.27,0 103.19,0 153.46,0 103.19,0 206.38,0 256.65,-50.27 50.27,-50.27 50.27,-103.19 50.27,-153.46l0 -52.92 2.65 0zm50.27 513.29l0 -153.46c-103.19,50.27 -206.38,103.19 -306.92,153.46 -103.19,0 -206.38,0 -306.92,0 -206.38,0 -359.83,0 -463.02,-103.19 -103.19,-50.27 -153.46,-153.46 -153.46,-256.65 0,-103.19 50.27,-206.38 153.46,-256.65 103.19,0 306.92,-50.27 563.56,-103.19 50.27,0 103.19,0 153.46,0 206.38,0 306.92,-50.27 306.92,-103.19 0,-50.27 0,-50.27 -50.27,-50.27 -50.27,-50.27 -103.19,-50.27 -153.46,-50.27 -103.19,0 -153.46,0 -153.46,50.27 -50.27,0 -103.19,50.27 -103.19,50.27l-616.47 0.01c0,-103.19 50.27,-206.38 206.38,-256.65 153.46,-50.27 359.83,-103.19 666.75,-103.19 153.46,0 256.65,0 359.83,50.27 153.46,0 206.38,0 306.92,50.27 50.27,0 103.19,50.27 153.46,103.19 0,50.27 50.27,103.19 50.27,206.38l0 616.48 0 50.27 50.27 50.27 0 50.27 -664.11 0.01 0 5.29zm923.4 0l0 -1129.77 616.48 0 0 206.38c50.27,-103.19 103.19,-153.46 206.38,-206.38 50.27,0 153.46,-50.27 306.92,-50.27l50.26 -0.01 0 460.38 -50.27 0c-50.27,0 -50.27,0 -50.27,0 -153.46,0 -256.65,0 -306.92,50.27 -50.27,50.27 -103.19,103.19 -103.19,206.38l0 463.02 -669.39 0zm3130.02 0l-563.56 0 0 -153.46c-103.19,50.27 -153.46,103.19 -256.65,103.19 -103.19,50.27 -206.38,50.27 -306.92,50.27 -206.38,0 -359.83,-50.27 -513.29,-153.46 -103.19,-103.19 -206.38,-256.65 -206.38,-410.1 0,-206.38 103.19,-359.83 206.38,-463.02 153.46,-103.19 306.92,-153.46 513.29,-153.46 103.19,0 206.38,0 256.65,50.27 103.19,0 153.46,50.27 256.65,103.19l0 -513.3 613.83 0 0 1539.88zm-923.4 -309.57c103.19,0 153.46,-50.27 206.38,-103.19 50.27,0 103.19,-103.19 103.19,-153.46 0,-103.19 -50.27,-153.46 -103.19,-206.38 0,-50.27 -103.19,-50.27 -206.38,-50.27 -50.27,0 -153.46,0 -153.46,50.27 -50.27,50.27 -103.19,103.19 -103.19,206.38 0,50.27 50.27,153.46 103.19,153.46 0,52.92 103.19,103.19 153.46,103.19z"/>
   <path class="fil1" d="M5228.16 8995.84l7850.19 0c1386.42,0 2566.46,-820.21 3026.83,-2000.25l-359.83 0c-463.02,976.31 -1486.96,1693.33 -2669.65,1693.33l-7847.54 0c-1180.04,0 -2206.63,-719.67 -2669.65,-1693.33l-359.83 0c515.94,1180.04 1645.71,2000.25 3029.48,2000.25zm10879.67 -4463.52c-463.02,-1180.04 -1643.06,-2000.25 -3026.83,-2000.25l-7852.84 0c-1386.42,0 -2513.54,820.21 -3026.83,2000.25l359.83 0c463.02,-976.31 1486.96,-1693.33 2669.65,-1693.33l7850.18 -0.01c1180.04,0 2206.63,719.67 2669.65,1693.33l357.19 0.01z"/>
   <path class="fil1" d="M9181.04 1606.03c1846.79,0 3436.94,1230.31 4003.15,2926.29l-7956.03 0c513.29,-1695.98 2103.44,-2926.29 3952.88,-2926.29zm4000.5 5386.91c-563.56,1693.33 -2156.35,2926.29 -4003.15,2926.29 -1846.8,0 -3436.94,-1230.31 -3950.23,-2926.29l7953.38 0z"/>
  </g>
 </g>
</svg>
