<?xml version="1.0" encoding="utf-8"?>
<!-- Generator: Adobe Illustrator 19.0.0, SVG Export Plug-In . SVG Version: 6.00 Build 0)  -->
<svg version="1.1" id="Layer_1" xmlns="http://www.w3.org/2000/svg" xmlns:xlink="http://www.w3.org/1999/xlink" x="0px" y="0px"
	 width="690px" height="436px" viewBox="39 179 690 436" style="enable-background:new 39 179 690 436;" xml:space="preserve">
<style type="text/css">
	.st0{fill:#D2D3D5;fill-opacity:7.058800e-002;}
	.st1{fill:#E6E7E8;}
</style>
<g>
	<path class="st0" d="M674.3,179.2h-581C62.7,179.2,39,203,39,233.5v327c0,31,25.5,54.3,54.3,54.3h581c31,0,54.7-23.3,54.7-54.3
		v-327C729,203,703.5,179.2,674.3,179.2L674.3,179.2z M674.3,197.5c20.1,0,36.5,16.4,36.5,36v327c0,20.1-16.4,36-36.5,36h-581
		c-19.6,0-36-16-36-36v-327c0-19.6,16.4-36,36-36H674.3z"/>
	<path class="st0" d="M674.3,179.2h-581C62.7,179.2,39,203,39,233.5v327c0,31,25.5,54.3,54.3,54.3h581c31,0,54.7-23.3,54.7-54.3
		v-327C729,203,703.5,179.2,674.3,179.2L674.3,179.2z M674.3,197.5c20.1,0,36.5,16.4,36.5,36v327c0,20.1-16.4,36-36.5,36h-581
		c-19.6,0-36-16-36-36v-327c0-19.6,16.4-36,36-36H674.3z"/>
	<path class="st1" d="M128,408.6h7.8c5.8,0,11.6-1.9,13.6-3.9c3.9-1.9,3.9-5.8,3.9-9.7c0-5.8,0-9.7-3.9-11.6
		c-1.9-1.9-7.8-1.9-13.6-1.9H128V408.6z M100.9,424.2V366h33c7.8,0,15.5,0,19.4,0c3.9,1.9,7.8,1.9,9.7,3.9
		c5.8,1.9,11.6,5.8,13.6,9.7c3.9,3.9,3.9,9.7,3.9,15.5s0,11.6-3.9,15.5c-3.9,3.9-9.7,7.8-17.5,9.7c-1.9,1.9-5.8,1.9-9.7,1.9
		s-11.6,1.9-19.4,1.9H100.9z M190.1,377.6V364h25.2v13.6H190.1z M190.1,424.2v-42.7h25.2v42.7H190.1z M228.9,424.2v-42.7h21.3v5.8
		c3.9-1.9,7.8-3.9,9.7-5.8c3.9,0,7.8-1.9,13.6-1.9c3.9,0,5.8,0,9.7,1.9c3.9,0,5.8,1.9,7.8,3.9s1.9,3.9,3.9,5.8c0,1.9,0,5.8,0,9.7
		v23.3h-23.3v-23.3c0-1.9-1.9-5.8-1.9-5.8c-1.9-1.9-3.9-1.9-7.8-1.9c-1.9,0-3.9,0-5.8,1.9c-1.9,1.9-1.9,3.9-1.9,5.8v23.3H228.9z
		 M349.1,404.8c-1.9,0-5.8,0-9.7,1.9c-5.8,0-9.7,1.9-9.7,3.9c0,1.9,1.9,1.9,1.9,3.9c1.9,0,3.9,0,5.8,0c3.9,0,7.8,0,9.7-1.9
		c1.9-1.9,1.9-3.9,1.9-5.8V404.8L349.1,404.8z M351.1,424.2l-1.9-5.8c-1.9,1.9-5.8,3.9-9.7,5.8c-3.9,0-7.8,0-11.6,0
		c-7.8,0-13.6,0-17.5-3.9c-3.9-1.9-5.8-5.8-5.8-9.7c0-3.9,1.9-7.8,5.8-9.7c3.9,0,11.6-1.9,21.3-3.9c1.9,0,3.9,0,5.8,0
		c7.8,0,11.6-1.9,11.6-3.9c0-1.9,0-1.9-1.9-1.9c-1.9-1.9-3.9-1.9-7.8-1.9c-1.9,0-3.9,0-5.8,1.9l-1.9,1.9h-23.3
		c0-3.9,1.9-7.8,7.8-9.7c5.8-1.9,13.6-3.9,25.2-3.9c5.8,0,9.7,0,13.6,1.9c3.9,0,7.8,0,9.7,1.9c3.9,0,5.8,1.9,7.8,3.9
		c0,1.9,1.9,3.9,1.9,7.8v23.3v1.9l1.9,1.9v1.9H351.1z M442.2,400.9h25.2c0,7.8-3.9,13.6-11.6,17.5c-7.8,3.9-15.5,5.8-29.1,5.8
		c-13.6,0-23.3-1.9-31-7.8c-7.8-5.8-11.6-13.6-11.6-21.3c0-9.7,3.9-17.5,11.6-23.3c7.8-3.9,17.5-7.8,31-7.8
		c11.6,0,21.3,1.9,29.1,5.8c5.8,3.9,9.7,9.7,11.6,17.5h-27.2c0-1.9,0-3.9-3.9-5.8c-1.9-1.9-5.8-1.9-9.7-1.9c-5.8,0-9.7,0-11.6,3.9
		c-3.9,1.9-3.9,5.8-3.9,11.6c0,3.9,1.9,7.8,3.9,11.6c1.9,1.9,7.8,3.9,11.6,3.9c5.8,0,7.8-1.9,11.6-1.9
		C440.3,406.7,442.2,402.8,442.2,400.9z M517.9,404.8c-1.9,0-5.8,0-9.7,1.9c-5.8,0-9.7,1.9-9.7,3.9c0,1.9,1.9,1.9,1.9,3.9
		c1.9,0,3.9,0,5.8,0c3.9,0,7.8,0,9.7-1.9c1.9-1.9,1.9-3.9,1.9-5.8V404.8L517.9,404.8z M519.8,424.2v-5.8c-3.9,1.9-7.8,3.9-11.6,5.8
		c-3.9,0-7.8,0-11.6,0c-7.8,0-13.6,0-17.5-3.9c-3.9-1.9-5.8-5.8-5.8-9.7c0-3.9,1.9-7.8,5.8-9.7c3.9,0,11.6-1.9,21.3-3.9
		c1.9,0,3.9,0,5.8,0c7.8,0,11.6-1.9,11.6-3.9c0-1.9,0-1.9-1.9-1.9c-1.9-1.9-3.9-1.9-5.8-1.9c-3.9,0-5.8,0-5.8,1.9
		c-1.9,0-3.9,1.9-3.9,1.9h-23.3c0-3.9,1.9-7.8,7.8-9.7c5.8-1.9,13.6-3.9,25.2-3.9c5.8,0,9.7,0,13.6,1.9c5.8,0,7.8,0,11.6,1.9
		c1.9,0,3.9,1.9,5.8,3.9c0,1.9,1.9,3.9,1.9,7.8v23.3v1.9l1.9,1.9v1.9H519.8z M554.7,424.2v-42.7H578v7.8c1.9-3.9,3.9-5.8,7.8-7.8
		c1.9,0,5.8-1.9,11.6-1.9h1.9V397h-1.9c-1.9,0-1.9,0-1.9,0c-5.8,0-9.7,0-11.6,1.9c-1.9,1.9-3.9,3.9-3.9,7.8v17.5H554.7z M673,424.2
		h-21.3v-5.8c-3.9,1.9-5.8,3.9-9.7,3.9c-3.9,1.9-7.8,1.9-11.6,1.9c-7.8,0-13.6-1.9-19.4-5.8c-3.9-3.9-7.8-9.7-7.8-15.5
		c0-7.8,3.9-13.6,7.8-17.5c5.8-3.9,11.6-5.8,19.4-5.8c3.9,0,7.8,0,9.7,1.9c3.9,0,5.8,1.9,9.7,3.9V366H673V424.2z M638.1,412.5
		c3.9,0,5.8-1.9,7.8-3.9c1.9,0,3.9-3.9,3.9-5.8c0-3.9-1.9-5.8-3.9-7.8c0-1.9-3.9-1.9-7.8-1.9c-1.9,0-5.8,0-5.8,1.9
		c-1.9,1.9-3.9,3.9-3.9,7.8c0,1.9,1.9,5.8,3.9,5.8C632.3,410.6,636.2,412.5,638.1,412.5z"/>
	<path class="st1" d="M236.6,519.2h296.7c52.4,0,97-31,114.4-75.6h-13.6c-17.5,36.9-56.2,64-100.9,64H236.6
		c-44.6,0-83.4-27.2-100.9-64h-13.6C141.6,488.2,184.3,519.2,236.6,519.2z M647.8,350.5c-17.5-44.6-62.1-75.6-114.4-75.6H236.6
		c-52.4,0-95,31-114.4,75.6h13.6c17.5-36.9,56.2-64,100.9-64h296.7c44.6,0,83.4,27.2,100.9,64H647.8z"/>
	<path class="st1" d="M386,239.9c69.8,0,129.9,46.5,151.3,110.6H236.6C256,286.4,316.1,239.9,386,239.9z M537.2,443.5
		c-21.3,64-81.5,110.6-151.3,110.6S256,507.6,236.6,443.5H537.2z"/>
</g>
</svg>
