<?xml version="1.0" encoding="utf-8"?>
<!-- Generator: Adobe Illustrator 19.0.0, SVG Export Plug-In . SVG Version: 6.00 Build 0)  -->
<svg version="1.1" id="Layer_1" xmlns="http://www.w3.org/2000/svg" xmlns:xlink="http://www.w3.org/1999/xlink" x="0px" y="0px"
	 width="440.7px" height="253px" viewBox="1328.9 -45 440.7 253" style="enable-background:new 1328.9 -45 440.7 253;"
	 xml:space="preserve">
<style type="text/css">
	.st0{fill:#FFFFFF;}
	.st1{fill:#E0E0E0;}
	.st2{fill:url(#XMLID_2_);}
</style>
<g>
	<path class="st0" d="M1341.4-42.1h415.8c5.4,0,9.5,4.2,9.5,9.3v228.3c0,5.4-4.2,9.5-9.5,9.5h-415.8c-5.4,0-9.5-4.2-9.5-9.5V-32.8
		C1331.9-37.9,1336-42.1,1341.4-42.1z"/>
	<path id="_x31_" class="st1" d="M1757.2-39.1h-415.8V-45h415.8l0,0V-39.1z M1769.7-32.8h-5.9l0,0V-33v-0.5v-0.2l-0.2-0.2v-0.5v-0.2
		l-0.2-0.2v-0.2l-0.2-0.2V-36l-0.2-0.2l-0.2-0.2v-0.2l-0.2-0.2l-0.2-0.2l-0.2-0.2l-0.2-0.2h-0.2l-0.2-0.2l-0.2-0.2l-0.2-0.2h-0.2
		l-0.2-0.2h-0.2l-0.2-0.2h-0.5l-0.2-0.2h-0.2h-0.2h-0.5h-0.2h-0.5V-45h0.7h0.7l0.5,0.2h0.7l0.5,0.2h0.5l0.7,0.2l0.5,0.2l0.5,0.2
		l0.5,0.2l0.5,0.2l0.5,0.5l0.5,0.2l0.5,0.2l0.5,0.5l0.5,0.5l0.5,0.2l0.2,0.5l0.5,0.5l0.2,0.5l0.2,0.5l0.2,0.5l0.5,0.5l0.2,0.7v0.5
		l0.2,0.5l0.2,0.7l0.2,0.5v0.5v0.7v0.7L1769.7-32.8L1769.7-32.8z M1763.8,195.5V-32.8h5.9v228.3l0,0H1763.8z M1757.2,208v-5.9l0,0
		h0.5h0.2h0.5l0.2-0.2h0.2h0.2l0.5-0.2h0.2l0.2-0.2h0.2l0.2-0.2l0.2-0.2h0.2l0.2-0.2l0.2-0.2l0.2-0.2l0.2-0.2l0.2-0.2l0.2-0.2v-0.2
		l0.2-0.2l0.2-0.2v-0.2l0.2-0.2V198l0.2-0.5v-0.2V197l0.2-0.2v-0.5V196v-0.5h5.9l-0.2,0.7v0.7v0.5v0.7l-0.2,0.5l-0.2,0.5l-0.2,0.7
		v0.5l-0.2,0.5l-0.5,0.5l-0.2,0.5l-0.2,0.5l-0.2,0.5l-0.5,0.5l-0.2,0.5l-0.5,0.5l-0.5,0.5l-0.5,0.2l-0.5,0.5l-0.5,0.2l-0.5,0.2
		l-0.5,0.2l-0.5,0.5l-0.5,0.2h-0.5l-0.7,0.2l-0.5,0.2l-0.5,0.2h-0.7h-0.5h-0.7L1757.2,208L1757.2,208z M1341.4,202.1h415.8v5.9
		h-415.8l0,0V202.1z M1328.9,195.5h5.9l0,0v0.5v0.2v0.2v0.5v0.2l0.2,0.2v0.5l0.2,0.2v0.2l0.2,0.2v0.2l0.2,0.2l0.2,0.2l0.2,0.2
		l0.2,0.2v0.2l0.2,0.2l0.2,0.2l0.2,0.2h0.5l0.2,0.2l0.2,0.2h0.2l0.2,0.2h0.2l0.5,0.2h0.2h0.2l0.5,0.2h0.2h0.2h0.5v5.9l-0.7-0.2h-0.5
		h-0.7h-0.5l-0.7-0.2l-0.5-0.2h-0.7l-0.5-0.2l-0.5-0.2l-0.5-0.2l-0.5-0.5l-0.5-0.2l-0.5-0.2l-0.5-0.5l-0.5-0.2l-0.5-0.5l-0.5-0.5
		l-0.2-0.5l-0.5-0.2l-0.2-0.5l-0.5-0.5l-0.2-0.7l-0.2-0.5l-0.2-0.5l-0.2-0.5l-0.2-0.7v-0.5l-0.2-0.5v-0.7l-0.2-0.5v-0.7V195.5
		L1328.9,195.5z M1334.8-32.8v228.3h-5.9V-32.8l0,0H1334.8z M1341.4-45v5.9l0,0h-0.5h-0.2h-0.2h-0.5h-0.2l-0.2,0.2h-0.5l-0.2,0.2
		h-0.2l-0.2,0.2h-0.2l-0.2,0.2l-0.5,0.2l-0.2,0.2h-0.2l-0.2,0.2v0.2l-0.2,0.2l-0.2,0.2l-0.2,0.2l-0.2,0.2v0.5l-0.2,0.2v0.2L1335-35
		v0.2l-0.2,0.2v0.5v0.2v0.2v0.5v0.2h-5.9v-0.5V-34l0.2-0.7v-0.5l0.2-0.7v-0.5l0.2-0.5l0.2-0.7l0.2-0.5l0.2-0.5l0.2-0.5l0.5-0.5
		l0.2-0.5l0.5-0.5l0.2-0.5l0.5-0.2l0.5-0.5l0.5-0.5l0.5-0.2l0.5-0.5l0.5-0.2l0.5-0.2l0.5-0.2l0.5-0.2l0.5-0.2l0.7-0.2h0.5l0.7-0.2
		h0.5l0.7-0.2h0.5H1341.4L1341.4-45z"/>
</g>
<path class="st1" d="M1393.7,58.9h-15.9v55.7h15.9c8.3,0,14.4-2.2,19.8-6.6c6.4-5.1,10-13,10-21.3
	C1423.5,70.4,1411.3,58.9,1393.7,58.9L1393.7,58.9z M1406.4,100.7c-3.4,3.2-7.8,4.4-14.9,4.4h-2.9V68.4h2.9c7.1,0,11.2,1.2,14.9,4.4
	c3.7,3.4,5.9,8.6,5.9,13.9S1410.1,97.3,1406.4,100.7z"/>
<rect id="XMLID_422_" x="1428.4" y="58.9" class="st1" width="10.8" height="55.5"/>
<path id="XMLID_421_" class="st1" d="M1465.8,80.4c-6.6-2.4-8.3-4.2-8.3-7.1c0-3.4,3.4-6.1,8.1-6.1c3.2,0,5.9,1.2,8.8,4.4l5.6-7.3
	c-4.6-4.2-10.3-6.1-16.4-6.1c-9.8,0-17.4,6.8-17.4,15.9c0,7.6,3.4,11.5,13.7,15.2c4.2,1.5,6.4,2.4,7.6,3.2c2.2,1.5,3.2,3.4,3.2,5.9
	c0,4.4-3.7,7.6-8.3,7.6c-5.4,0-9.5-2.4-12-7.3l-6.8,6.8c4.9,7.1,10.8,10.5,19.1,10.5c11.2,0,19.1-7.6,19.1-18.3
	C1481.7,88.9,1478.3,84.8,1465.8,80.4L1465.8,80.4z"/>
<path id="XMLID_420_" class="st1" d="M1485.1,86.7c0,16.4,12.7,29.1,29.3,29.1c4.6,0,8.8-1,13.7-3.4V99.7c-4.4,4.2-8.3,6.1-13.2,6.1
	c-10.8,0-18.6-8.1-18.6-19.3c0-10.5,8.1-19.1,18.1-19.1c5.4,0,9,2,13.7,6.4V61.1c-4.9-2.4-8.8-3.4-13.4-3.4
	C1498.3,57.7,1485.1,70.6,1485.1,86.7z"/>
<polygon id="XMLID_419_" class="st1" points="1613.9,96.3 1599,58.9 1587.3,58.9 1611,116.1 1616.6,116.1 1640.6,58.9 1629.1,58.9 
	"/>
<polygon id="XMLID_418_" class="st1" points="1645.7,114.6 1676.3,114.6 1676.3,105.1 1656.5,105.1 1656.5,90.2 1675.5,90.2 
	1675.5,80.6 1656.5,80.6 1656.5,68.4 1676.3,68.4 1676.3,58.9 1645.7,58.9 "/>
<path class="st1" d="M1719.1,75.5c0-10.5-7.1-16.6-19.6-16.6h-15.9v55.7h10.8V92.4h1.5l14.9,22.2h13.4l-17.6-23.5
	C1714.7,89.4,1719.1,83.8,1719.1,75.5L1719.1,75.5z M1697.5,84.5h-3.2V67.7h3.2c6.8,0,10.5,2.9,10.5,8.3
	C1708.1,81.6,1704.4,84.5,1697.5,84.5z"/>
<linearGradient id="XMLID_2_" gradientUnits="userSpaceOnUse" x1="1576.1356" y1="88.5839" x2="1555.9829" y2="56.8949" gradientTransform="matrix(1 0 0 -1 0 152)">
	<stop  offset="0" style="stop-color:#F89F20"/>
	<stop  offset="0.251" style="stop-color:#F79A20"/>
	<stop  offset="0.5294" style="stop-color:#F68D20"/>
	<stop  offset="0.6196" style="stop-color:#F58720"/>
	<stop  offset="0.7216" style="stop-color:#F48120"/>
	<stop  offset="1" style="stop-color:#F37521"/>
</linearGradient>
<circle id="XMLID_415_" class="st2" cx="1561.1" cy="87" r="29.6"/>
<path id="XMLID_414_" class="st1" d="M1590.7,87c0-16.4-13.2-29.6-29.6-29.6c-16.4,0-29.6,13.2-29.6,29.6s13.2,29.6,29.6,29.6
	C1577.5,116.6,1590.7,103.4,1590.7,87z"/>
</svg>
