<?xml version="1.0" encoding="utf-8"?>
<!-- Generator: Adobe Illustrator 19.0.0, SVG Export Plug-In . SVG Version: 6.00 Build 0)  -->
<svg version="1.1" id="Layer_1" xmlns="http://www.w3.org/2000/svg" xmlns:xlink="http://www.w3.org/1999/xlink" x="0px" y="0px"
	 viewBox="-249 71 469 109" style="enable-background:new -249 71 469 109;" xml:space="preserve">
<style type="text/css">
	.st0{fill:#D1D2D4;}
</style>
<g id="XMLID_2_">
	<path id="XMLID_39_" class="st0" d="M-104.5,132.9l-14.8,32.4h5.4l3.7-8.3h12.6l3.6,8.3h5.4l-14.7-32.4H-104.5z M-102.7,145.2
		l3.2,7.4h-8.8l3.2-7.4c0.2-0.5,0.4-1.1,0.6-1.7c0.2-0.6,0.4-1.3,0.6-2c0.2,0.8,0.4,1.4,0.6,2C-103.1,144.2-102.9,144.7-102.7,145.2
		"/>
	<rect id="XMLID_38_" x="-103.2" y="92.4" class="st0" width="11.7" height="32.4"/>
	<polygon id="XMLID_37_" class="st0" points="-108.4,124.8 -108.4,92.4 -119.9,92.4 -119.9,103.2 -129,103.2 -129,92.4 -140.5,92.4 
		-140.5,124.8 -129,124.8 -129,113.4 -119.9,113.4 -119.9,124.8 	"/>
	<path id="XMLID_33_" class="st0" d="M-126.2,148.1c1.5-0.5,2.6-1.3,3.4-2.4c0.8-1.2,1.2-2.6,1.2-4.3c0-1.4-0.3-2.8-0.8-4
		c-0.5-1.2-1.3-2.2-2.3-2.9c-0.8-0.6-1.7-1-2.8-1.2c-1.1-0.3-2.8-0.4-5.1-0.4h-8v32.4h8c3,0,5.2-0.2,6.5-0.6c1.3-0.4,2.4-1,3.2-1.9
		c0.8-0.8,1.5-1.8,1.9-3c0.4-1.2,0.7-2.4,0.7-3.7c0-2.2-0.5-4-1.6-5.4C-122.9,149.3-124.3,148.4-126.2,148.1 M-135.5,137.3h2
		c2.6,0,4.4,0.4,5.3,1.1c0.9,0.7,1.4,2,1.4,3.7c0,1.6-0.5,2.8-1.5,3.5c-1,0.7-2.7,1-5.2,1h-2V137.3z M-126.1,158.2
		c-0.4,0.7-0.8,1.3-1.5,1.7c-0.5,0.4-1.2,0.6-2.1,0.8c-0.9,0.2-2.2,0.2-4,0.2h-1.8v-10.3h3.3c1,0,1.9,0.1,2.5,0.2
		c0.6,0.1,1.2,0.3,1.7,0.6c0.8,0.4,1.4,1,1.8,1.8c0.4,0.8,0.6,1.7,0.6,2.7C-125.6,156.7-125.7,157.5-126.1,158.2"/>
	<polygon id="XMLID_32_" class="st0" points="-29.3,132.9 -35.6,132.9 -47,146.3 -47,132.9 -52.1,132.9 -52.1,165.3 -47,165.3 
		-47,148.8 -34.4,165.3 -27.8,165.3 -41.8,147.3 	"/>
	<polygon id="XMLID_31_" class="st0" points="70.2,92.4 57.2,92.4 49.9,106.2 49.9,92.4 38.6,92.4 38.6,124.8 49.9,124.8 
		49.9,111.3 57.6,124.8 71.6,124.8 60.5,108.4 	"/>
	<path id="XMLID_28_" class="st0" d="M86.1,92.4l-11.4,32.4h12.3l1-4.1h8.7l1,4.1h12.3L98.9,92.4H86.1z M90,113
		c0.2-0.5,0.3-1,0.4-1.5c0.1-0.5,0.3-1,0.4-1.5c0.3-1.3,0.6-2.5,0.9-3.8c0.3-1.3,0.4-2.6,0.6-4l0.2,0c0.1,1.3,0.3,2.6,0.6,3.9
		c0.2,1.3,0.5,2.6,0.9,3.8c0.1,0.5,0.3,1,0.4,1.5c0.1,0.5,0.3,1,0.4,1.5H90z"/>
	<path id="XMLID_25_" class="st0" d="M139,108.8c1-1.6,1.6-3.4,1.6-5.4v-0.3c0-1.6-0.3-3.1-1-4.5c-0.6-1.4-1.5-2.6-2.8-3.6
		c-1.3-1.1-2.8-1.8-4.3-2.1c-1.6-0.3-3.2-0.5-4.9-0.5h-14.5v32.4h11.3v-10.7l5.6,10.7h12.9l-8.6-13.1
		C136.4,111.4,138,110.4,139,108.8 M128.3,106.7c-0.9,0.3-1.9,0.5-3,0.5h-0.8c0,0-0.1,0-0.1,0v-6.3h0.9c1.1,0,2.1,0.2,3,0.5
		c0.9,0.4,1.3,1.3,1.3,2.7C129.7,105.5,129.2,106.3,128.3,106.7"/>
	<path id="XMLID_22_" class="st0" d="M204.8,92.4H192l-11.4,32.4h12.3l1-4.1h8.7l1,4.1H216L204.8,92.4z M195.9,113
		c0.1-0.5,0.3-1,0.4-1.5c0.1-0.5,0.3-1,0.4-1.5c0.3-1.3,0.6-2.5,0.9-3.8c0.3-1.3,0.4-2.6,0.6-4l0.2,0c0.1,1.3,0.3,2.6,0.6,3.9
		c0.3,1.3,0.5,2.6,0.9,3.8c0.1,0.5,0.3,1,0.4,1.5c0.1,0.5,0.3,1,0.4,1.5H195.9z"/>
	<path id="XMLID_21_" class="st0" d="M166.6,103.4c0,0.7,0,1.4,0,2.1c0,0.7,0,1.4,0.1,2c0,0.3,0.1,0.7,0.1,1c0,0.3,0.1,0.7,0.1,1
		l-9.9-17h-11.3v32.4h11.1v-11.7c0-0.4,0-0.8,0-1.3c0-0.4,0-0.9-0.1-1.3c0-0.4-0.1-0.9-0.1-1.3c0-0.4-0.1-0.9-0.2-1.3l9.8,16.8h11.4
		V92.4h-11.1V103.4z"/>
	<path id="XMLID_18_" class="st0" d="M-24.3,112.9c0.3-1.3,0.5-2.7,0.5-4c0-2.2-0.4-4.3-1.2-6.4c-0.8-2.1-1.9-3.8-3.5-5.4
		c-1.5-1.5-3.2-2.6-5.2-3.4c-2-0.8-4-1.2-6-1.3h-0.5c-2.5,0-4.9,0.5-7.3,1.6c-2.3,1.1-4.3,2.6-5.9,4.7c-1.1,1.4-1.8,3-2.4,4.7
		c-0.5,1.7-0.8,3.4-0.8,5.1c0,2.5,0.5,4.9,1.6,7.3c1.1,2.4,2.6,4.3,4.7,5.8c1.4,1,2.8,1.8,4.4,2.3c1.6,0.5,3.2,0.8,4.8,0.9h0.7
		c2.9,0,5.6-0.7,8.3-2.1c2.7-1.4,4.7-3.4,6.2-6.1v0C-25.1,115.5-24.6,114.2-24.3,112.9 M-34.9,108.7c0,0.5,0,1-0.1,1.4
		c-0.1,0.5-0.2,0.9-0.4,1.3v0.1c-0.4,0.9-1.1,1.7-2,2.3c-0.9,0.5-1.8,0.8-2.8,0.8c-0.6,0-1.1-0.1-1.7-0.3c-0.5-0.2-1.1-0.5-1.5-0.9
		c-0.6-0.6-1.1-1.3-1.4-2.1c-0.3-0.8-0.5-1.7-0.5-2.6c0-0.6,0.1-1.3,0.2-1.8c0.2-0.6,0.4-1.1,0.7-1.6c0.5-0.8,1.1-1.4,1.9-1.7
		c0.8-0.4,1.6-0.6,2.5-0.6c0.7,0,1.4,0.1,2.1,0.4c0.7,0.3,1.2,0.7,1.7,1.3c0.4,0.5,0.7,1.1,1,1.7c0.2,0.7,0.4,1.3,0.4,2V108.7z"/>
	<path id="XMLID_17_" class="st0" d="M-62,155.4c-0.6-0.8-1.2-1.5-1.8-2.1c-0.6-0.6-1.1-1.2-1.7-1.8l-18.8-18.5h-1.3v32.4h4.7v-22.5
		c0.5,0.7,0.9,1.3,1.5,1.9c0.5,0.6,1,1.2,1.6,1.7l19.3,18.9h1.3v-32.4H-62V155.4z"/>
	<path id="XMLID_14_" class="st0" d="M-74.9,115.3h1.8c0.2,0,0.5,0,0.7,0h0.7c0.8,0,1.6,0,2.4-0.1c0.8,0,1.6-0.1,2.4-0.3
		c2.5-0.4,4.4-1.5,5.8-3.2c1.4-1.7,2.1-3.8,2.3-6.3c0-0.2,0-0.5,0-0.7v-0.6c0-4.5-1.3-7.6-3.8-9.3c-2.5-1.7-5.9-2.5-10.2-2.5h-13.7
		v32.4h11.5V115.3z M-74.8,101.5h1c0.2,0,0.5,0,0.7,0c0.9,0,1.6,0.2,2.4,0.6c0.7,0.3,1.1,1.1,1.1,2.1c0,1.1-0.4,1.7-1.1,2.1
		c-0.7,0.3-1.5,0.5-2.3,0.5c-0.2,0-0.5,0-0.7,0h-0.9c-0.1,0-0.1,0-0.2,0V101.5z"/>
	<path id="XMLID_11_" class="st0" d="M-10.6,132.9l-14.8,32.4h5.4l3.7-8.3h12.6l3.6,8.3h5.4l-14.7-32.4H-10.6z M-8.8,145.2l3.2,7.4
		h-8.8l3.2-7.4c0.2-0.5,0.4-1.1,0.6-1.7c0.2-0.6,0.4-1.3,0.5-2c0.2,0.8,0.4,1.4,0.6,2C-9.1,144.2-9,144.7-8.8,145.2"/>
	<polygon id="XMLID_10_" class="st0" points="-21.8,103 -13.3,103 -13.3,124.8 -1.8,124.8 -1.8,103 6.8,103 6.8,92.4 -21.8,92.4 	
		"/>
	<polygon id="XMLID_9_" class="st0" points="11.9,124.8 33.4,124.8 33.4,116 23.2,116 23.2,112.6 32.4,112.6 32.4,104.3 23.2,104.3 
		23.2,101.2 33.4,101.2 33.4,92.4 11.9,92.4 	"/>
	<path id="XMLID_3_" class="st0" d="M-201.3,84.3c-24.6,0-44.6,20-44.6,44.6c0,24.6,20,44.6,44.6,44.6c24.6,0,44.6-20,44.6-44.6
		C-156.7,104.3-176.7,84.3-201.3,84.3 M-199.1,156.2h-24.3v-24.3h24.3V156.2z M-199.1,125.8h-24.3v-24.3h24.3V125.8z M-193,156.2
		v-24.3c12.2,0,18.2,5.4,18.2,12.2C-174.8,150.8-180.8,156.2-193,156.2 M-193,125.8v-24.3c12.2,0,18.2,5.4,18.2,12.2
		C-174.8,120.4-180.8,125.8-193,125.8"/>
</g>
</svg>
