<?xml version="1.0" encoding="UTF-8"?>
<!DOCTYPE svg PUBLIC "-//W3C//DTD SVG 1.1//EN" "http://www.w3.org/Graphics/SVG/1.1/DTD/svg11.dtd">
<!-- Creator: CorelDRAW 2020 (64-Bit) -->
<svg xmlns="http://www.w3.org/2000/svg" xml:space="preserve" width="181.964mm" height="115.358mm" version="1.1" style="shape-rendering:geometricPrecision; text-rendering:geometricPrecision; image-rendering:optimizeQuality; fill-rule:evenodd; clip-rule:evenodd"
viewBox="0 0 18196.4 11535.83"
 xmlns:xlink="http://www.w3.org/1999/xlink"
 xmlns:xodm="http://www.corel.com/coreldraw/odm/2003">
 <defs>
  <style type="text/css">
   <![CDATA[
    .str0 {stroke:#FEFEFE;stroke-width:141.11;stroke-miterlimit:22.9256}
    .fil0 {fill:none}
    .fil2 {fill:#D2D3D5}
    .fil1 {fill:#E6E7E8}
   ]]>
  </style>
 </defs>
 <g id="Layer_x0020_1">
  <metadata id="CorelCorpID_0Corel-Layer"/>
  <g id="_2700768828784">
   <path class="fil0" d="M16754.42 0l-15312.44 0c-823.99,0 -1441.98,617.99 -1441.98,1441.98l0 8651.88c0,755.32 686.66,1441.98 1441.98,1441.98l15312.44 0c823.99,0 1441.98,-686.66 1441.98,-1441.98l0 -8651.88c0,-823.99 -617.99,-1441.98 -1441.98,-1441.98l0 0z"/>
   <circle class="fil1" cx="6729.24" cy="4669.27" r="3501.95"/>
   <circle class="fil1" cx="10780.51" cy="4669.27" r="3501.95"/>
   <path class="fil1 str0" d="M10231.18 4669.27c0,-1235.98 -549.33,-2265.97 -1441.98,-2883.96 -961.32,617.99 -1510.64,1716.64 -1510.64,2883.96 0,1098.65 549.33,2197.3 1510.64,2815.29 892.65,-617.99 1441.98,-1647.98 1441.98,-2815.29z"/>
   <g id="_1520634258016">
    <g>
     <path class="fil2" d="M12771.81 9132.53c68.67,0 206,0 274.66,0l-137.33 274.66c-68.67,0 -137.33,0 -137.33,0 -206,0 -343.33,68.67 -343.33,343.33l0 755.32 -274.66 0 0 -1373.31 274.66 0 0 137.33c68.67,-68.67 206,-137.33 343.33,-137.33l0 0zm-1029.98 274.66l-480.66 0 0 617.99c0,137.33 0,206 137.33,206 137.33,0 206,0 274.66,-68.67l68.67 274.66c-68.67,68.67 -206,68.67 -343.33,68.67 -343.33,0 -480.66,-137.33 -480.66,-480.66l0 -617.99 -274.66 0 0 -274.66 274.66 0 0 -411.99 343.33 0 0 411.99 480.66 0 0 274.66zm-3776.61 274.66c0,-206 137.33,-343.33 343.33,-343.33 206,0 274.66,137.33 343.33,343.33l-686.66 0zm961.32 137.33c0,-411.99 -206,-686.66 -617.99,-686.66 -411.99,0 -686.66,274.66 -686.66,686.66 0,411.99 274.66,686.66 686.66,686.66 206,0 411.99,0 549.33,-206l-137.33 -206c-68.67,137.33 -206,137.33 -343.33,137.33 -206,0 -411.99,-68.67 -411.99,-274.66l961.32 0c0,-68.67 0,-137.33 0,-137.33l0 0 -0.01 0zm1304.64 -343.32c-68.67,-68.67 -206,-137.33 -411.99,-137.33 -137.33,0 -274.66,68.67 -274.66,206 0,68.67 137.33,68.67 274.66,137.33l137.33 0c274.66,68.67 480.66,137.33 480.66,411.99 0,274.66 -274.66,411.99 -617.99,411.99 -274.66,0 -480.66,-68.67 -617.99,-137.33l137.33 -274.66c137.33,68.67 274.66,137.33 480.66,137.33 206,0 274.66,0 274.66,-137.33 0,-68.67 -68.67,-137.33 -206,-137.33l-137.33 0c-343.33,-68.67 -480.66,-206 -480.66,-411.99 0,-274.66 206,-411.99 549.33,-411.99 206,0 411.99,0 549.33,137.33l-137.33 206 -0.01 -0.01zm3639.28 -68.67c-68.67,0 -137.33,0 -137.33,0 -68.67,0 -137.33,68.67 -137.33,68.67 -68.67,68.67 -68.67,137.33 -137.33,137.33 0,68.67 0,137.33 0,206 0,68.67 0,137.33 0,206 68.67,0 68.67,68.67 137.33,137.33 0,0 68.67,68.67 137.33,68.67 0,0 68.67,0 137.33,0 68.67,0 137.33,0 206,0 0,0 68.67,-68.67 137.33,-68.67 0,-68.67 68.67,-137.33 68.67,-137.33 0,-68.67 0,-137.33 0,-206 0,-68.67 0,-137.33 0,-206 0,0 -68.67,-68.67 -68.67,-137.33 -68.67,0 -137.33,-68.67 -137.33,-68.67 -68.67,0 -137.33,0 -206,0l0 0zm0 -274.66c137.33,0 206,0 274.66,0 137.33,68.67 206,137.33 274.66,206 68.67,0 68.67,137.33 137.33,206 68.67,68.67 68.67,137.33 68.67,274.66 0,68.67 0,206 -68.67,274.66 -68.67,68.67 -68.67,137.33 -137.33,206 -68.67,68.67 -137.33,137.33 -274.66,206 -68.67,0 -137.33,0 -274.66,0 -68.67,0 -206,0 -274.66,0 -68.67,-68.67 -206,-137.33 -206,-206 -68.67,-68.67 -137.33,-137.33 -206,-206 0,-68.67 -68.67,-206 -68.67,-274.66 0,-137.33 68.67,-206 68.67,-274.66 68.67,-68.67 137.33,-206 206,-206 0,-68.67 137.33,-137.33 206,-206 68.67,0 206,0 274.66,0l0 0zm-7621.89 686.65c0,-274.66 137.33,-411.99 411.99,-411.99 206,0 411.99,137.33 411.99,411.99 0,206 -206,411.99 -411.99,411.99 -274.66,0 -411.99,-206 -411.99,-411.99l0 0zm1098.66 0l0 -686.66 -343.33 0 0 137.33c-68.67,-68.67 -206,-137.33 -411.99,-137.33 -343.33,0 -686.66,274.66 -686.66,686.66 0,411.99 343.33,686.66 686.66,686.66 206,0 343.33,-68.67 411.99,-206l0 206 343.33 0 0 -686.66zm-1716.65 686.66l0 -892.65c0,-274.66 -206,-480.66 -480.66,-480.66 -206,-68.67 -343.33,0 -480.66,206 -137.33,-137.33 -274.66,-206 -480.66,-206 -137.33,0 -274.66,0 -411.99,137.33l0 -137.33 -274.66 0 0 1373.31 274.66 0 0 -755.32c0,-274.66 137.33,-343.33 343.33,-343.33 206,0 343.33,68.67 343.33,343.33l0 755.32 274.66 0 0 -755.32c0,-274.66 137.33,-343.33 343.33,-343.33 206,0 274.66,68.67 274.66,343.33l0 755.32 274.66 0z"/>
    </g>
   </g>
  </g>
 </g>
</svg>
