<?xml version="1.0" encoding="UTF-8"?>
<!DOCTYPE svg PUBLIC "-//W3C//DTD SVG 1.1//EN" "http://www.w3.org/Graphics/SVG/1.1/DTD/svg11.dtd">
<!-- Creator: CorelDRAW 2020 (64-Bit) -->
<svg xmlns="http://www.w3.org/2000/svg" xml:space="preserve" width="181.964mm" height="115.358mm" version="1.1" style="shape-rendering:geometricPrecision; text-rendering:geometricPrecision; image-rendering:optimizeQuality; fill-rule:evenodd; clip-rule:evenodd"
viewBox="0 0 18196.4 11535.83"
 xmlns:xlink="http://www.w3.org/1999/xlink"
 xmlns:xodm="http://www.corel.com/coreldraw/odm/2003">
 <defs>
  <style type="text/css">
   <![CDATA[
    .str0 {stroke:#FEFEFE;stroke-width:141.11;stroke-miterlimit:22.9256}
    .fil0 {fill:none}
    .fil1 {fill:#E6E7E8}
    .fil2 {fill:#E6E7E8}
   ]]>
  </style>
 </defs>
 <g id="Layer_x0020_1">
  <metadata id="CorelCorpID_0Corel-Layer"/>
  <g id="_2700762476080">
   <path class="fil0" d="M16754.42 0l-15312.44 0c-823.99,0 -1441.98,617.99 -1441.98,1441.98l0 8651.88c0,755.32 686.66,1441.98 1441.98,1441.98l15312.44 0c823.99,0 1441.98,-686.66 1441.98,-1441.98l0 -8651.88c0,-823.99 -617.99,-1441.98 -1441.98,-1441.98l0 0z"/>
   <circle class="fil1" cx="6729.24" cy="4669.27" r="3501.95"/>
   <circle class="fil1" cx="10780.51" cy="4669.27" r="3501.95"/>
   <path class="fil1 str0" d="M10231.18 4669.27c0,-1235.98 -549.33,-2265.97 -1441.98,-2883.96 -961.32,617.99 -1510.64,1716.64 -1510.64,2883.96 0,1098.65 549.33,2197.3 1510.64,2815.29 892.65,-617.99 1441.98,-1647.98 1441.98,-2815.29z"/>
   <path class="fil2" d="M16899.04 10347.06l0 36.2 24.13 0c12.07,0 12.07,-12.07 24.13,-12.07 0,0 0,0 0,-12.07 0,0 0,-12.07 0,-12.07 -12.07,0 -12.07,0 -24.13,0l-24.13 0 0 0.01zm24.13 -24.14c24.13,0 36.2,0 36.2,12.07 12.07,0 24.13,12.07 24.13,24.13 0,12.07 -12.07,24.13 -12.07,24.13 -12.07,12.07 -24.13,12.07 -36.2,12.07l48.27 48.27 -36.2 0 -36.2 -48.27 -12.07 0 0 48.27 -24.13 0 0 -120.66 48.27 0 0 -0.01zm0 168.93c12.07,0 24.13,0 36.2,-12.07 12.07,0 24.13,-12.07 36.2,-24.13 12.07,0 12.07,-12.07 24.13,-24.13 0,-24.13 0,-36.2 0,-48.27 0,-12.07 0,-24.13 0,-36.2 -12.07,-12.07 -12.07,-24.13 -24.13,-36.2 -12.07,-12.07 -24.13,-12.07 -36.2,-24.13 -12.07,0 -24.13,-12.07 -36.2,-12.07 -12.07,0 -36.2,12.07 -48.27,12.07 -12.07,12.07 -24.13,12.07 -24.13,24.13 -12.07,12.07 -24.13,24.13 -24.13,36.2 -12.07,12.07 -12.07,24.13 -12.07,36.2 0,12.07 0,24.13 12.07,48.27 0,12.07 12.07,24.13 24.13,24.13 0,12.07 12.07,24.13 24.13,24.13 12.07,12.07 36.2,12.07 48.27,12.07l0 0zm0 -241.32c12.07,0 36.2,0 48.27,12.07 24.13,0 36.2,12.07 48.27,24.13 12.07,12.07 24.13,24.13 24.13,48.27 12.07,12.07 12.07,36.2 12.07,48.27 0,24.13 0,36.2 -12.07,48.27 0,24.13 -12.07,36.2 -24.13,48.27 -12.07,12.07 -24.13,24.13 -48.27,24.13 -12.07,12.07 -36.2,12.07 -48.27,12.07 -24.13,0 -36.2,0 -60.33,-12.07 -12.07,0 -24.13,-12.07 -36.2,-24.13 -12.07,-12.07 -24.13,-24.13 -36.2,-48.27 0,-12.07 -12.07,-24.13 -12.07,-48.27 0,-12.07 12.07,-36.2 12.07,-48.27 12.07,-24.13 24.13,-36.2 36.2,-48.27 12.07,-12.07 24.13,-24.13 36.2,-24.13 24.13,-12.07 36.2,-12.07 60.33,-12.07l0 0zm-12669.56 -482.66c0,-241.33 156.86,-434.39 422.32,-434.39 241.33,0 398.19,193.06 398.19,434.39 0,241.33 -156.86,434.39 -398.19,434.39 -265.46,0 -422.32,-193.06 -422.32,-434.39l0 0zm1098.03 0l0 -675.71 -289.59 0 0 156.86c-96.53,-120.66 -229.26,-193.06 -422.32,-193.06 -386.12,0 -687.78,301.66 -687.78,711.91 0,410.25 301.66,711.91 687.78,711.91 193.06,0 325.79,-72.4 422.32,-193.06l0 156.86 289.59 0 0 -675.71zm9978.78 0c0,-241.33 156.86,-434.39 410.25,-434.39 241.33,0 410.25,193.06 410.25,434.39 0,241.33 -168.93,434.39 -410.25,434.39 -253.39,0 -410.25,-193.06 -410.25,-434.39l0 0zm1098.03 0l0 -1218.69 -301.66 0 0 699.84c-84.46,-120.66 -229.26,-193.06 -422.32,-193.06 -386.12,0 -675.71,301.66 -675.71,711.91 0,410.25 289.59,711.91 675.71,711.91 193.06,0 337.86,-72.4 422.32,-193.06l0 156.86 301.66 0 0 -675.71zm-7408.68 -446.45c193.06,0 313.72,120.66 349.92,325.79l-711.91 0c36.2,-193.06 156.86,-325.79 361.99,-325.79l0 0zm12.07 -265.45c-398.19,0 -675.71,289.59 -675.71,711.91 0,434.39 289.59,711.91 687.78,711.91 205.13,0 398.19,-48.27 555.05,-193.06l-144.8 -217.19c-108.6,96.53 -253.39,144.8 -386.12,144.8 -193.06,0 -374.05,-84.46 -410.25,-337.86l1001.5 0c12.07,-36.2 12.07,-72.4 12.07,-108.6 0,-422.32 -265.46,-711.91 -639.51,-711.91l0 0 -0.01 0zm3559.54 711.9c0,-241.33 156.86,-434.39 410.25,-434.39 241.33,0 410.25,193.06 410.25,434.39 0,241.33 -168.93,434.39 -410.25,434.39 -253.39,0 -410.25,-193.06 -410.25,-434.39l0 0zm1098.03 0l0 -675.71 -301.66 0 0 156.86c-84.46,-120.66 -229.26,-193.06 -422.32,-193.06 -386.12,0 -675.71,301.66 -675.71,711.91 0,410.25 289.59,711.91 675.71,711.91 193.06,0 337.86,-72.4 422.32,-193.06l0 156.86 301.66 0 0 -675.71zm-2763.17 0c0,410.25 277.52,711.91 723.98,711.91 205.13,0 337.86,-48.27 482.65,-156.86l-144.8 -241.33c-108.6,72.4 -217.19,120.66 -349.92,120.66 -241.33,0 -410.25,-168.93 -410.25,-434.39 0,-265.46 168.93,-434.39 410.25,-434.39 132.73,0 241.33,48.27 349.92,120.66l144.8 -241.33c-144.8,-108.6 -277.52,-156.86 -482.65,-156.86 -446.45,0 -723.98,301.66 -723.98,711.91l0 0 0 0.02zm3800.87 -711.9c-168.93,0 -277.52,84.46 -361.99,193.06l0 -156.86 -289.59 0 0 1351.42 301.66 0 0 -760.17c0,-217.19 96.53,-349.92 289.59,-349.92 60.33,0 120.66,12.07 180.99,36.2l84.46 -277.52c-60.33,-24.13 -144.8,-36.2 -205.13,-36.2l0 0 0.01 -0.01zm-7915.47 144.79c-132.73,-96.53 -337.86,-144.8 -542.98,-144.8 -349.92,0 -567.11,168.93 -567.11,434.39 0,217.19 156.86,361.99 470.58,398.19l132.73 24.13c168.93,24.13 241.33,60.33 241.33,144.8 0,96.53 -108.6,156.86 -313.72,156.86 -205.13,0 -349.92,-60.33 -446.45,-144.8l-144.8 229.26c168.93,120.66 374.05,180.99 591.25,180.99 386.12,0 615.38,-180.99 615.38,-446.45 0,-229.26 -180.99,-361.99 -470.58,-398.19l-144.8 -24.13c-120.66,-12.07 -229.26,-36.2 -229.26,-132.73 0,-96.53 96.53,-156.86 265.46,-156.86 168.93,0 337.86,60.33 422.32,108.6l120.66 -229.26 -0.01 0zm3812.94 -144.79c-168.93,0 -277.52,84.46 -361.99,193.06l0 -156.86 -289.59 0 0 1351.42 301.66 0 0 -760.17c0,-217.19 96.53,-349.92 289.59,-349.92 60.33,0 120.66,12.07 180.99,36.2l84.46 -277.52c-60.33,-24.13 -144.8,-36.2 -205.13,-36.2l0 0 0.01 -0.01zm-2521.85 36.19l-482.65 0 0 -410.25 -289.59 0 0 410.25 -277.52 0 0 265.46 277.52 0 0 615.38c0,325.79 120.66,506.78 470.58,506.78 120.66,0 265.46,-36.2 361.99,-108.6l-84.46 -253.39c-84.46,60.33 -180.99,84.46 -253.39,84.46 -156.86,0 -205.13,-96.53 -205.13,-229.26l0 -615.38 482.65 0 0 -265.46 0 0.01zm-4404.18 1351.43l0 -844.64c0,-325.79 -205.13,-542.98 -542.98,-542.98 -168.93,0 -349.92,48.27 -470.58,241.33 -96.53,-156.86 -241.33,-241.33 -446.45,-241.33 -144.8,0 -289.59,36.2 -398.19,205.13l0 -168.93 -301.66 0 0 1351.42 301.66 0 0 -748.11c0,-241.33 132.73,-361.99 337.86,-361.99 193.06,0 289.59,132.73 289.59,361.99l0 748.11 301.66 0 0 -748.11c0,-241.33 132.73,-361.99 325.79,-361.99 205.13,0 301.66,132.73 301.66,361.99l0 748.11 301.66 0 -0.02 0z"/>
  </g>
 </g>
</svg>
