<?xml version="1.0" encoding="utf-8"?>
<!-- Generator: Adobe Illustrator 19.0.0, SVG Export Plug-In . SVG Version: 6.00 Build 0)  -->
<svg version="1.1" id="Layer_1" xmlns="http://www.w3.org/2000/svg" xmlns:xlink="http://www.w3.org/1999/xlink" x="0px" y="0px"
	 viewBox="-15 48.3 468.5 108.7" style="enable-background:new -15 48.3 468.5 108.7;" xml:space="preserve">
<style type="text/css">
	.st0{fill:#E7E7E7;}
</style>
<g>
	<g>
		<g>
			<path class="st0" d="M415.6,120.6c-4.3-9.8-8.6-19.6-12.8-29.4c-0.4-0.9-0.8-1.4-1.9-1.3c-1,0.1-1.9-0.1-2.5,1.2
				c-1.7,4.1-3.5,8.1-5.3,12.2c-2.6,5.9-5.2,11.8-7.7,17.7c-0.2,0.4-0.7,1-0.1,1.4c0.8,0.6,3.1-0.1,3.5-1.1c0.8-2,1.7-3.9,2.5-5.9
				c0.4-1.1,1-1.5,2.1-1.5c2.4,0.1,4.7,0,7.1,0c2.3,0,4.6,0.1,6.9,0c1.4-0.1,2.1,0.3,2.6,1.7c0.7,2,1.6,3.9,2.5,5.9
				c0.4,0.9,2.7,1.6,3.4,0.9C416.7,121.8,415.9,121.2,415.6,120.6z M406.9,111.3c-4.2,0-8.4,0-12.6,0c-1,0-1-0.4-0.6-1.1
				c2.3-5.2,4.5-10.5,7-16.2c2.5,5.8,4.7,11,7,16.2C408,110.9,407.8,111.3,406.9,111.3z"/>
		</g>
	</g>
	<g>
		<g>
			<path class="st0" d="M125.1,84c-3.1-2.7-6.9-3.8-10.9-4.2c-7.5-0.7-15.1-0.1-22.6-0.4c-1.5,0-1.8,0.5-1.8,1.9
				c0.1,8.3,0,16.7,0,25c0,8.3,0,16.7,0,25c0,1.3,0.3,1.8,1.7,1.8c3.2-0.1,6.3-0.1,9.5,0c1.3,0,1.7-0.4,1.7-1.6
				c-0.1-5.6,0-11.2-0.1-16.8c0-1.6,0.5-1.9,2-1.9c4.6,0.1,9.3,0.2,13.8-1.2c5.7-1.8,10-5.1,11.3-11.2
				C130.9,94.3,130.2,88.5,125.1,84z M113.7,101.6c-3.4,1.5-6.9,0.9-10.4,1c-0.8,0-0.7-0.7-0.7-1.2c0-1.7,0-3.4,0-5.1s0-3.4,0-5.1
				c0-0.6,0-1.1,0.8-1.1c3.2,0.1,6.5-0.4,9.6,0.5c2.7,0.8,4.1,2.5,4.2,5.1C117.5,98.4,116.2,100.5,113.7,101.6z"/>
		</g>
	</g>
	<path class="st0" d="M32.5,132.9c5.3-8.3,10.4-16.3,15.6-24.3c2.4-3.8,2.4-3.8,0.2-7.6c-4.9-8.3-9.7-16.6-14.5-24.9
		c-0.2-0.4-0.4-0.9-0.8-1.6c3,0,5.9,0,8.7,0c2.2,0,4.8-0.6,6.4,0.3c1.6,1,2.3,3.6,3.3,5.5c4,7.5,8,15,12.1,22.5
		c0.8,1.5,0.8,2.6-0.1,4.1c-5,8.1-9.9,16.3-14.8,24.6c-0.6,1-1.2,1.4-2.5,1.4C41.7,132.8,37.3,132.9,32.5,132.9z"/>
	<path class="st0" d="M86.4,138.2c-2.7,0-5.3,0-7.9,0c-1.8,0-3.7-0.1-5.5,0c-1.2,0.1-1.9-0.3-2.5-1.4c-3.1-5.6-6.3-11.2-9.5-16.8
		c-0.5-0.9-0.5-1.5,0-2.4c1.9-3,3.7-6.1,5.6-9.2c0.5-0.9,0.9-1.4,1.7-0.1c6,9.8,12,19.5,17.9,29.2C86.3,137.6,86.3,137.8,86.4,138.2
		z"/>
	<path class="st0" d="M318,116.6c0-1.5,0-3,0-4.5c0-6.6,0-13.3-0.1-19.9c0-1.3,0.3-1.8,1.7-1.8c1.4,0,1.7,0.5,1.7,1.8
		c-0.1,9.6,0,19.2-0.1,28.9c0,0.7,0.5,1.7-0.6,2c-0.9,0.2-1.7-0.1-2.4-0.9c-5.9-7-11.9-14-17.8-21c-1.3-1.5-2.5-2.9-4.2-4.9
		c0,1.2,0,1.8,0,2.4c0,7.5,0,15.1,0.1,22.6c0,1.3-0.2,1.8-1.7,1.8c-1.4,0-1.7-0.4-1.7-1.8c0.1-9.6,0-19.2,0.1-28.9
		c0-0.7-0.5-1.7,0.6-2c1-0.3,1.8,0.2,2.5,1c4.8,5.7,9.6,11.3,14.4,17c2.4,2.8,4.7,5.5,7.1,8.3C317.7,116.7,317.8,116.6,318,116.6z"
		/>
	<path class="st0" d="M218,96.3c0,6.4,0,12.2,0,18c0,2.4-0.1,4.9,0,7.3c0.1,1.4-0.6,1.5-1.7,1.4c-1,0-1.7,0.1-1.7-1.4
		c0.1-10,0-20,0-30c0-0.5-0.3-1.2,0.6-1.3c0.9-0.1,1.6-0.1,2.3,0.7c1.9,2.3,3.8,4.6,5.8,6.8c5,5.9,10.1,11.9,15.1,17.8
		c0.3,0.3,0.4,0.7,1,0.8c0.5-0.6,0.2-1.3,0.2-1.9c0-7.5,0-15,0-22.5c0-1.2,0.1-1.9,1.6-1.9c1.5,0,1.8,0.5,1.8,1.9
		c0,9.6,0,19.1,0,28.7c0,0.7,0.5,1.7-0.6,2.1c-1,0.3-1.8-0.1-2.5-1c-6.7-8-13.5-16-20.3-23.9C219.1,97.6,218.7,97.1,218,96.3z"/>
	<path class="st0" d="M82.6,79.8c-5.2,7.9-10.1,15.3-15.2,23.1c-1.5-2.4-2.8-4.6-4.1-6.7c-1-1.7-2.7-3.4-2.7-5c0-1.7,1.7-3.4,2.7-5
		c1-1.8,2.1-3.5,3.2-5.3c0.4-0.6,0.8-1,1.6-1C72.8,79.8,77.5,79.8,82.6,79.8z"/>
	<path class="st0" d="M335.8,106.8c0.2,5.4,1.9,10.1,7.2,12.7c5.5,2.7,11.8,1.4,15.8-3.1c0.8-0.9,1.3-1.2,2.3-0.2
		c1,0.9,0.9,1.4,0,2.3c-4.2,4.6-11.8,6.4-18.2,4.2c-6.1-2.1-10.1-7.5-10.5-14.2c-0.4-6,1.1-11.4,6.1-15.3c6.1-4.7,15.8-4.3,21.5,0.8
		c0.6,0.6,1.6,1.1,0.5,2.2c-0.8,0.8-1.3,1.2-2.4,0.2c-4.3-4-9.4-4.7-14.7-2.4C337.8,96.2,335.9,101,335.8,106.8z"/>
	<path class="st0" d="M169,106.6c0-4.9,0-9.7,0-14.6c0-1.3,0.4-1.7,1.6-1.6c5.1,0.1,10.2,0,15.3,0c1,0,1.7,0,1.7,1.4
		c0,1.5-0.8,1.3-1.8,1.3c-4,0-7.9,0-11.9,0c-1.3,0-1.7,0.4-1.7,1.7c0.1,3.1,0.1,6.2,0,9.3c0,1.4,0.3,1.9,1.8,1.9
		c3.4-0.1,6.8,0,10.2-0.1c1,0,1.5,0.1,1.6,1.4c0,1.3-0.5,1.5-1.6,1.5c-3.5-0.1-6.9,0-10.4,0c-1.2,0-1.6,0.4-1.5,1.6
		c0.1,3.7,0,7.4,0.1,11.1c0,1.4-0.4,1.7-1.8,1.7c-1.3,0-1.7-0.4-1.6-1.7C169,116.5,169,111.5,169,106.6z"/>
	<path class="st0" d="M425.9,106.7c0-4.9,0-9.9,0-14.8c0-1.3,0.5-1.5,1.6-1.5c1.1,0,1.8,0,1.8,1.5c-0.1,8.8,0,17.7-0.1,26.5
		c0,1.7,0.5,2.1,2.1,2c4-0.1,7.9,0,11.9,0c1,0,1.5,0.2,1.5,1.4c0,1.2-0.6,1.4-1.6,1.4c-5.2,0-10.5,0-15.7,0c-1.2,0-1.5-0.4-1.5-1.6
		C425.9,116.5,425.9,111.6,425.9,106.7z"/>
	<path class="st0" d="M201.3,106.8c0,4.9,0,9.7,0,14.6c0,1.3-0.4,1.7-1.7,1.7c-1.3,0-1.6-0.4-1.6-1.7c0-9.8,0-19.6,0-29.4
		c0-1.3,0.4-1.6,1.7-1.6c1.3,0,1.7,0.4,1.6,1.7C201.3,96.9,201.3,101.9,201.3,106.8z"/>
	<path class="st0" d="M375.7,106.7c0,4.8,0,9.6,0,14.4c0,1.1,0,2-1.6,1.9c-1.4,0-1.7-0.5-1.7-1.8c0-9.7,0-19.5,0-29.2
		c0-1.2,0.2-1.7,1.6-1.7c1.4,0,1.7,0.5,1.7,1.8C375.7,97,375.7,101.9,375.7,106.7z"/>
	<path class="st0" d="M147.3,106.6c0,8.2,0,16.3,0,24.5c0,0.4,0,0.9,0,1.3c0,0.4-0.1,0.8-0.6,0.7c-0.4,0-0.4-0.4-0.4-0.7
		c0-0.4,0-0.7,0-1.1c0-16.5,0-33,0-49.5c0-0.4,0-0.7,0-1.1c0-0.3,0-0.7,0.4-0.7c0.5-0.1,0.6,0.3,0.6,0.7c0,0.5,0,1,0,1.5
		C147.3,90.2,147.3,98.4,147.3,106.6z"/>
	<g>
		<g>
			<path class="st0" d="M29.5,84c-3.1-2.7-6.9-3.8-10.9-4.2C11,79.1,3.5,79.7-4.1,79.5c-1.5,0-1.8,0.5-1.8,1.9c0.1,8.3,0,16.7,0,25
				c0,8.3,0,16.7,0,25c0,1.3,0.3,1.8,1.7,1.8c3.2-0.1,6.3-0.1,9.5,0c1.3,0,1.7-0.4,1.7-1.6c-0.1-5.6,0-11.2-0.1-16.8
				c0-1.6,0.5-1.9,2-1.9c4.6,0.1,9.3,0.2,13.8-1.2c5.7-1.8,10-5.1,11.3-11.2C35.3,94.3,34.6,88.5,29.5,84z M18.1,101.6
				c-3.4,1.5-6.9,0.9-10.4,1c-0.8,0-0.7-0.7-0.7-1.2c0-1.7,0-3.4,0-5.1c0-1.7,0-3.4,0-5.1C7,90.5,7,90,7.8,90
				c3.2,0.1,6.5-0.4,9.6,0.5c2.7,0.8,4.1,2.5,4.2,5.1C21.8,98.4,20.6,100.5,18.1,101.6z"/>
		</g>
	</g>
	<g>
		<g>
			<path class="st0" d="M282.9,121.1c-4.3-9.8-8.6-19.6-12.8-29.4c-0.4-0.9-0.8-1.4-1.9-1.3c-1,0.1-1.9-0.1-2.5,1.2
				c-1.7,4.1-3.5,8.1-5.3,12.2c-2.6,5.9-5.2,11.8-7.7,17.7c-0.2,0.4-0.7,1-0.1,1.4c0.8,0.6,3.1-0.1,3.5-1.1c0.8-2,1.7-3.9,2.5-5.9
				c0.4-1.1,1-1.5,2.1-1.5c2.4,0.1,4.7,0,7.1,0c2.3,0,4.6,0.1,6.9,0c1.4-0.1,2.1,0.3,2.6,1.7c0.7,2,1.6,3.9,2.5,5.9
				c0.4,0.9,2.7,1.6,3.4,0.9C284.1,122.3,283.2,121.7,282.9,121.1z M274.2,111.7c-4.2,0-8.4,0-12.6,0c-1,0-1-0.4-0.6-1.1
				c2.3-5.2,4.5-10.5,7-16.2c2.5,5.8,4.7,11,7,16.2C275.3,111.4,275.1,111.7,274.2,111.7z"/>
		</g>
	</g>
</g>
</svg>
