<?xml version="1.0" encoding="UTF-8"?>
<!DOCTYPE svg PUBLIC "-//W3C//DTD SVG 1.1//EN" "http://www.w3.org/Graphics/SVG/1.1/DTD/svg11.dtd">
<!-- Creator: CorelDRAW 2020 (64-Bit) -->
<svg xmlns="http://www.w3.org/2000/svg" xml:space="preserve" width="155.397mm" height="41.5214mm" version="1.1" style="shape-rendering:geometricPrecision; text-rendering:geometricPrecision; image-rendering:optimizeQuality; fill-rule:evenodd; clip-rule:evenodd"
viewBox="0 0 17527.65 4683.31"
 xmlns:xlink="http://www.w3.org/1999/xlink"
 xmlns:xodm="http://www.corel.com/coreldraw/odm/2003">
 <defs>
  <style type="text/css">
   <![CDATA[
    .fil0 {fill:#E6E7E8}
   ]]>
  </style>
 </defs>
 <g id="Layer_x0020_1">
  <metadata id="CorelCorpID_0Corel-Layer"/>
  <g id="_1789852604784">
   <path id="polygon2229" class="fil0" d="M-0 79.16l4610.54 0 0 4604.15 -4610.54 0 0 -4604.15zm133.37 133.34l4343.81 0 0 4337.44 -4343.81 0 0 -4337.44z"/>
   <path id="path2233" class="fil0" d="M368.34 3673.58l565.18 577.9 1327.28 -1346.34 1365.38 1371.74 577.9 -565.18 -1359.03 -1359.02 260.38 -254.03 0 -533.45 165.11 -139.71 0 419.14 209.57 171.48 628.71 -628.72 203.22 158.78c120.67,-444.55 -571.55,-1447.94 -1143.1,-889.09l-666.81 660.46 139.71 165.12 -342.93 330.23 -323.88 -323.9 171.48 -158.77 -730.33 -704.91c-546.15,-450.88 -1111.35,241.31 -1130.41,908.15l196.86 -165.12 616.01 660.46 215.93 -184.16 0 -406.45 139.71 107.97 0 527.1 266.73 266.73 -1352.68 1333.64 0 0 0.05 -0.01 -0.01 -0.06z"/>
   <path id="path2235" class="fil0" d="M5785.4 631.64l0 400.08 171.48 0c234.96,-44.45 171.47,-381.04 0,-400.08l-171.48 0 0 0zm-489 -400.09l0 1809.93 489 0 0 -584.25 412.76 584.25 577.9 0 -514.4 -723.97c596.96,-285.77 374.66,-1073.26 -247.67,-1085.95l-717.63 0 0 0 0.02 0 0.01 -0.01zm2260.81 908.13c158.78,0 285.78,120.67 285.78,273.08 0,146.07 -127,266.73 -285.78,266.73 -158.77,0 -292.12,-120.67 -292.12,-266.73 0,-152.42 133.37,-273.08 292.12,-273.08l0 0zm-107.95 -400.09c133.37,0 260.37,44.45 361.99,114.3l0 -69.85 476.3 0 6.34 1257.4 -482.64 0 0 -76.21c-101.6,69.86 -228.62,114.3 -361.99,114.3 -355.62,0 -641.42,-298.46 -641.42,-666.81 0,-368.34 285.78,-673.17 641.42,-673.17l0 0 0 0.02 0 0.01zm1098.65 44.44l501.7 0 0 1257.4 -501.7 0 0 -1257.4 0 0zm254.01 -717.6c146.08,0 266.73,120.67 266.73,273.08 0,146.07 -120.65,266.73 -266.73,266.73 -152.41,0 -273.07,-120.67 -273.07,-266.73 0,-152.42 120.67,-273.08 273.07,-273.08l0 0zm3854.83 717.6l508.02 0 0 1257.4 -508.02 0 0 -1257.4 0 0zm247.67 -717.6c152.41,0 273.07,120.67 273.07,273.08 0,146.07 -120.67,266.73 -273.07,266.73 -146.08,0 -266.73,-120.67 -266.73,-266.73 0,-152.42 120.65,-273.08 266.73,-273.08l0 0zm-3759.55 717.6l0 400.08 177.82 0 0 857.33 489 0 0 -857.33 463.6 0 0 857.33 508.03 0 0 -863.68 311.18 0 0 -387.39 -330.23 0 0 -279.42c-6.34,-101.6 234.97,-146.07 317.51,-57.15l0 -412.76c-463.59,-146.07 -844.64,114.3 -838.28,520.74l0 222.27 -431.85 0 0 -273.07c-6.34,-101.6 203.23,-146.07 323.9,-57.15l0 -412.78c-406.45,-120.67 -838.28,76.21 -831.94,520.75l0 222.27 -158.77 0 0 0 0 -0.02 0.02 -0.01zm2673.6 1295.53c438.19,0 596.96,-184.16 692.22,-444.55l-438.19 0c-203.23,254.03 -495.35,69.85 -476.3,-139.72l927.19 0c0,-514.4 -266.73,-755.71 -704.91,-755.71 -431.85,0 -698.56,304.82 -698.56,679.52 0,374.66 311.17,660.46 698.56,660.46l0 0 -0.01 0zm-158.76 -882.73c6.34,-152.41 336.57,-152.41 355.61,0l-355.61 0 0 0zm3619.85 882.73c438.19,0 596.96,-184.16 692.22,-444.55l-444.55 0c-196.86,254.03 -489,69.85 -476.3,-139.72l933.52 0c0,-514.4 -273.07,-755.71 -704.91,-755.71 -431.84,0 -704.9,304.82 -704.9,679.52 0,374.66 317.5,660.46 704.9,660.46l0 0 0.02 0zm-165.12 -882.73c6.34,-152.41 336.57,-152.41 362,0l-362 0 0 0zm-673.16 -387.4l-152.42 304.82c-184.16,-57.15 -368.34,-44.45 -361.99,6.35 6.34,31.74 -25.41,95.25 266.73,133.37 438.19,69.85 400.09,889.08 -330.23,825.56 -203.22,-12.7 -368.34,-69.85 -501.7,-146.07l158.78 -330.22c234.97,114.3 457.25,184.16 469.92,69.85 19.05,-146.07 -241.31,-95.26 -400.09,-209.57 -279.41,-177.82 -120.65,-717.62 342.93,-723.97 165.12,-12.7 330.23,19.05 508.03,69.86l0 0 0 0.01 0.03 0zm1733.71 -25.4l0 1257.4 476.3 0 0 -768.42c12.7,-190.52 393.73,-222.27 393.73,0l0 768.42 482.64 0 0 -787.48c-12.7,-438.19 -476.3,-654.11 -895.43,-374.66l0 -95.25 -457.25 0 0 0 0.01 0zm-10599.13 2025.86l-317.51 1867.08 895.43 0c609.67,0 857.31,-755.72 425.49,-1016.09 368.34,-336.57 184.16,-850.98 -215.93,-857.31l-787.47 6.34 0 0 0 -0.01zm361.97 1117.71l-63.51 304.82 209.57 0c234.97,12.7 209.56,-304.82 69.85,-304.82l-215.92 0 0 0 0.01 0zm107.97 -673.18l-50.81 254.03 63.51 0c190.52,12.7 298.46,-254.03 69.85,-254.03l-82.55 0 0 0zm736.67 1422.55l546.15 0 158.77 -323.88 616.01 0 95.26 330.22 501.7 0 -438.19 -1860.72 -508.03 0 -971.63 1854.36 0 0 -0.01 0 -0.03 0.02zm882.74 -717.63l342.93 0 -107.97 -488.99 -234.97 488.99 0 0zm1206.61 723.97l501.7 0 127 -1168.52 717.63 1162.15 539.8 0 228.63 -1867.08 -508.03 0 -139.72 1168.52 -717.62 -1174.87 -520.75 0 -228.62 1879.77 0 0 -0.02 0 -0.01 0.03zm2470.37 -1879.77l-349.3 1873.41 527.11 0 146.07 -698.56 469.92 698.56 698.57 0 -679.52 -977.99 870.04 -895.43 -679.52 0 -590.61 660.46 95.26 -660.46 -508.03 0 0 0 0 0.01z"/>
  </g>
 </g>
</svg>
