<?xml version="1.0" encoding="UTF-8"?>
<!DOCTYPE svg PUBLIC "-//W3C//DTD SVG 1.1//EN" "http://www.w3.org/Graphics/SVG/1.1/DTD/svg11.dtd">
<!-- Creator: CorelDRAW 2020 (64-Bit) -->
<svg xmlns="http://www.w3.org/2000/svg" xml:space="preserve" width="76.447mm" height="43.6386mm" version="1.1" style="shape-rendering:geometricPrecision; text-rendering:geometricPrecision; image-rendering:optimizeQuality; fill-rule:evenodd; clip-rule:evenodd"
viewBox="0 0 7644.7 4363.86"
 xmlns:xlink="http://www.w3.org/1999/xlink"
 xmlns:xodm="http://www.corel.com/coreldraw/odm/2003">
 <defs>
  <style type="text/css">
   <![CDATA[
    .str0 {stroke:#E6E7E8;stroke-width:35.28;stroke-miterlimit:22.9256}
    .fil2 {fill:#E6E7E8;fill-rule:nonzero}
    .fil1 {fill:#E6E7E8;fill-rule:nonzero}
    .fil0 {fill:white;fill-rule:nonzero}
   ]]>
  </style>
 </defs>
 <g id="Layer_x0020_1">
  <metadata id="CorelCorpID_0Corel-Layer"/>
  <g id="_2700760624448">
   <path class="fil0 str0" d="M173.75 17.64l7297.21 0c89.96,0 156.1,66.15 156.1,156.1l0 3995.21c0,111.13 -66.15,177.27 -156.1,177.27l-7297.21 0c-89.96,0 -156.1,-66.15 -156.1,-177.27l-0.01 -3995.2c0,-89.96 66.15,-156.11 156.11,-156.11z"/>
   <path id="Combined-Shape" class="fil1" d="M2047 1599.85c-177.27,-132.29 -333.38,-156.1 -357.19,-177.27l0 0 0 -21.17 0 0 558.27 0c134.94,0 156.1,134.94 156.1,134.94l111.13 579.44 0 0 44.98 201.08 336.02 -915.46 357.19 0 -534.46 1338.79 -359.83 0 -312.21 -1140.35zm1473.72 1140.36l-357.19 0 222.25 -1338.79 378.35 0 -243.41 1338.79zm2410.36 0l-402.16 0 -44.98 -201.08 -423.34 0 -66.15 201.08 -357.18 0 513.29 -1227.67c0,0 21.17,-111.13 134.94,-111.13l378.35 0.01 267.23 1338.79zm-1227.67 -1005.41c-156.1,-66.15 -468.31,-89.96 -468.31,44.98 0,156.1 468.31,177.27 468.31,513.29 0,312.21 -357.19,447.15 -579.44,447.15 -222.25,0 -357.19,-66.15 -357.19,-66.15l44.98 -291.04c134.94,111.13 534.46,134.94 534.46,-44.98 0,-179.92 -447.15,-177.27 -447.15,-513.29 0,-357.19 378.35,-423.33 534.46,-423.33 156.1,0 312.21,66.15 312.21,66.15l-42.33 267.22 0 0zm489.47 579.42l291.05 0 -111.13 -492.13 -179.92 492.13z"/>
   <rect class="fil1" x="417.16" y="396" width="6947.96" height="537.1"/>
   <rect class="fil2" x="329.86" y="3430.77" width="7027.33" height="537.1"/>
  </g>
 </g>
</svg>
